<?xml version="1.0" encoding="UTF-8"?><svg id="a" xmlns="http://www.w3.org/2000/svg" xmlns:xlink="http://www.w3.org/1999/xlink" viewBox="0 0 499.6 500.96"><defs><style>.d{fill:url(#c);}.e{fill:url(#b);}.f{fill:#1f00d9;}.g{fill:#5843f3;}</style><linearGradient id="b" x1="243.76" y1="191.27" x2="499.6" y2="191.27" gradientTransform="translate(0 501.93) scale(1 -1)" gradientUnits="userSpaceOnUse"><stop offset="0" stop-color="#aac700"/><stop offset="1" stop-color="#d7f067"/></linearGradient><linearGradient id="c" x1="151.97" y1="363.04" x2="357.76" y2="363.04" xlink:href="#b"/></defs><g><path class="g" d="M264.4,120.36c-37.16-13.6-74.35-21.13-108.84-21.75-65.12-1.14-114.94,22.03-139.86,65.33-24.91,43.33-20.05,98.15,13.6,154.39,29,48.43,77.4,93.95,136.25,128.09,29.42,17.07,59.99,30.46,90.21,39.69l19.53-82.99c-22.52-7.32-45.49-17.56-67.45-30.32-45.97-26.68-84.62-62.52-106.06-98.29-16.58-27.72-21.41-53.15-12.84-68.04,8.57-14.88,32.86-23.42,65.05-22.86,27.37,.49,58.53,7.49,89.72,19.85l20.64-83.09h.03Z"/><path class="e" d="M470.31,281.24c-29-48.43-77.4-93.95-136.25-128.09-22.76-13.22-46.21-24.22-69.67-32.79l-20.64,83.09c16.17,6.38,32.34,14.22,48.02,23.32,45.97,26.68,84.62,62.52,106.06,98.29,16.58,27.72,21.41,53.15,12.84,68.04-8.57,14.88-32.86,23.38-65.05,22.83-21.68-.38-45.73-4.86-70.29-12.84l-19.53,82.99c30.22,9.23,60.16,14.33,88.26,14.85,1.6,0,3.19,.03,4.79,.03,62.94,0,110.78-23.11,135.07-65.4,24.88-43.33,20.05-98.15-13.64-154.39l.03,.07Z"/><ellipse class="f" cx="265.04" cy="444.56" rx="42.54" ry="19.95" transform="translate(-230.2 594.95) rotate(-76.09)"/><ellipse class="f" cx="254.1" cy="161.91" rx="42.74" ry="19.95" transform="translate(35.86 369.64) rotate(-76.09)"/></g><g><path class="g" d="M386.46,36.43c-17.56-10.13-35.77-18.35-53.95-24.36l-20.57,82.54c10.76,3.99,21.65,9.09,32.2,15.2,56.9,32.86,74.11,75.29,69.46,83.37-1.32,2.29-9.68,6.83-27.34,6.59-8.88-.17-18.53-1.56-28.52-4.02l-21.03,82.05c16.41,4.13,32.58,6.38,47.98,6.7h3.16c45.03,0,81.01-17.73,99.02-48.95,34.8-60.3-8.4-145.89-100.44-199.08l.03-.03Z"/><path class="d" d="M332.54,12.08C309.89,4.55,287.3,.42,266.13,.04c-46.6-.97-83.75,17-102.18,48.92-34.8,60.3,8.4,145.89,100.44,199.08,23.49,13.57,48.19,23.66,72.34,29.73l21.03-82.05c-16.65-4.13-34.24-11.35-51.04-21.06-56.9-32.86-74.11-75.29-69.46-83.37,1.32-2.29,9.65-6.94,27.34-6.59,14.4,.28,30.74,3.75,47.36,9.89l20.57-82.54v.03Z"/><ellipse class="f" cx="346.89" cy="236.5" rx="42.22" ry="19.98" transform="translate(33.5 515.87) rotate(-76)"/><ellipse class="f" cx="322.26" cy="53.29" rx="42.57" ry="19.98" transform="translate(192.6 353.08) rotate(-76)"/></g></svg>