<?xml version="1.0" encoding="utf-8"?>
<!-- Generator: Adobe Illustrator 26.1.0, SVG Export Plug-In . SVG Version: 6.00 Build 0)  -->
<svg version="1.1" id="Layer_1" xmlns="http://www.w3.org/2000/svg" xmlns:xlink="http://www.w3.org/1999/xlink" x="0px" y="0px"
	 viewBox="0 0 512 512" style="enable-background:new 0 0 512 512;" xml:space="preserve">
<style type="text/css">
	.st0{fill:url(#SVGID_1_);}
	.st1{fill:#5843F3;}
	.st2{fill:#1F00D9;}
	.st3{fill:url(#SVGID_00000062904579990480789340000004031272501214028931_);}
</style>
<g>
	<g>
		
			<linearGradient id="SVGID_1_" gradientUnits="userSpaceOnUse" x1="4615.0225" y1="548.5814" x2="5116.2383" y2="548.5814" gradientTransform="matrix(0.7071 -0.7071 -0.7071 -0.7071 -2708.2314 4173.4126)">
			<stop  offset="0" style="stop-color:#AAC700"/>
			<stop  offset="1" style="stop-color:#D7F067"/>
		</linearGradient>
		<path class="st0" d="M78.6,433.6c47.3,47.3,110.3,73.4,177.2,73.4s129.9-26.1,177.2-73.4s73.4-110.3,73.4-177.2
			S480.3,126.5,433,79.2l-59.1,59.1c30.3,30.3,49,72.1,49,118.1c0,44.7-17.4,86.6-49,118.2s-73.5,49-118.2,49
			c-46.1,0-87.9-18.8-118.1-49L78.6,433.6z"/>
		<path class="st1" d="M433,79.2C385.6,31.8,322.7,5.8,255.8,5.8S125.9,31.8,78.6,79.2S5.2,189.4,5.2,256.4s26.1,129.9,73.4,177.2
			l59.1-59.1c-30.3-30.3-49-72.1-49-118.1c0-44.7,17.4-86.6,49-118.2s73.5-49,118.2-49c46.1,0,87.9,18.8,118.1,49L433,79.2L433,79.2
			z"/>
		
			<ellipse transform="matrix(0.7071 -0.7071 0.7071 0.7071 -254.065 194.788)" class="st2" cx="108.1" cy="404.1" rx="41.8" ry="20.1"/>
		
			<ellipse transform="matrix(0.7071 -0.7071 0.7071 0.7071 41.2696 317.1277)" class="st2" cx="403.4" cy="108.7" rx="41.8" ry="20.1"/>
	</g>
	<g>
		<path class="st1" d="M167.1,345c48.9,48.9,128.4,48.9,177.3,0c48.9-48.9,48.9-128.4,0-177.3l-59.1,59.2c16.3,16.3,16.3,42.7,0,59
			c-16.3,16.3-42.7,16.3-59,0L167.1,345L167.1,345z"/>
		
			<linearGradient id="SVGID_00000168102492790334602790000005970990762999500978_" gradientUnits="userSpaceOnUse" x1="130.4369" y1="275.9079" x2="344.4006" y2="275.9079" gradientTransform="matrix(1 0 0 -1 0 514)">
			<stop  offset="0" style="stop-color:#AAC700"/>
			<stop  offset="1" style="stop-color:#D7F067"/>
		</linearGradient>
		<path style="fill:url(#SVGID_00000168102492790334602790000005970990762999500978_);" d="M226.2,285.8c-16.3-16.3-16.3-42.7,0-59
			c16.3-16.3,42.7-16.3,59,0l59.2-59.1c-48.9-48.9-128.4-48.9-177.3,0c-48.9,48.9-48.9,128.4,0,177.3L226.2,285.8L226.2,285.8z"/>
		
			<ellipse transform="matrix(0.7071 -0.7071 0.7071 0.7071 -47.2857 280.4216)" class="st2" cx="314.9" cy="197.3" rx="41.8" ry="20.1"/>
		
			<ellipse transform="matrix(0.7071 -0.7071 0.7071 0.7071 -165.4952 231.4797)" class="st2" cx="196.7" cy="315.5" rx="41.8" ry="20.1"/>
	</g>
</g>
</svg>
