<svg width="320" height="320" viewBox="0 0 320 320" fill="none" xmlns="http://www.w3.org/2000/svg">
<rect width="320" height="320" fill="white"/>
<path d="M213.41 196.879H123.121V106.59C123.121 105.699 122.422 105 121.532 105H106.59C105.699 105 105 105.699 105 106.59V213.41C105 214.301 105.699 215 106.59 215H213.41C214.301 215 215 214.301 215 213.41V198.468C215 197.578 214.301 196.879 213.41 196.879Z" fill="#020617"/>
<path d="M213.411 149.127H170.746V106.59C170.746 105.699 170.047 105 169.156 105H154.214C153.324 105 152.625 105.699 152.625 106.59V165.691C152.625 166.581 153.324 167.28 154.214 167.28H213.411C214.301 167.28 215 166.581 215 165.691V150.749C215 149.858 214.301 149.159 213.411 149.159V149.127Z" fill="#020617"/>
</svg>
