<svg width="608" height="160" viewBox="0 0 608 160" fill="none" xmlns="http://www.w3.org/2000/svg">
<g clip-path="url(#clip0_219_1800)">
<path d="M99.347 4.82568C99.0371 3.94023 98.1959 3.36469 97.2662 3.36469H58.528C57.5982 3.36469 56.8013 3.94023 56.4472 4.78141L0.132817 153.581C-0.132816 154.245 -0.0442717 155.042 0.398451 155.617C0.796902 156.237 1.50526 156.591 2.21361 156.591H26.8733C27.803 156.591 28.6442 156.016 28.9541 155.13L45.4234 110.681H108.556L124.538 155.13C124.848 156.016 125.689 156.591 126.619 156.591H152.341C153.049 156.591 153.758 156.237 154.156 155.661C154.555 155.086 154.687 154.289 154.422 153.625L99.347 4.82568ZM99.4355 85.4455H54.7205L75.7499 28.6442H78.9817L99.4355 85.4455Z" fill="white"/>
<path d="M325.623 131.356H199.889V5.62258C199.889 4.38296 198.915 3.40897 197.676 3.40897H176.868C175.628 3.40897 174.654 4.38296 174.654 5.62258V154.377C174.654 155.617 175.628 156.591 176.868 156.591H325.623C326.862 156.591 327.836 155.617 327.836 154.377V133.569C327.836 132.33 326.862 131.356 325.623 131.356Z" fill="white"/>
<path d="M325.623 64.8589H266.209V5.62258C266.209 4.38296 265.235 3.40897 263.996 3.40897H243.188C241.948 3.40897 240.974 4.38296 240.974 5.62258V87.9248C240.974 89.1644 241.948 90.1384 243.188 90.1384H325.623C326.862 90.1384 327.836 89.1644 327.836 87.9248V67.1168C327.836 65.8772 326.862 64.9032 325.623 64.9032V64.8589Z" fill="white"/>
<path d="M464.815 131.356H377.554V91.1123H442.413C443.652 91.1123 444.626 90.1384 444.626 88.8987V68.0908C444.626 66.8511 443.652 65.8771 442.413 65.8771H377.554V28.6442H462.69C463.929 28.6442 464.903 27.6702 464.903 26.4305V5.62258C464.903 4.38296 463.929 3.40897 462.69 3.40897H355.816C354.577 3.40897 353.603 4.38296 353.603 5.62258V154.377C353.603 155.617 354.577 156.591 355.816 156.591H464.815C466.054 156.591 467.028 155.617 467.028 154.377V133.569C467.028 132.33 466.054 131.356 464.815 131.356Z" fill="white"/>
<path d="M602.457 92.7947C599.402 86.9507 594.621 81.9037 588.334 77.8307C582.136 73.8019 574.211 70.6586 564.781 68.4892L537.554 62.114C528.567 60.0775 522.059 57.3769 518.074 54.0564C514.311 50.9131 512.496 46.9729 512.496 41.9258C512.496 38.1627 513.647 35.0194 515.993 32.1859C518.428 29.3082 521.837 27.0061 526.132 25.4123C530.559 23.7299 535.695 22.8888 541.494 22.8888C549.773 22.8888 556.945 24.8367 562.789 28.6884C568.633 32.5401 572.352 37.5429 574.211 44.0066C574.477 44.9364 575.362 45.6004 576.336 45.6004H601.218C601.882 45.6004 602.501 45.3348 602.9 44.8035C603.298 44.3165 603.52 43.6525 603.387 43.0327C601.926 33.9126 598.473 25.9878 593.116 19.5683C587.803 13.1489 580.719 8.19037 572.131 4.86995C563.63 1.5938 553.669 -0.0442734 542.557 -0.0442734C530.869 -0.0442734 520.465 1.72662 511.655 5.22413C502.756 8.76591 495.717 13.8129 490.758 20.2767C485.711 26.829 483.188 34.5766 483.188 43.4311C483.188 54.145 486.597 63.2651 493.37 70.4372C500.011 77.5208 510.194 82.7449 523.564 85.9325L550.747 92.5291C560.797 94.964 567.925 98.1516 571.954 101.959C575.85 105.678 577.753 110.282 577.753 116.082C577.753 120.288 576.602 123.83 574.167 126.929C571.732 130.028 568.058 132.507 563.143 134.278C558.096 136.093 551.942 137.023 544.859 137.023C538.926 137.023 533.348 136.049 528.301 134.189C523.298 132.33 519.048 129.718 515.684 126.397C512.363 123.121 510.017 119.314 508.733 115.019C508.467 114.09 507.582 113.426 506.608 113.426H480.885C480.221 113.426 479.602 113.735 479.159 114.222C478.76 114.754 478.583 115.418 478.672 116.038C480.443 125.158 484.294 133.127 490.138 139.723C495.938 146.276 503.641 151.323 512.894 154.776C522.103 158.185 532.817 159.911 544.815 159.911C556.812 159.911 568.013 158.008 577.31 154.245C586.74 150.437 594.09 144.903 599.181 137.864C604.317 130.78 606.929 122.28 606.929 112.673C606.929 105.279 605.379 98.5501 602.324 92.7504L602.457 92.7947Z" fill="white"/>
</g>
<defs>
<clipPath id="clip0_219_1800">
<rect width="607.061" height="160" fill="white"/>
</clipPath>
</defs>
</svg>
