<?xml version="1.0" encoding="UTF-8"?><svg id="Layer_1" xmlns="http://www.w3.org/2000/svg" xmlns:xlink="http://www.w3.org/1999/xlink" viewBox="0 0 1120 208"><defs><style>.cls-1{fill:url(#linear-gradient);}.cls-2{fill:#1f00d9;}.cls-3{fill:#5843f3;}.cls-4{fill:url(#linear-gradient-2);}</style><linearGradient id="linear-gradient" x1="4601" y1="-418" x2="4745" y2="-418" gradientTransform="translate(-2879.03 3729.33) rotate(-45)" gradientUnits="userSpaceOnUse"><stop offset="0" stop-color="#aac700"/><stop offset="1" stop-color="#d7f067"/></linearGradient><linearGradient id="linear-gradient-2" x1="68.25" y1="98.74" x2="129.72" y2="98.74" gradientTransform="matrix(1, 0, 0, 1, 0, 0)" xlink:href="#linear-gradient"/></defs><g><path d="m208.35,120.31c0-31.09,23.72-54.5,55.25-54.5,25.43,0,45.48,15.27,51.82,38.56.55,2.02-1,4-3.09,4h-21.84c-1.16,0-2.25-.63-2.79-1.66-4.79-9.19-13.71-14.53-24.27-14.53-15.21,0-26.65,12.21-26.65,28.28s11.63,28.59,26.65,28.59c10.73,0,19.34-5.65,24.24-15.67.52-1.07,1.64-1.73,2.83-1.73h22.21c2.08,0,3.62,1.97,3.1,3.98-6.22,23.88-26.65,39.79-52.38,39.79-31.21,0-55.09-24.03-55.09-55.12Z"/><path d="m437.87,120.26c0,1.77-.08,3.53-.23,5.3-.14,1.65-1.53,2.92-3.18,2.92h-71.63c-2.13,0-3.67,2.06-3.06,4.11,3.42,11.55,12.18,17.85,24.4,17.85,9.14,0,16.74-4.05,21.17-10.68.58-.87,1.6-1.36,2.65-1.36h23.05c2.26,0,3.84,2.31,2.96,4.39-8.54,20.07-27.34,32.63-49.82,32.63-30.63,0-53.81-23.72-53.81-54.81s23.02-54.81,53.81-54.81,53.71,24.56,53.71,54.44h0Zm-73.86-10.93h41.16c2.33,0,3.89-2.43,2.9-4.54-4.58-9.77-12.92-15.02-23.91-15.02s-19.04,5.55-23.1,15.13c-.89,2.1.67,4.43,2.95,4.43Z"/><path d="m462.93,32h21.67c1.76,0,3.19,1.43,3.19,3.19v137.49c0,1.76-1.43,3.19-3.19,3.19h-21.67c-1.76,0-3.19-1.43-3.19-3.19V35.19c0-1.76,1.43-3.19,3.19-3.19Z"/><path d="m622.24,72.22v100.59c0,1.76-1.43,3.19-3.19,3.19h-16.17c-1.53,0-2.84-1.08-3.13-2.58l-1.91-9.92c-8.91,7.8-20.53,12.37-33.62,12.37-31.21,0-54.42-23.56-54.42-54.96s23.21-54.65,54.42-54.65c13.32,0,25.12,4.69,34.08,12.69l2.31-7.65c.41-1.35,1.65-2.27,3.05-2.26h15.38c1.76,0,3.19,1.43,3.19,3.19Zm-27.49,48.69c0-16.3-11.95-28.43-28.24-28.43s-28.28,12.17-28.28,28.43,11.98,28.43,28.28,28.43,28.24-12.14,28.24-28.43Z"/><path d="m714.57,154.08v18.6c0,1.76-1.43,3.19-3.19,3.19h-16.74c-22.83,0-36.85-14.02-36.85-37.05v-40.96c0-1.76-1.43-3.19-3.19-3.19h-12.39c-1.76,0-3.19-1.43-3.19-3.19v-16.17c0-1.76,1.43-3.19,3.19-3.19h12.39c1.76,0,3.19-1.43,3.19-3.19v-20.7c0-1.76,1.43-3.19,3.19-3.19h21.2c1.76,0,3.19,1.43,3.19,3.19v20.7c0,1.76,1.43,3.19,3.19,3.19h22.25c1.76,0,3.19,1.43,3.19,3.19v16.17c0,1.76-1.43,3.19-3.19,3.19h-21.78c-1.76,0-3.19,1.43-3.19,3.19v37.25c0,10.03,5.76,15.79,15.98,15.79h9.56c1.76,0,3.19,1.43,3.19,3.19Z"/><path d="m727.86,121.06c0-31.47,23.95-54.81,56.08-54.81s56.08,23.37,56.08,54.81-24.1,54.81-56.08,54.81-56.08-23.52-56.08-54.81Zm83.73,0c0-16.8-11.48-28.44-27.65-28.44s-27.65,11.63-27.65,28.44,11.48,28.43,27.65,28.43,27.65-11.63,27.65-28.43Z"/><path d="m959.53,112.99v59.69c0,1.76-1.43,3.19-3.19,3.19h-21.68c-1.76,0-3.19-1.43-3.19-3.19v-55.15c0-15.68-5.95-23.25-18.09-23.25-14.46,0-23.28,10.36-23.28,27.05v51.34c0,1.76-1.43,3.19-3.19,3.19h-21.67c-1.76,0-3.19-1.43-3.19-3.19v-97.37c0-1.76,1.43-3.19,3.19-3.19h13.95c1.28,0,2.43.76,2.93,1.94l4.64,10.89c7.85-9.35,20.25-15.29,34.37-15.29,23.65,0,38.39,17.06,38.39,43.33Z"/><path d="m1087.83,120.69c0,1.77-.08,3.53-.23,5.3-.14,1.65-1.53,2.92-3.18,2.92h-71.63c-2.13,0-3.67,2.06-3.06,4.11,3.42,11.55,12.18,17.85,24.4,17.85,9.14,0,16.74-4.05,21.17-10.68.58-.87,1.6-1.36,2.65-1.36h23.05c2.26,0,3.84,2.31,2.96,4.39-8.54,20.07-27.34,32.63-49.82,32.63-30.63,0-53.81-23.72-53.81-54.81s23.02-54.81,53.81-54.81,53.71,24.56,53.71,54.44h0Zm-73.86-10.93h41.16c2.33,0,3.89-2.43,2.9-4.54-4.58-9.77-12.92-15.02-23.91-15.02s-19.04,5.55-23.1,15.13c-.89,2.1.67,4.43,2.95,4.43Z"/></g><g><g><path class="cls-1" d="m53.35,154.91c13.6,13.6,31.68,21.09,50.91,21.09s37.31-7.49,50.91-21.09c13.6-13.6,21.09-31.68,21.09-50.91,0-19.23-7.49-37.31-21.09-50.91l-16.97,16.97c8.7,8.7,14.08,20.7,14.08,33.94,0,12.83-5,24.89-14.07,33.96-9.07,9.07-21.13,14.07-33.96,14.07-13.24,0-25.25-5.39-33.94-14.08l-16.96,16.96Z"/><path class="cls-3" d="m155.17,53.09c-13.6-13.6-31.68-21.09-50.91-21.09s-37.31,7.49-50.91,21.09-21.09,31.68-21.09,50.91c0,19.23,7.49,37.31,21.09,50.91l16.97-16.97c-8.7-8.7-14.08-20.7-14.08-33.94,0-12.83,5-24.89,14.07-33.96,9.07-9.07,21.13-14.07,33.96-14.07,13.24,0,25.25,5.39,33.94,14.08l16.96-16.96Z"/><ellipse class="cls-2" cx="61.83" cy="146.43" rx="12" ry="5.77" transform="translate(-85.43 86.61) rotate(-45)"/><ellipse class="cls-2" cx="146.68" cy="61.58" rx="12" ry="5.77" transform="translate(-.58 121.76) rotate(-45)"/></g><g><path class="cls-3" d="m78.79,129.47c14.04,14.04,36.89,14.04,50.94,0,14.04-14.04,14.04-36.89,0-50.94l-16.98,17.01c4.67,4.67,4.67,12.27,0,16.94-4.67,4.67-12.27,4.67-16.94,0l-17.01,16.98Z"/><path class="cls-4" d="m95.77,112.46c-4.67-4.67-4.67-12.27,0-16.94,4.67-4.67,12.27-4.67,16.94,0l17.01-16.98c-14.04-14.04-36.89-14.04-50.94,0-14.04,14.04-14.04,36.89,0,50.94l16.98-17.01Z"/><ellipse class="cls-2" cx="121.24" cy="87.02" rx="12" ry="5.77" transform="translate(-26.03 111.22) rotate(-45)"/><ellipse class="cls-2" cx="87.28" cy="120.99" rx="12" ry="5.77" transform="translate(-59.99 97.15) rotate(-45)"/></g></g></svg>