<?xml version="1.0" encoding="UTF-8"?><svg id="Layer_1" xmlns="http://www.w3.org/2000/svg" xmlns:xlink="http://www.w3.org/1999/xlink" viewBox="0 0 1162.58 208"><defs><style>.cls-1{fill:url(#linear-gradient);}.cls-2{fill:#1f00d9;}.cls-3{fill:#5843f3;}.cls-4{fill:url(#linear-gradient-2);}</style><linearGradient id="linear-gradient" x1="102.25" y1="121.47" x2="176" y2="121.47" gradientUnits="userSpaceOnUse"><stop offset="0" stop-color="#aac700"/><stop offset="1" stop-color="#d7f067"/></linearGradient><linearGradient id="linear-gradient-2" x1="75.79" y1="71.95" x2="135.11" y2="71.95" xlink:href="#linear-gradient"/></defs><g><path d="m319.48,72.82v99.44c0,1.75-1.42,3.17-3.17,3.17h-15.95c-1.52,0-2.82-1.08-3.11-2.57l-1.89-9.84c-8.81,7.71-20.29,12.23-33.23,12.23-30.85,0-53.79-23.29-53.79-54.32s22.94-54.02,53.79-54.02c13.16,0,24.82,4.64,33.69,12.54l2.28-7.55c.4-1.34,1.64-2.25,3.03-2.25h15.18c1.75,0,3.17,1.42,3.17,3.17Zm-27.17,48.1c0-16.11-11.81-28.1-27.91-28.1s-27.95,12.03-27.95,28.1,11.84,28.1,27.95,28.1,27.91-12,27.91-28.1Z"/><path d="m351.17,32.21h21.39c1.75,0,3.17,1.42,3.17,3.17v136.89c0,1.75-1.42,3.17-3.17,3.17h-21.39c-1.75,0-3.17-1.42-3.17-3.17V35.37c0-1.75,1.42-3.17,3.17-3.17Z"/><path d="m407.38,32.21h21.39c1.75,0,3.17,1.42,3.17,3.17v136.89c0,1.75-1.42,3.17-3.17,3.17h-21.39c-1.75,0-3.17-1.42-3.17-3.17V35.37c0-1.75,1.42-3.17,3.17-3.17Z"/><path d="m559.95,120.9c0,1.73-.08,3.45-.22,5.17s-1.5,2.96-3.16,2.96h-70.76c-2.12,0-3.64,2.05-3.04,4.08,3.38,11.4,12.03,17.62,24.11,17.62,9.03,0,16.54-4.01,20.92-10.55.58-.86,1.58-1.34,2.62-1.34h22.76c2.25,0,3.82,2.3,2.94,4.36-8.44,19.83-27.02,32.23-49.23,32.23-30.28,0-53.18-23.44-53.18-54.17s22.75-54.17,53.18-54.17,53.08,24.27,53.08,53.81h0Zm-72.98-10.81h40.64c2.32,0,3.86-2.42,2.88-4.51-4.53-9.64-12.76-14.82-23.62-14.82s-18.81,5.48-22.82,14.93c-.89,2.08.66,4.4,2.93,4.4Z"/><path d="m617.99,175.43c-24.38,0-41.09-13.18-42.91-33.24-.17-1.84,1.32-3.43,3.17-3.43h20.97c1.5,0,2.71,1.12,2.98,2.6,1.32,7.39,7.88,11.09,16.83,11.09,7.7,0,14.58-3.49,14.58-10.34s-8.89-9.13-19.73-10.94c-16.38-2.73-37.22-7.11-37.22-31.28,0-19.4,16.5-32.8,41.26-32.8,23.35,0,39.13,12.26,40.93,30.84.18,1.84-1.31,3.42-3.16,3.42h-20.11c-1.5,0-2.83-1.05-3.09-2.53-1.17-6.45-6.64-9.64-15.25-9.64s-13.72,3.95-13.72,9.82c0,6.84,8.75,8.42,19.4,10.36,16.73,3,38.08,6.54,38.08,31.52,0,20.92-17.11,34.54-43,34.54h0Z"/><path d="m733.6,32.21h21.39c1.75,0,3.17,1.42,3.17,3.17v136.89c0,1.75-1.42,3.17-3.17,3.17h-21.39c-1.75,0-3.17-1.42-3.17-3.17V35.37c0-1.75,1.42-3.17,3.17-3.17Z"/><path d="m891.04,73v98.74c0,1.75-1.42,3.17-3.17,3.17h-15.98c-1.51,0-2.8-1.06-3.1-2.53l-1.87-9.17c-8.81,7.71-20.29,12.23-33.23,12.23-30.85,0-53.79-23.29-53.79-54.32s22.94-54.02,53.79-54.02c13.16,0,24.82,4.64,33.69,12.54l2.28-7.55c.4-1.34,1.64-2.25,3.03-2.25h15.18c1.75,0,3.17,1.42,3.17,3.17Zm-27.17,48.1c0-16.11-11.81-28.1-27.91-28.1s-27.95,12.03-27.95,28.1,11.84,28.1,27.95,28.1,27.91-12,27.91-28.1Z"/><path d="m1029.34,120.74c0,31.04-22.65,54.17-53.91,54.17-12.46,0-23.52-4.22-32.1-11.47l-2.65,9.66c-.38,1.38-1.63,2.33-3.05,2.33h-14.89c-1.75,0-3.17-1.42-3.17-3.17V35.68c0-1.75,1.42-3.17,3.17-3.17h21.39c1.75,0,3.17,1.42,3.17,3.17v39.34c7.92-5.39,17.52-8.45,28.14-8.45,31.26,0,53.91,23.1,53.91,54.17Zm-56.17,27.94c16.11,0,27.91-12,27.91-27.95s-11.81-28.1-27.91-28.1-27.95,12.03-27.95,28.1,11.84,27.95,27.95,27.95h0Z"/><path d="m1087.58,175.27c-24.38,0-41.09-13.18-42.91-33.24-.17-1.84,1.32-3.43,3.17-3.43h20.97c1.5,0,2.71,1.12,2.98,2.6,1.32,7.39,7.88,11.09,16.83,11.09,7.7,0,14.58-3.49,14.58-10.34s-8.89-9.13-19.73-10.94c-16.38-2.73-37.22-7.11-37.22-31.28,0-19.4,16.5-32.8,41.26-32.8,23.35,0,39.13,12.26,40.93,30.84.18,1.84-1.31,3.42-3.16,3.42h-20.11c-1.5,0-2.83-1.05-3.09-2.53-1.17-6.45-6.64-9.64-15.25-9.64s-13.72,3.95-13.72,9.82c0,6.84,8.75,8.42,19.4,10.36,16.73,3,38.08,6.54,38.08,31.52,0,20.92-17.11,34.54-43,34.54h0Z"/></g><g><g><path class="cls-3" d="m108.2,66.61c-10.71-3.92-21.43-6.09-31.37-6.27-18.77-.33-33.13,6.35-40.31,18.83-7.18,12.49-5.78,28.29,3.92,44.5,8.36,13.96,22.31,27.08,39.27,36.92,8.48,4.92,17.29,8.78,26,11.44l5.63-23.92c-6.49-2.11-13.11-5.06-19.44-8.74-13.25-7.69-24.39-18.02-30.57-28.33-4.78-7.99-6.17-15.32-3.7-19.61,2.47-4.29,9.47-6.75,18.75-6.59,7.89.14,16.87,2.16,25.86,5.72l5.95-23.95Z"/><path class="cls-1" d="m167.55,112.98c-8.36-13.96-22.31-27.08-39.27-36.92-6.56-3.81-13.32-6.98-20.08-9.45l-5.95,23.95c4.66,1.84,9.32,4.1,13.84,6.72,13.25,7.69,24.39,18.02,30.57,28.33,4.78,7.99,6.17,15.32,3.7,19.61-2.47,4.29-9.47,6.74-18.75,6.58-6.25-.11-13.18-1.4-20.26-3.7l-5.63,23.92c8.71,2.66,17.34,4.13,25.44,4.28.46,0,.92.01,1.38.01,18.14,0,31.93-6.66,38.93-18.85,7.17-12.49,5.78-28.29-3.93-44.5Z"/><ellipse class="cls-2" cx="108.39" cy="160.04" rx="12.26" ry="5.75" transform="translate(-73.02 226.79) rotate(-76.09)"/><ellipse class="cls-2" cx="105.23" cy="78.58" rx="12.32" ry="5.75" transform="translate(3.66 161.84) rotate(-76.09)"/></g><g><path class="cls-3" d="m143.38,42.42c-5.06-2.92-10.31-5.29-15.55-7.02l-5.93,23.79c3.1,1.15,6.24,2.62,9.28,4.38,16.4,9.47,21.36,21.7,20.02,24.03-.38.66-2.79,1.97-7.88,1.9-2.56-.05-5.34-.45-8.22-1.16l-6.06,23.65c4.73,1.19,9.39,1.84,13.83,1.93.31,0,.61,0,.91,0,12.98,0,23.35-5.11,28.54-14.11,10.03-17.38-2.42-42.05-28.95-57.38Z"/><path class="cls-4" d="m127.84,35.4c-6.53-2.17-13.04-3.36-19.14-3.47-13.43-.28-24.14,4.9-29.45,14.1-10.03,17.38,2.42,42.05,28.95,57.38,6.77,3.91,13.89,6.82,20.85,8.57l6.06-23.65c-4.8-1.19-9.87-3.27-14.71-6.07-16.4-9.47-21.36-21.7-20.02-24.03.38-.66,2.78-2,7.88-1.9,4.15.08,8.86,1.08,13.65,2.85l5.93-23.79Z"/><ellipse class="cls-2" cx="131.98" cy="100.09" rx="12.17" ry="5.76" transform="translate(2.93 203.93) rotate(-76)"/><ellipse class="cls-2" cx="124.88" cy="47.28" rx="12.27" ry="5.76" transform="translate(48.79 157.01) rotate(-76)"/></g></g></svg>