<svg width="1920" height="1080" viewBox="0 0 1920 1080" fill="none" xmlns="http://www.w3.org/2000/svg">
<g clip-path="url(#clip0_561_80)">
<rect width="1920" height="1080" rx="50" fill="url(#paint0_linear_561_80)"/>
<path opacity="0.8" d="M-591.662 915.731L-169.038 583.415C383.361 149.055 1068.09 -82.5853 1770.74 -72.8025L2308.32 -65.3181L2594.52 780.691L2056.94 773.206C1354.29 763.423 669.562 995.064 117.163 1429.42L-305.461 1761.74L-591.662 915.731Z" fill="url(#paint1_linear_561_80)"/>
<path d="M690.754 577.748V653.544C690.754 654.888 689.685 655.957 688.409 655.957H676.548C675.41 655.957 674.444 655.13 674.238 653.992L672.824 646.478C666.273 652.338 657.721 655.785 648.067 655.785C625.102 655.785 608 638.033 608 614.388C608 590.743 625.068 573.198 648.067 573.198C657.859 573.198 666.548 576.749 673.169 582.746L674.858 576.99C675.169 575.956 676.065 575.266 677.099 575.266H688.409C689.719 575.266 690.754 576.335 690.754 577.679V577.748ZM670.514 614.423C670.514 602.152 661.721 592.983 649.722 592.983C637.722 592.983 628.895 602.152 628.895 614.423C628.895 626.693 637.722 635.827 649.722 635.827C661.721 635.827 670.514 626.693 670.514 614.423Z" fill="white"/>
<path d="M1132.67 577.749V653.553C1132.67 654.897 1131.6 655.966 1130.32 655.966H1118.46C1117.32 655.966 1116.36 655.138 1116.15 654.001L1114.74 646.486C1108.19 652.346 1099.63 655.793 1089.98 655.793C1067.02 655.793 1049.91 638.04 1049.91 614.392C1049.91 590.745 1066.98 573.198 1089.98 573.198C1099.77 573.198 1108.46 576.749 1115.08 582.747L1116.77 576.99C1117.08 575.956 1117.98 575.267 1119.01 575.267H1130.32C1131.63 575.267 1132.67 576.335 1132.67 577.68V577.749ZM1112.43 614.427C1112.43 602.155 1103.63 592.985 1091.64 592.985C1079.64 592.985 1070.81 602.155 1070.81 614.427C1070.81 626.699 1079.64 635.834 1091.64 635.834C1103.63 635.834 1112.43 626.699 1112.43 614.427Z" fill="white"/>
<path d="M713.82 545.655H729.785C731.096 545.655 732.165 546.758 732.165 548.103V653.553C732.165 654.897 731.096 656 729.785 656H713.82C712.51 656 711.441 654.897 711.441 653.553V548.103C711.441 546.758 712.51 545.655 713.82 545.655Z" fill="white"/>
<path d="M755.2 545.655H771.165C772.475 545.655 773.544 546.758 773.544 548.103V653.553C773.544 654.897 772.475 656 771.165 656H755.2C753.889 656 752.82 654.897 752.82 653.553V548.103C752.82 546.758 753.889 545.655 755.2 545.655Z" fill="white"/>
<path d="M876.794 614.336C876.794 615.647 876.725 616.957 876.622 618.302C876.519 619.647 875.452 620.543 874.178 620.543H819.18C817.528 620.543 816.358 622.095 816.806 623.647C819.421 632.371 826.167 637.095 835.563 637.095C842.584 637.095 848.435 634.026 851.807 629.026C852.255 628.371 853.046 627.991 853.838 627.991H871.528C873.284 627.991 874.488 629.75 873.8 631.336C867.226 646.474 852.806 655.957 835.528 655.957C811.987 655.957 794.194 638.06 794.194 614.578C794.194 591.095 811.884 573.198 835.528 573.198C859.173 573.198 876.794 591.75 876.794 614.302V614.336ZM820.075 606.095H851.67C853.459 606.095 854.664 604.233 853.907 602.647C850.396 595.267 843.995 591.336 835.563 591.336C827.131 591.336 820.936 595.509 817.804 602.75C817.115 604.336 818.32 606.129 820.075 606.129V606.095Z" fill="white"/>
<path d="M920.02 655.966C901.434 655.966 888.675 645.9 887.296 630.595C887.158 629.181 888.296 627.975 889.71 627.975H905.709C906.847 627.975 907.778 628.837 907.985 629.974C908.985 635.628 913.985 638.454 920.813 638.454C926.675 638.454 931.951 635.8 931.951 630.56C931.951 625.32 925.157 623.597 916.916 622.218C904.434 620.15 888.537 616.771 888.537 598.329C888.537 583.506 901.123 573.268 919.985 573.268C937.778 573.268 949.812 582.644 951.192 596.812C951.33 598.225 950.192 599.432 948.778 599.432H933.433C932.295 599.432 931.261 598.639 931.088 597.502C930.192 592.572 926.02 590.125 919.468 590.125C912.916 590.125 909.02 593.158 909.02 597.639C909.02 602.845 915.709 604.086 923.813 605.533C936.571 607.843 952.847 610.532 952.847 629.595C952.847 645.555 939.813 655.966 920.054 655.966H920.02Z" fill="white"/>
<path d="M1010.36 545.655H1026.32C1027.63 545.655 1028.7 546.758 1028.7 548.103V653.553C1028.7 654.897 1027.63 656 1026.32 656H1010.36C1009.05 656 1007.98 654.897 1007.98 653.553V548.103C1007.98 546.758 1009.05 545.655 1010.36 545.655Z" fill="white"/>
<path d="M1235.55 613.772C1235.55 637.73 1218.48 655.586 1194.9 655.586C1185.52 655.586 1177.18 652.346 1170.69 646.727L1168.69 654.173C1168.42 655.242 1167.45 655.966 1166.38 655.966H1155.14C1153.83 655.966 1152.76 654.862 1152.76 653.518V548.103C1152.76 546.758 1153.83 545.655 1155.14 545.655H1171.28C1172.59 545.655 1173.66 546.758 1173.66 548.103V578.473C1179.62 574.301 1186.87 571.957 1194.86 571.957C1218.42 571.957 1235.52 589.779 1235.52 613.772H1235.55ZM1193.21 635.351C1205.35 635.351 1214.24 626.078 1214.24 613.772C1214.24 601.465 1205.35 592.089 1193.21 592.089C1181.07 592.089 1172.14 601.362 1172.14 613.772C1172.14 626.182 1181.07 635.351 1193.21 635.351Z" fill="white"/>
<path d="M1278.62 655.966C1260.03 655.966 1247.28 645.9 1245.9 630.595C1245.76 629.181 1246.9 627.975 1248.31 627.975H1264.31C1265.45 627.975 1266.38 628.837 1266.59 629.974C1267.59 635.628 1272.59 638.454 1279.41 638.454C1285.28 638.454 1290.55 635.8 1290.55 630.56C1290.55 625.32 1283.76 623.597 1275.52 622.218C1263.03 620.15 1247.14 616.771 1247.14 598.329C1247.14 583.506 1259.72 573.268 1278.59 573.268C1296.38 573.268 1308.41 582.644 1309.79 596.812C1309.93 598.225 1308.79 599.432 1307.38 599.432H1292.03C1290.9 599.432 1289.86 598.639 1289.69 597.502C1288.79 592.572 1284.62 590.125 1278.07 590.125C1271.52 590.125 1267.62 593.158 1267.62 597.639C1267.62 602.845 1274.31 604.086 1282.41 605.533C1295.17 607.843 1311.45 610.532 1311.45 629.595C1311.45 645.555 1298.41 655.966 1278.66 655.966H1278.62Z" fill="white"/>
<path d="M961.625 375.845C949.317 371.361 937.008 368.878 925.562 368.671C903.979 368.292 887.499 375.948 879.224 390.26C870.984 404.572 872.57 422.678 883.741 441.267C893.36 457.269 909.392 472.305 928.872 483.583C938.629 489.204 948.731 493.653 958.764 496.688L965.245 469.271C957.798 466.856 950.179 463.477 942.904 459.269C927.665 450.475 914.874 438.611 907.772 426.817C902.29 417.678 900.669 409.263 903.531 404.331C906.358 399.399 914.426 396.606 925.079 396.778C934.147 396.951 944.456 399.261 954.799 403.331L961.625 375.879V375.845Z" fill="#524BEB"/>
<path d="M1029.82 428.956C1020.2 412.954 1004.17 397.917 984.692 386.64C977.141 382.26 969.384 378.639 961.626 375.811L954.8 403.263C960.144 405.367 965.522 407.953 970.694 410.953C985.933 419.748 998.724 431.611 1005.83 443.406C1011.31 452.545 1012.93 460.96 1010.07 465.892C1007.24 470.823 999.172 473.617 988.519 473.444C981.347 473.306 973.383 471.824 965.246 469.202L958.765 496.62C968.763 499.655 978.693 501.345 988.002 501.517C988.519 501.517 989.07 501.517 989.587 501.517C1010.45 501.517 1026.27 493.895 1034.34 479.928C1042.58 465.616 1040.99 447.51 1029.82 428.921V428.956Z" fill="url(#paint2_linear_561_80)"/>
<path d="M968.27 484.504C970.142 476.98 968.784 470.165 965.236 469.282C961.688 468.398 957.293 473.781 955.421 481.304C953.548 488.827 954.907 495.642 958.455 496.526C962.003 497.409 966.397 492.027 968.27 484.504Z" fill="#1313D1"/>
<path d="M964.676 391.152C966.557 383.592 965.206 376.747 961.658 375.863C958.11 374.98 953.709 380.392 951.827 387.952C949.945 395.513 951.296 402.358 954.844 403.241C958.393 404.125 962.794 398.712 964.676 391.152Z" fill="#1313D1"/>
<path d="M1002.24 348.048C996.413 344.703 990.38 341.978 984.38 340.013L977.554 367.258C981.105 368.568 984.725 370.258 988.207 372.258C1007.07 383.122 1012.76 397.124 1011.2 399.779C1010.76 400.538 1008 402.021 1002.14 401.952C999.206 401.883 995.999 401.435 992.69 400.607L985.725 427.714C991.173 429.059 996.517 429.818 1001.62 429.921C1001.96 429.921 1002.31 429.921 1002.65 429.921C1017.58 429.921 1029.48 424.058 1035.44 413.747C1046.96 393.813 1032.65 365.568 1002.17 348.014L1002.24 348.048Z" fill="#524BEB"/>
<path d="M984.346 340.012C976.864 337.529 969.382 336.15 962.349 336.012C946.903 335.701 934.595 341.633 928.492 352.152C916.977 372.085 931.285 400.33 961.763 417.884C969.555 422.368 977.726 425.713 985.725 427.713L992.689 400.606C987.173 399.227 981.346 396.847 975.795 393.64C956.936 382.776 951.247 368.775 952.799 366.119C953.247 365.36 956.005 363.843 961.866 363.946C966.624 364.05 972.037 365.188 977.553 367.223L984.38 339.978L984.346 340.012Z" fill="url(#paint3_linear_561_80)"/>
<path d="M995.545 415.759C997.416 408.295 996.057 401.522 992.51 400.633C988.963 399.744 984.572 405.075 982.702 412.539C980.831 420.004 982.19 426.777 985.737 427.666C989.284 428.555 993.675 423.224 995.545 415.759Z" fill="#1313D1"/>
<path d="M987.382 355.209C989.271 347.671 987.927 340.839 984.38 339.949C980.834 339.06 976.427 344.451 974.538 351.99C972.649 359.528 973.993 366.36 977.54 367.25C981.087 368.139 985.493 362.748 987.382 355.209Z" fill="#1313D1"/>
<path d="M650.456 716.768C651.672 716.96 652.776 717.456 653.768 718.256C654.792 719.056 655.592 720.048 656.168 721.232C656.776 722.416 657.08 723.68 657.08 725.024C657.08 726.72 656.648 728.256 655.784 729.632C654.92 730.976 653.656 732.048 651.992 732.848C650.36 733.616 648.424 734 646.184 734H633.704V700.544H645.704C647.976 700.544 649.912 700.928 651.512 701.696C653.112 702.432 654.312 703.44 655.112 704.72C655.912 706 656.312 707.44 656.312 709.04C656.312 711.024 655.768 712.672 654.68 713.984C653.624 715.264 652.216 716.192 650.456 716.768ZM638.072 714.992H645.416C647.464 714.992 649.048 714.512 650.168 713.552C651.288 712.592 651.848 711.264 651.848 709.568C651.848 707.872 651.288 706.544 650.168 705.584C649.048 704.624 647.432 704.144 645.32 704.144H638.072V714.992ZM645.8 730.4C647.976 730.4 649.672 729.888 650.888 728.864C652.104 727.84 652.712 726.416 652.712 724.592C652.712 722.736 652.072 721.28 650.792 720.224C649.512 719.136 647.8 718.592 645.656 718.592H638.072V730.4H645.8ZM685.641 719.84C685.641 720.672 685.593 721.552 685.497 722.48H664.473C664.633 725.072 665.513 727.104 667.113 728.576C668.745 730.016 670.713 730.736 673.017 730.736C674.905 730.736 676.473 730.304 677.721 729.44C679.001 728.544 679.897 727.36 680.409 725.888H685.113C684.409 728.416 683.001 730.48 680.889 732.08C678.777 733.648 676.153 734.432 673.017 734.432C670.521 734.432 668.281 733.872 666.297 732.752C664.345 731.632 662.809 730.048 661.689 728C660.569 725.92 660.009 723.52 660.009 720.8C660.009 718.08 660.553 715.696 661.641 713.648C662.729 711.6 664.249 710.032 666.201 708.944C668.185 707.824 670.457 707.264 673.017 707.264C675.513 707.264 677.721 707.808 679.641 708.896C681.561 709.984 683.033 711.488 684.057 713.408C685.113 715.296 685.641 717.44 685.641 719.84ZM681.129 718.928C681.129 717.264 680.761 715.84 680.025 714.656C679.289 713.44 678.281 712.528 677.001 711.92C675.753 711.28 674.361 710.96 672.825 710.96C670.617 710.96 668.729 711.664 667.161 713.072C665.625 714.48 664.745 716.432 664.521 718.928H681.129ZM695.235 711.296V726.8C695.235 728.08 695.507 728.992 696.051 729.536C696.595 730.048 697.539 730.304 698.883 730.304H702.099V734H698.163C695.731 734 693.907 733.44 692.691 732.32C691.475 731.2 690.867 729.36 690.867 726.8V711.296H687.459V707.696H690.867V701.072H695.235V707.696H702.099V711.296H695.235ZM711.219 711.296V726.8C711.219 728.08 711.491 728.992 712.035 729.536C712.579 730.048 713.523 730.304 714.867 730.304H718.083V734H714.147C711.715 734 709.891 733.44 708.675 732.32C707.459 731.2 706.851 729.36 706.851 726.8V711.296H703.443V707.696H706.851V701.072H711.219V707.696H718.083V711.296H711.219ZM745.876 719.84C745.876 720.672 745.828 721.552 745.732 722.48H724.708C724.868 725.072 725.748 727.104 727.348 728.576C728.98 730.016 730.948 730.736 733.252 730.736C735.14 730.736 736.708 730.304 737.956 729.44C739.236 728.544 740.132 727.36 740.644 725.888H745.348C744.644 728.416 743.236 730.48 741.124 732.08C739.012 733.648 736.388 734.432 733.252 734.432C730.756 734.432 728.516 733.872 726.532 732.752C724.58 731.632 723.044 730.048 721.924 728C720.804 725.92 720.244 723.52 720.244 720.8C720.244 718.08 720.788 715.696 721.876 713.648C722.964 711.6 724.484 710.032 726.436 708.944C728.42 707.824 730.692 707.264 733.252 707.264C735.748 707.264 737.956 707.808 739.876 708.896C741.796 709.984 743.268 711.488 744.292 713.408C745.348 715.296 745.876 717.44 745.876 719.84ZM741.364 718.928C741.364 717.264 740.996 715.84 740.26 714.656C739.524 713.44 738.516 712.528 737.236 711.92C735.988 711.28 734.596 710.96 733.06 710.96C730.852 710.96 728.964 711.664 727.396 713.072C725.86 714.48 724.98 716.432 724.756 718.928H741.364ZM754.509 711.968C755.277 710.464 756.365 709.296 757.773 708.464C759.213 707.632 760.957 707.216 763.005 707.216V711.728H761.853C756.957 711.728 754.509 714.384 754.509 719.696V734H750.141V707.696H754.509V711.968ZM798.436 700.544V704.096H789.316V734H784.948V704.096H775.78V700.544H798.436ZM813.785 734.432C811.321 734.432 809.081 733.872 807.065 732.752C805.081 731.632 803.513 730.048 802.361 728C801.241 725.92 800.681 723.52 800.681 720.8C800.681 718.112 801.257 715.744 802.409 713.696C803.593 711.616 805.193 710.032 807.209 708.944C809.225 707.824 811.481 707.264 813.977 707.264C816.473 707.264 818.729 707.824 820.745 708.944C822.761 710.032 824.345 711.6 825.497 713.648C826.681 715.696 827.273 718.08 827.273 720.8C827.273 723.52 826.665 725.92 825.449 728C824.265 730.048 822.649 731.632 820.601 732.752C818.553 733.872 816.281 734.432 813.785 734.432ZM813.785 730.592C815.353 730.592 816.825 730.224 818.201 729.488C819.577 728.752 820.681 727.648 821.513 726.176C822.377 724.704 822.809 722.912 822.809 720.8C822.809 718.688 822.393 716.896 821.561 715.424C820.729 713.952 819.641 712.864 818.297 712.16C816.953 711.424 815.497 711.056 813.929 711.056C812.329 711.056 810.857 711.424 809.513 712.16C808.201 712.864 807.145 713.952 806.345 715.424C805.545 716.896 805.145 718.688 805.145 720.8C805.145 722.944 805.529 724.752 806.297 726.224C807.097 727.696 808.153 728.8 809.465 729.536C810.777 730.24 812.217 730.592 813.785 730.592ZM842.988 734.432C840.524 734.432 838.284 733.872 836.268 732.752C834.284 731.632 832.716 730.048 831.564 728C830.444 725.92 829.884 723.52 829.884 720.8C829.884 718.112 830.46 715.744 831.612 713.696C832.796 711.616 834.396 710.032 836.412 708.944C838.428 707.824 840.684 707.264 843.18 707.264C845.676 707.264 847.932 707.824 849.948 708.944C851.964 710.032 853.548 711.6 854.7 713.648C855.884 715.696 856.476 718.08 856.476 720.8C856.476 723.52 855.868 725.92 854.652 728C853.468 730.048 851.852 731.632 849.804 732.752C847.756 733.872 845.484 734.432 842.988 734.432ZM842.988 730.592C844.556 730.592 846.028 730.224 847.404 729.488C848.78 728.752 849.884 727.648 850.716 726.176C851.58 724.704 852.012 722.912 852.012 720.8C852.012 718.688 851.596 716.896 850.764 715.424C849.932 713.952 848.844 712.864 847.5 712.16C846.156 711.424 844.7 711.056 843.132 711.056C841.532 711.056 840.06 711.424 838.716 712.16C837.404 712.864 836.348 713.952 835.548 715.424C834.748 716.896 834.348 718.688 834.348 720.8C834.348 722.944 834.732 724.752 835.5 726.224C836.3 727.696 837.356 728.8 838.668 729.536C839.98 730.24 841.42 730.592 842.988 730.592ZM865.087 698.48V734H860.719V698.48H865.087ZM873.288 703.424C872.456 703.424 871.752 703.136 871.176 702.56C870.6 701.984 870.312 701.28 870.312 700.448C870.312 699.616 870.6 698.912 871.176 698.336C871.752 697.76 872.456 697.472 873.288 697.472C874.088 697.472 874.76 697.76 875.304 698.336C875.88 698.912 876.168 699.616 876.168 700.448C876.168 701.28 875.88 701.984 875.304 702.56C874.76 703.136 874.088 703.424 873.288 703.424ZM875.4 707.696V734H871.032V707.696H875.4ZM894.16 707.216C897.36 707.216 899.952 708.192 901.936 710.144C903.92 712.064 904.912 714.848 904.912 718.496V734H900.592V719.12C900.592 716.496 899.936 714.496 898.624 713.12C897.312 711.712 895.52 711.008 893.248 711.008C890.944 711.008 889.104 711.728 887.728 713.168C886.384 714.608 885.712 716.704 885.712 719.456V734H881.344V707.696H885.712V711.44C886.576 710.096 887.744 709.056 889.216 708.32C890.72 707.584 892.368 707.216 894.16 707.216ZM921.396 707.264C923.668 707.264 925.652 707.76 927.348 708.752C929.076 709.744 930.356 710.992 931.188 712.496V707.696H935.604V734.576C935.604 736.976 935.092 739.104 934.068 740.96C933.044 742.848 931.572 744.32 929.652 745.376C927.764 746.432 925.556 746.96 923.028 746.96C919.572 746.96 916.692 746.144 914.388 744.512C912.084 742.88 910.724 740.656 910.308 737.84H914.628C915.108 739.44 916.1 740.72 917.604 741.68C919.108 742.672 920.916 743.168 923.028 743.168C925.428 743.168 927.38 742.416 928.884 740.912C930.42 739.408 931.188 737.296 931.188 734.576V729.056C930.324 730.592 929.044 731.872 927.348 732.896C925.652 733.92 923.668 734.432 921.396 734.432C919.06 734.432 916.932 733.856 915.012 732.704C913.124 731.552 911.636 729.936 910.548 727.856C909.46 725.776 908.916 723.408 908.916 720.752C908.916 718.064 909.46 715.712 910.548 713.696C911.636 711.648 913.124 710.064 915.012 708.944C916.932 707.824 919.06 707.264 921.396 707.264ZM931.188 720.8C931.188 718.816 930.788 717.088 929.988 715.616C929.188 714.144 928.1 713.024 926.724 712.256C925.38 711.456 923.892 711.056 922.26 711.056C920.628 711.056 919.14 711.44 917.796 712.208C916.452 712.976 915.38 714.096 914.58 715.568C913.78 717.04 913.38 718.768 913.38 720.752C913.38 722.768 913.78 724.528 914.58 726.032C915.38 727.504 916.452 728.64 917.796 729.44C919.14 730.208 920.628 730.592 922.26 730.592C923.892 730.592 925.38 730.208 926.724 729.44C928.1 728.64 929.188 727.504 929.988 726.032C930.788 724.528 931.188 722.784 931.188 720.8ZM963.486 711.296H957.966V734H953.598V711.296H950.19V707.696H953.598V705.824C953.598 702.88 954.35 700.736 955.854 699.392C957.39 698.016 959.838 697.328 963.198 697.328V700.976C961.278 700.976 959.918 701.36 959.118 702.128C958.35 702.864 957.966 704.096 957.966 705.824V707.696H963.486V711.296ZM978.551 734.432C976.087 734.432 973.847 733.872 971.831 732.752C969.847 731.632 968.279 730.048 967.127 728C966.007 725.92 965.447 723.52 965.447 720.8C965.447 718.112 966.023 715.744 967.175 713.696C968.359 711.616 969.959 710.032 971.975 708.944C973.991 707.824 976.247 707.264 978.743 707.264C981.239 707.264 983.495 707.824 985.511 708.944C987.527 710.032 989.111 711.6 990.263 713.648C991.447 715.696 992.039 718.08 992.039 720.8C992.039 723.52 991.431 725.92 990.215 728C989.031 730.048 987.415 731.632 985.367 732.752C983.319 733.872 981.047 734.432 978.551 734.432ZM978.551 730.592C980.119 730.592 981.591 730.224 982.967 729.488C984.343 728.752 985.447 727.648 986.279 726.176C987.143 724.704 987.575 722.912 987.575 720.8C987.575 718.688 987.159 716.896 986.327 715.424C985.495 713.952 984.407 712.864 983.063 712.16C981.719 711.424 980.263 711.056 978.695 711.056C977.095 711.056 975.623 711.424 974.279 712.16C972.967 712.864 971.911 713.952 971.111 715.424C970.311 716.896 969.911 718.688 969.911 720.8C969.911 722.944 970.295 724.752 971.063 726.224C971.863 727.696 972.919 728.8 974.231 729.536C975.543 730.24 976.983 730.592 978.551 730.592ZM1000.65 711.968C1001.42 710.464 1002.51 709.296 1003.91 708.464C1005.35 707.632 1007.1 707.216 1009.15 707.216V711.728H1007.99C1003.1 711.728 1000.65 714.384 1000.65 719.696V734H996.282V707.696H1000.65V711.968ZM1040.74 716.768C1041.95 716.96 1043.06 717.456 1044.05 718.256C1045.07 719.056 1045.87 720.048 1046.45 721.232C1047.06 722.416 1047.36 723.68 1047.36 725.024C1047.36 726.72 1046.93 728.256 1046.07 729.632C1045.2 730.976 1043.94 732.048 1042.27 732.848C1040.64 733.616 1038.71 734 1036.47 734H1023.99V700.544H1035.99C1038.26 700.544 1040.19 700.928 1041.79 701.696C1043.39 702.432 1044.59 703.44 1045.39 704.72C1046.19 706 1046.59 707.44 1046.59 709.04C1046.59 711.024 1046.05 712.672 1044.96 713.984C1043.91 715.264 1042.5 716.192 1040.74 716.768ZM1028.35 714.992H1035.7C1037.75 714.992 1039.33 714.512 1040.45 713.552C1041.57 712.592 1042.13 711.264 1042.13 709.568C1042.13 707.872 1041.57 706.544 1040.45 705.584C1039.33 704.624 1037.71 704.144 1035.6 704.144H1028.35V714.992ZM1036.08 730.4C1038.26 730.4 1039.95 729.888 1041.17 728.864C1042.39 727.84 1042.99 726.416 1042.99 724.592C1042.99 722.736 1042.35 721.28 1041.07 720.224C1039.79 719.136 1038.08 718.592 1035.94 718.592H1028.35V730.4H1036.08ZM1056.29 698.48V734H1051.92V698.48H1056.29ZM1073.71 734.432C1071.24 734.432 1069 733.872 1066.99 732.752C1065 731.632 1063.44 730.048 1062.28 728C1061.16 725.92 1060.6 723.52 1060.6 720.8C1060.6 718.112 1061.18 715.744 1062.33 713.696C1063.52 711.616 1065.12 710.032 1067.13 708.944C1069.15 707.824 1071.4 707.264 1073.9 707.264C1076.4 707.264 1078.65 707.824 1080.67 708.944C1082.68 710.032 1084.27 711.6 1085.42 713.648C1086.6 715.696 1087.2 718.08 1087.2 720.8C1087.2 723.52 1086.59 725.92 1085.37 728C1084.19 730.048 1082.57 731.632 1080.52 732.752C1078.48 733.872 1076.2 734.432 1073.71 734.432ZM1073.71 730.592C1075.28 730.592 1076.75 730.224 1078.12 729.488C1079.5 728.752 1080.6 727.648 1081.44 726.176C1082.3 724.704 1082.73 722.912 1082.73 720.8C1082.73 718.688 1082.32 716.896 1081.48 715.424C1080.65 713.952 1079.56 712.864 1078.22 712.16C1076.88 711.424 1075.42 711.056 1073.85 711.056C1072.25 711.056 1070.78 711.424 1069.44 712.16C1068.12 712.864 1067.07 713.952 1066.27 715.424C1065.47 716.896 1065.07 718.688 1065.07 720.8C1065.07 722.944 1065.45 724.752 1066.22 726.224C1067.02 727.696 1068.08 728.8 1069.39 729.536C1070.7 730.24 1072.14 730.592 1073.71 730.592ZM1089.81 720.8C1089.81 718.08 1090.35 715.712 1091.44 713.696C1092.53 711.648 1094.03 710.064 1095.95 708.944C1097.9 707.824 1100.13 707.264 1102.62 707.264C1105.85 707.264 1108.51 708.048 1110.59 709.616C1112.7 711.184 1114.09 713.36 1114.77 716.144H1110.06C1109.61 714.544 1108.73 713.28 1107.42 712.352C1106.14 711.424 1104.54 710.96 1102.62 710.96C1100.13 710.96 1098.11 711.824 1096.57 713.552C1095.04 715.248 1094.27 717.664 1094.27 720.8C1094.27 723.968 1095.04 726.416 1096.57 728.144C1098.11 729.872 1100.13 730.736 1102.62 730.736C1104.54 730.736 1106.14 730.288 1107.42 729.392C1108.7 728.496 1109.58 727.216 1110.06 725.552H1114.77C1114.06 728.24 1112.65 730.4 1110.54 732.032C1108.43 733.632 1105.79 734.432 1102.62 734.432C1100.13 734.432 1097.9 733.872 1095.95 732.752C1094.03 731.632 1092.53 730.048 1091.44 728C1090.35 725.952 1089.81 723.552 1089.81 720.8ZM1133.78 734L1123.46 722.384V734H1119.09V698.48H1123.46V719.36L1133.59 707.696H1139.69L1127.3 720.8L1139.73 734H1133.78ZM1140.67 720.8C1140.67 718.08 1141.21 715.712 1142.3 713.696C1143.39 711.648 1144.89 710.064 1146.81 708.944C1148.76 707.824 1150.99 707.264 1153.48 707.264C1156.71 707.264 1159.37 708.048 1161.45 709.616C1163.56 711.184 1164.95 713.36 1165.63 716.144H1160.92C1160.47 714.544 1159.59 713.28 1158.28 712.352C1157 711.424 1155.4 710.96 1153.48 710.96C1150.99 710.96 1148.97 711.824 1147.43 713.552C1145.9 715.248 1145.13 717.664 1145.13 720.8C1145.13 723.968 1145.9 726.416 1147.43 728.144C1148.97 729.872 1150.99 730.736 1153.48 730.736C1155.4 730.736 1157 730.288 1158.28 729.392C1159.56 728.496 1160.44 727.216 1160.92 725.552H1165.63C1164.92 728.24 1163.51 730.4 1161.4 732.032C1159.29 733.632 1156.65 734.432 1153.48 734.432C1150.99 734.432 1148.76 733.872 1146.81 732.752C1144.89 731.632 1143.39 730.048 1142.3 728C1141.21 725.952 1140.67 723.552 1140.67 720.8ZM1183.01 707.216C1184.99 707.216 1186.79 707.648 1188.39 708.512C1189.99 709.344 1191.23 710.608 1192.13 712.304C1193.06 714 1193.52 716.064 1193.52 718.496V734H1189.2V719.12C1189.2 716.496 1188.55 714.496 1187.23 713.12C1185.92 711.712 1184.13 711.008 1181.86 711.008C1179.55 711.008 1177.71 711.728 1176.34 713.168C1174.99 714.608 1174.32 716.704 1174.32 719.456V734H1169.95V698.48H1174.32V711.44C1175.19 710.096 1176.37 709.056 1177.87 708.32C1179.41 707.584 1181.12 707.216 1183.01 707.216ZM1197.52 720.752C1197.52 718.064 1198.07 715.712 1199.16 713.696C1200.24 711.648 1201.73 710.064 1203.62 708.944C1205.54 707.824 1207.67 707.264 1210 707.264C1212.31 707.264 1214.31 707.76 1216 708.752C1217.7 709.744 1218.96 710.992 1219.8 712.496V707.696H1224.21V734H1219.8V729.104C1218.93 730.64 1217.64 731.92 1215.91 732.944C1214.21 733.936 1212.23 734.432 1209.96 734.432C1207.62 734.432 1205.51 733.856 1203.62 732.704C1201.73 731.552 1200.24 729.936 1199.16 727.856C1198.07 725.776 1197.52 723.408 1197.52 720.752ZM1219.8 720.8C1219.8 718.816 1219.4 717.088 1218.6 715.616C1217.8 714.144 1216.71 713.024 1215.33 712.256C1213.99 711.456 1212.5 711.056 1210.87 711.056C1209.24 711.056 1207.75 711.44 1206.4 712.208C1205.06 712.976 1203.99 714.096 1203.19 715.568C1202.39 717.04 1201.99 718.768 1201.99 720.752C1201.99 722.768 1202.39 724.528 1203.19 726.032C1203.99 727.504 1205.06 728.64 1206.4 729.44C1207.75 730.208 1209.24 730.592 1210.87 730.592C1212.5 730.592 1213.99 730.208 1215.33 729.44C1216.71 728.64 1217.8 727.504 1218.6 726.032C1219.4 724.528 1219.8 722.784 1219.8 720.8ZM1232.35 703.424C1231.52 703.424 1230.81 703.136 1230.24 702.56C1229.66 701.984 1229.37 701.28 1229.37 700.448C1229.37 699.616 1229.66 698.912 1230.24 698.336C1230.81 697.76 1231.52 697.472 1232.35 697.472C1233.15 697.472 1233.82 697.76 1234.37 698.336C1234.94 698.912 1235.23 699.616 1235.23 700.448C1235.23 701.28 1234.94 701.984 1234.37 702.56C1233.82 703.136 1233.15 703.424 1232.35 703.424ZM1234.46 707.696V734H1230.09V707.696H1234.46ZM1253.22 707.216C1256.42 707.216 1259.01 708.192 1261 710.144C1262.98 712.064 1263.97 714.848 1263.97 718.496V734H1259.65V719.12C1259.65 716.496 1259 714.496 1257.69 713.12C1256.37 711.712 1254.58 711.008 1252.31 711.008C1250.01 711.008 1248.17 711.728 1246.79 713.168C1245.45 714.608 1244.77 716.704 1244.77 719.456V734H1240.41V707.696H1244.77V711.44C1245.64 710.096 1246.81 709.056 1248.28 708.32C1249.78 707.584 1251.43 707.216 1253.22 707.216ZM1278.92 734.432C1276.91 734.432 1275.1 734.096 1273.5 733.424C1271.9 732.72 1270.63 731.76 1269.71 730.544C1268.78 729.296 1268.27 727.872 1268.17 726.272H1272.68C1272.81 727.584 1273.42 728.656 1274.51 729.488C1275.63 730.32 1277.08 730.736 1278.87 730.736C1280.54 730.736 1281.85 730.368 1282.81 729.632C1283.77 728.896 1284.25 727.968 1284.25 726.848C1284.25 725.696 1283.74 724.848 1282.71 724.304C1281.69 723.728 1280.11 723.168 1277.96 722.624C1276.01 722.112 1274.41 721.6 1273.16 721.088C1271.95 720.544 1270.89 719.76 1269.99 718.736C1269.13 717.68 1268.7 716.304 1268.7 714.608C1268.7 713.264 1269.1 712.032 1269.9 710.912C1270.7 709.792 1271.83 708.912 1273.31 708.272C1274.78 707.6 1276.46 707.264 1278.35 707.264C1281.26 707.264 1283.61 708 1285.4 709.472C1287.19 710.944 1288.15 712.96 1288.28 715.52H1283.91C1283.82 714.144 1283.26 713.04 1282.23 712.208C1281.24 711.376 1279.9 710.96 1278.2 710.96C1276.63 710.96 1275.39 711.296 1274.46 711.968C1273.53 712.64 1273.07 713.52 1273.07 714.608C1273.07 715.472 1273.34 716.192 1273.88 716.768C1274.46 717.312 1275.16 717.76 1275.99 718.112C1276.86 718.432 1278.04 718.8 1279.55 719.216C1281.43 719.728 1282.97 720.24 1284.15 720.752C1285.34 721.232 1286.35 721.968 1287.18 722.96C1288.04 723.952 1288.49 725.248 1288.52 726.848C1288.52 728.288 1288.12 729.584 1287.32 730.736C1286.52 731.888 1285.39 732.8 1283.91 733.472C1282.47 734.112 1280.81 734.432 1278.92 734.432Z" fill="white"/>
<path d="M2096.19 668.727L2186.59 606.741C2062.36 392.366 1845.5 295.14 1630.15 353.836L1664.52 457.454C1829.77 412.329 1997.85 499.113 2096.19 668.727Z" fill="#484187"/>
<path d="M2029.75 297.017C2094.1 303.606 2153.25 290.772 2203.89 260.171L2149.54 165.096C2109.51 189.299 2057.09 195.599 1999.27 180.083C1901.81 153.997 1792.62 66.0184 1744.24 -22.0588L1653.78 39.8428C1720.25 138.507 1842.83 251.631 1970.73 285.91C1990.76 291.271 2010.43 294.95 2029.76 296.946L2029.75 297.017Z" fill="#484187"/>
<path d="M1664.52 457.454C1756.14 424.296 1813.7 362.199 1834.09 290.875C1859.21 203.305 1829.55 100.861 1744.23 -21.988L1653.77 39.9135C1717.31 131.414 1742.92 207.957 1727.86 260.576C1716.7 299.439 1682.39 330.812 1622.83 356.437L1664.52 457.454Z" fill="#353282"/>
<path d="M1653.61 39.9054C1645.7 28.1508 1659.66 4.9103 1684.79 -12.0036C1709.92 -28.9174 1736.7 -33.0997 1744.61 -21.3451C1752.53 -9.59044 1738.57 13.6498 1713.43 30.5637C1688.3 47.4775 1661.52 51.66 1653.61 39.9054Z" fill="#1E1E84"/>
<path d="M1620.8 417.507C1608.27 389.971 1608.6 362.878 1621.53 356.992C1634.46 351.107 1655.1 368.657 1667.63 396.193C1680.16 423.729 1679.84 450.822 1666.91 456.708C1653.97 462.594 1633.33 445.043 1620.8 417.507Z" fill="#1E1E84"/>
<path d="M104.557 1108.71C152.727 1126.36 200.824 1136.14 245.538 1136.95C329.891 1138.42 394.462 1108.41 426.673 1052.15C458.958 995.963 452.634 924.772 409.023 851.815C371.443 788.934 308.785 729.951 232.521 685.604C194.426 663.467 154.86 646.11 115.662 634.122L90.3633 741.792C119.56 751.279 149.271 764.591 177.732 781.139C237.301 815.778 287.384 862.259 315.109 908.666C336.584 944.629 342.835 977.651 331.73 996.919C320.625 1016.26 289.149 1027.29 247.45 1026.56C212.003 1025.9 171.628 1016.85 131.253 1000.82L104.483 1108.63L104.557 1108.71Z" fill="#353282"/>
<path d="M-162.109 899.987C-124.529 962.867 -61.8709 1021.85 14.3928 1066.2C43.8833 1083.33 74.2563 1097.6 104.629 1108.71L131.399 1000.89C110.439 992.58 89.5533 982.43 69.182 970.663C9.61259 936.024 -40.4701 889.543 -68.1956 843.136C-89.67 807.173 -95.921 774.151 -84.8161 754.882C-73.7111 735.54 -42.235 724.508 -0.536375 725.244C27.5569 725.759 58.6654 731.569 90.5093 741.939L115.808 634.269C76.6098 622.281 37.9263 615.662 1.44919 615C-0.609999 615 -2.66916 615 -4.72835 615C-86.287 615 -148.283 645.006 -179.686 699.797C-211.898 755.986 -205.646 827.177 -162.036 900.134L-162.109 899.987Z" fill="#484187"/>
<path d="M129.068 694.423C136.376 664.849 131.048 638.094 117.169 634.665C103.289 631.235 86.1136 652.429 78.806 682.002C71.4984 711.576 76.826 738.331 90.7055 741.761C104.585 745.191 121.761 723.997 129.068 694.423Z" fill="#1E1E84"/>
<path d="M143.238 1061.12C150.585 1031.38 145.289 1004.5 131.409 1001.07C117.53 997.642 100.323 1018.96 92.9762 1048.7C85.6296 1078.43 90.9257 1105.31 104.805 1108.74C118.685 1112.17 135.892 1090.85 143.238 1061.12Z" fill="#1E1E84"/>
<path d="M32.0145 138.487L81.8459 125.277C99.0909 190.343 166.066 229.252 231.131 212.005L244.338 261.837C151.794 286.368 56.5742 231.05 32.046 138.505L32.0145 138.487Z" fill="#21212B"/>
<path d="M107.776 424.335C83.2481 331.79 138.568 236.567 231.112 212.035L244.32 261.867C179.255 279.114 140.345 346.092 157.589 411.157L107.758 424.366L107.776 424.335Z" fill="#3B3B50"/>
<path d="M-41.5084 337.606L-54.7159 287.774C37.8282 263.243 133.048 318.561 157.576 411.106L107.745 424.315C90.4997 359.25 23.5248 320.341 -41.5399 337.588L-41.5084 337.606Z" fill="#21212B"/>
<path d="M-41.5083 337.608L-54.7159 287.776C10.3487 270.529 49.2594 203.552 32.0145 138.487L81.8459 125.277C106.374 217.822 51.0541 313.045 -41.4901 337.577L-41.5083 337.608Z" fill="#3B3B50"/>
<path d="M244.303 261.85C250.913 260.098 253.314 247.519 249.665 233.755C246.017 219.991 237.702 210.253 231.092 212.005C224.482 213.757 222.081 226.336 225.729 240.1C229.377 253.864 237.693 263.602 244.303 261.85Z" fill="black"/>
<path d="M60.1218 143.869C73.886 140.22 83.6238 131.904 81.8719 125.294C80.12 118.684 67.5417 116.283 53.7775 119.932C40.0133 123.58 30.2754 131.897 32.0273 138.506C33.7793 145.116 46.3576 147.517 60.1218 143.869Z" fill="black"/>
<path d="M135.821 429.683C149.585 426.034 159.323 417.718 157.571 411.108C155.819 404.498 143.24 402.097 129.476 405.746C115.712 409.395 105.974 417.711 107.726 424.321C109.478 430.931 122.056 433.331 135.821 429.683Z" fill="black"/>
<path d="M1705.84 891.764C1706.02 931.632 1721.71 969.055 1750.02 997.114C1778.33 1025.17 1815.89 1040.52 1855.76 1040.35C1895.63 1040.17 1933.05 1024.48 1961.11 996.165C1989.17 967.853 2004.52 930.29 2004.35 890.422L1954.59 890.646C1954.71 916.121 1945.13 941.688 1925.81 961.181C1907.09 980.072 1882.14 990.547 1855.54 990.643C1828.96 990.762 1803.89 980.536 1785 961.814C1765.51 942.495 1755.68 917.039 1755.59 891.54L1705.84 891.764Z" fill="#21212B"/>
<path d="M2004.35 890.422C2004.17 850.555 1988.48 813.131 1960.17 785.072C1931.86 757.013 1894.3 741.662 1854.43 741.841C1814.56 742.02 1777.14 757.709 1749.08 786.021C1721.02 814.333 1705.66 851.896 1705.84 891.764L1755.59 891.54C1755.48 866.065 1765.05 840.499 1784.37 821.005C1803.1 802.114 1828.05 791.639 1854.65 791.544C1881.23 791.424 1906.29 801.65 1925.18 820.372C1944.68 839.691 1954.5 865.147 1954.59 890.646L2004.35 890.422Z" fill="#3B3B50"/>
<path d="M1730.75 903.61C1744.49 903.549 1755.6 898.152 1755.57 891.557C1755.54 884.962 1744.38 879.666 1730.65 879.728C1716.91 879.79 1705.8 885.186 1705.83 891.781C1705.86 898.376 1717.02 903.672 1730.75 903.61Z" fill="black"/>
</g>
<defs>
<linearGradient id="paint0_linear_561_80" x1="225" y1="1442.5" x2="1920" y2="3.81453e-08" gradientUnits="userSpaceOnUse">
<stop stop-color="#111117"/>
<stop offset="1" stop-color="#191835"/>
</linearGradient>
<linearGradient id="paint1_linear_561_80" x1="423.146" y1="-635.033" x2="1268.16" y2="1759.93" gradientUnits="userSpaceOnUse">
<stop stop-color="#3C3A52"/>
<stop offset="0.835437" stop-color="#3C3A52" stop-opacity="0"/>
</linearGradient>
<linearGradient id="paint2_linear_561_80" x1="926.149" y1="536.832" x2="1093.53" y2="283.326" gradientUnits="userSpaceOnUse">
<stop offset="0.09" stop-color="#95A931"/>
<stop offset="0.1" stop-color="#97AB33"/>
<stop offset="0.31" stop-color="#C2D754"/>
<stop offset="0.41" stop-color="#D3E961"/>
<stop offset="0.49" stop-color="#D7EB6D"/>
<stop offset="0.6" stop-color="#DBEE77"/>
<stop offset="0.73" stop-color="#DDEF7B"/>
</linearGradient>
<linearGradient id="paint3_linear_561_80" x1="924.389" y1="456.786" x2="1005.86" y2="290.507" gradientUnits="userSpaceOnUse">
<stop stop-color="#95A931"/>
<stop offset="0.02" stop-color="#97AB33"/>
<stop offset="0.34" stop-color="#C2D754"/>
<stop offset="0.5" stop-color="#D3E961"/>
</linearGradient>
<clipPath id="clip0_561_80">
<rect width="1920" height="1080" rx="50" fill="white"/>
</clipPath>
</defs>
</svg>
