<svg version="1.1" xmlns="http://www.w3.org/2000/svg" viewBox="0 0 2308.5340279132633 1102.4671337616378" width="4617.068055826527" height="2204.9342675232756">
  <!-- svg-source:excalidraw -->
  
  <defs>
    <style class="style-fonts">
      @font-face {
        font-family: "Virgil";
        src: url("https://excalidraw.com/Virgil.woff2");
      }
      @font-face {
        font-family: "Cascadia";
        src: url("https://excalidraw.com/Cascadia.woff2");
      }
      @font-face {
        font-family: "Assistant";
        src: url("https://app.excalidraw.com//dist/excalidraw-assets/Assistant-Regular.woff2");
      }
    </style>
    
  </defs>
  <rect x="0" y="0" width="2308.5340279132633" height="1102.4671337616378" fill="#ffffff"></rect><g stroke-linecap="round" transform="translate(2153.0441695930467 554.6132281570372) rotate(0 59.16015625 59.8515625)"><path d="M0 0 C48.58 -1.85, 93.75 -0.34, 118.32 0 M0 0 C29.13 -0.16, 57.58 0.27, 118.32 0 M118.32 0 C118.97 43.07, 118.28 84.39, 118.32 119.7 M118.32 0 C118.13 32.22, 118.63 63.98, 118.32 119.7 M118.32 119.7 C83.53 119.14, 46.93 120.21, 0 119.7 M118.32 119.7 C70.58 119.88, 24.95 120.9, 0 119.7 M0 119.7 C1.54 73.36, 0.1 29.98, 0 0 M0 119.7 C-0.58 83.71, -0.64 48.71, 0 0" stroke="#000000" stroke-width="1" fill="none"></path></g><g stroke-linecap="round" transform="translate(2145.3219643998314 545.6231997260224) rotate(0 59.16015625 59.8515625)"><path d="M-0.67 -1.92 L118.49 1.9 L118.13 119.72 L1.58 119.71" stroke="none" stroke-width="0" fill="#fff"></path><path d="M0 0 C41.93 1.04, 84.07 1.42, 118.32 0 M0 0 C41.93 0.33, 85.62 -1.57, 118.32 0 M118.32 0 C120.43 25.71, 118.73 52.56, 118.32 119.7 M118.32 0 C118.56 44.32, 118.17 89.36, 118.32 119.7 M118.32 119.7 C74.57 118.68, 34.26 119.84, 0 119.7 M118.32 119.7 C73.41 118.83, 27.31 118.92, 0 119.7 M0 119.7 C-0.7 88.06, -1.18 52.84, 0 0 M0 119.7 C0.12 93.06, 0.14 67.53, 0 0" stroke="#000000" stroke-width="1" fill="none"></path></g><g stroke-linecap="round" transform="translate(2136.0836831498314 535.9200747260224) rotate(0 59.16015625 59.8515625)"><path d="M0.17 1.9 L118.13 0.02 L119.9 119.71 L0.35 120.44" stroke="none" stroke-width="0" fill="#fff"></path><path d="M0 0 C27.68 0.53, 58.71 -0.15, 118.32 0 M0 0 C42.5 -2.08, 83.1 -0.28, 118.32 0 M118.32 0 C118.32 39.16, 120.4 78.35, 118.32 119.7 M118.32 0 C118.76 37.8, 119.41 75.25, 118.32 119.7 M118.32 119.7 C92.58 120.47, 64.65 118.44, 0 119.7 M118.32 119.7 C93.88 120.13, 67.6 120.8, 0 119.7 M0 119.7 C-0.32 87.56, -1.81 54.69, 0 0 M0 119.7 C0.21 91.41, 0.83 60.52, 0 0" stroke="#000000" stroke-width="1" fill="none"></path></g><g transform="translate(2155.7238809037376 570.7716372260224) rotate(0 39.51995849609375 25)"><text x="39.51995849609375" y="0" font-family="Virgil, Segoe UI Emoji" font-size="20px" fill="#1e1e1e" text-anchor="middle" style="white-space: pre;" direction="ltr" dominant-baseline="text-before-edge">Aldus </text><text x="39.51995849609375" y="25" font-family="Virgil, Segoe UI Emoji" font-size="20px" fill="#1e1e1e" text-anchor="middle" style="white-space: pre;" direction="ltr" dominant-baseline="text-before-edge">Registry</text></g><g mask="url(#mask-JbAE6RgTaRXY_xZ0s-EL4)" stroke-linecap="round"><g transform="translate(1807.7381912101382 598.6387421392883) rotate(0 164.43811469469574 0)"><path d="M0 0 C107.24 -3.14, 215.49 -1.65, 328.88 0 M0 0 C65.59 0.51, 132.57 0.9, 328.88 0" stroke="#1e1e1e" stroke-width="1" fill="none"></path></g><g transform="translate(1807.7381912101382 598.6387421392883) rotate(0 164.43811469469574 0)"><path d="M305.41 8.63 C311.65 3.75, 319.35 3.1, 328.88 0 M305.41 8.63 C309.56 6.83, 315.69 5.66, 328.88 0" stroke="#1e1e1e" stroke-width="1" fill="none"></path></g><g transform="translate(1807.7381912101382 598.6387421392883) rotate(0 164.43811469469574 0)"><path d="M305.36 -8.47 C311.59 -7.72, 319.3 -2.74, 328.88 0 M305.36 -8.47 C309.46 -6.84, 315.6 -4.58, 328.88 0" stroke="#1e1e1e" stroke-width="1" fill="none"></path></g></g><mask id="mask-JbAE6RgTaRXY_xZ0s-EL4"><rect x="0" y="0" fill="#fff" width="2236.6144205995297" height="698.6387421392883"></rect><rect x="1914.546339168994" y="573.6387421392883" fill="#000" width="115.25993347167969" height="50" opacity="1"></rect></mask><g transform="translate(1914.546339168994 573.6387421392883) rotate(0 57.629966735839844 24.349169497014913)"><text x="57.629966735839844" y="0" font-family="Virgil, Segoe UI Emoji" font-size="20px" fill="#1e1e1e" text-anchor="middle" style="white-space: pre;" direction="ltr" dominant-baseline="text-before-edge">Retrieves</text><text x="57.629966735839844" y="25" font-family="Virgil, Segoe UI Emoji" font-size="20px" fill="#1e1e1e" text-anchor="middle" style="white-space: pre;" direction="ltr" dominant-baseline="text-before-edge">Label Data</text></g><g stroke-linecap="round" transform="translate(1631.6402224039107 562.1297470711656) rotate(0 87.54898440311376 40)"><path d="M0 0 C66.2 -3.02, 130.89 -2.47, 175.1 0 M0 0 C65.47 0.15, 130.38 0.85, 175.1 0 M175.1 0 C175.28 25.96, 177.05 51.82, 175.1 80 M175.1 0 C174.73 26.54, 175.52 52.82, 175.1 80 M175.1 80 C137.37 78.92, 99.05 82.65, 0 80 M175.1 80 C123.26 81.32, 71.03 81.42, 0 80 M0 80 C0.77 50.52, -1.16 21.46, 0 0 M0 80 C0.72 54.96, 0.43 27.75, 0 0" stroke="#1e1e1e" stroke-width="1" fill="none"></path></g><g transform="translate(1682.8032204788997 567.1297470711656) rotate(0 36.385986328125 35)"><text x="36.385986328125" y="0" font-family="Virgil, Segoe UI Emoji" font-size="28px" fill="#1e1e1e" text-anchor="middle" style="white-space: pre;" direction="ltr" dominant-baseline="text-before-edge">Aldus</text><text x="36.385986328125" y="35" font-family="Virgil, Segoe UI Emoji" font-size="28px" fill="#1e1e1e" text-anchor="middle" style="white-space: pre;" direction="ltr" dominant-baseline="text-before-edge">API</text></g><g stroke-linecap="round" transform="translate(956.3368457459626 563.3120960204758) rotate(0 87.54898440311376 40)"><path d="M0 0 C49.82 -0.56, 94.88 -0.6, 175.1 0 M0 0 C65.86 0.02, 131.63 -0.11, 175.1 0 M175.1 0 C175.01 18.53, 174.37 31.91, 175.1 80 M175.1 0 C174.24 18.77, 174.15 37.32, 175.1 80 M175.1 80 C129.21 80.12, 84.19 81.05, 0 80 M175.1 80 C105.74 78.97, 37.95 77.68, 0 80 M0 80 C2.56 58.78, 1.13 41.79, 0 0 M0 80 C0.89 49.26, 0.76 20.04, 0 0" stroke="#1e1e1e" stroke-width="1" fill="none"></path></g><g transform="translate(977.3298532814006 568.3120960204758) rotate(0 66.55597686767578 35)"><text x="66.55597686767578" y="0" font-family="Virgil, Segoe UI Emoji" font-size="28px" fill="#1e1e1e" text-anchor="middle" style="white-space: pre;" direction="ltr" dominant-baseline="text-before-edge">Celatone </text><text x="66.55597686767578" y="35" font-family="Virgil, Segoe UI Emoji" font-size="28px" fill="#1e1e1e" text-anchor="middle" style="white-space: pre;" direction="ltr" dominant-baseline="text-before-edge">API</text></g><g stroke-linecap="round" transform="translate(966.7070362241972 922.9824881810423) rotate(0 87.54898440311376 40)"><path d="M0 0 C52.69 0.69, 106.04 0.19, 175.1 0 M0 0 C61.11 -0.59, 122.43 -0.17, 175.1 0 M175.1 0 C174.65 30.94, 175.77 61.55, 175.1 80 M175.1 0 C175.6 27.17, 174.45 54.1, 175.1 80 M175.1 80 C126.6 79.94, 78.39 77, 0 80 M175.1 80 C127.86 78.82, 79.54 78.06, 0 80 M0 80 C1.97 53.58, -0.92 29.72, 0 0 M0 80 C-1.11 58.98, -0.29 35.62, 0 0" stroke="#1e1e1e" stroke-width="1" fill="none"></path></g><g transform="translate(975.2120447972328 927.9824881810423) rotate(0 79.04397583007812 35)"><text x="79.04397583007812" y="0" font-family="Virgil, Segoe UI Emoji" font-size="28px" fill="#1e1e1e" text-anchor="middle" style="white-space: pre;" direction="ltr" dominant-baseline="text-before-edge">Price </text><text x="79.04397583007812" y="35" font-family="Virgil, Segoe UI Emoji" font-size="28px" fill="#1e1e1e" text-anchor="middle" style="white-space: pre;" direction="ltr" dominant-baseline="text-before-edge">Cacher API</text></g><g mask="url(#mask-zSDh_t3OI5QjSs1aY8V9Y)" stroke-linecap="round"><g transform="translate(1132.4348145521901 602.7550340396842) rotate(0 249.10270392586034 -0.24661163510607764)"><path d="M0 0 C108.2 1.33, 215 1.05, 498.21 -0.49 M0 0 C193.61 0.95, 387.34 1.29, 498.21 -0.49" stroke="#1e1e1e" stroke-width="1" fill="none"></path></g><g transform="translate(1132.4348145521901 602.7550340396842) rotate(0 249.10270392586034 -0.24661163510607764)"><path d="M474.79 8.27 C480.76 5.47, 483.28 3.13, 498.21 -0.49 M474.79 8.27 C483.98 4.33, 493.56 2.25, 498.21 -0.49" stroke="#1e1e1e" stroke-width="1" fill="none"></path></g><g transform="translate(1132.4348145521901 602.7550340396842) rotate(0 249.10270392586034 -0.24661163510607764)"><path d="M474.64 -8.83 C480.71 -7.93, 483.26 -6.57, 498.21 -0.49 M474.64 -8.83 C484.05 -6.12, 493.69 -1.56, 498.21 -0.49" stroke="#1e1e1e" stroke-width="1" fill="none"></path></g></g><mask id="mask-zSDh_t3OI5QjSs1aY8V9Y"><rect x="0" y="0" fill="#fff" width="1730.6402224039107" height="703.2482573098964"></rect><rect x="1288.535557723656" y="567.5084224045781" fill="#000" width="186.00392150878906" height="70" opacity="1"></rect></mask><g transform="translate(1288.5355577236558 567.5084224045781) rotate(0 93.00196075439453 35.424904510694006)"><text x="93.00196075439453" y="0" font-family="Virgil, Segoe UI Emoji" font-size="28px" fill="#1e1e1e" text-anchor="middle" style="white-space: pre;" direction="ltr" dominant-baseline="text-before-edge">Queries Label</text><text x="93.00196075439453" y="35" font-family="Virgil, Segoe UI Emoji" font-size="28px" fill="#1e1e1e" text-anchor="middle" style="white-space: pre;" direction="ltr" dominant-baseline="text-before-edge">Data</text></g><g mask="url(#mask-yJk0gn8MSguKgZbDHFLl-)" stroke-linecap="round"><g transform="translate(1144.9891622066837 961.8025174895081) rotate(0 287.4098883933153 0.461666361850007)"><path d="M0 0 C116.54 0.45, 230.94 1.08, 574.82 0.92 M0 0 C153.94 -0.82, 307.87 -0.18, 574.82 0.92" stroke="#1e1e1e" stroke-width="1" fill="none"></path></g><g transform="translate(1144.9891622066837 961.8025174895081) rotate(0 287.4098883933153 0.461666361850007)"><path d="M551.29 9.38 C557.67 7.31, 558.76 6.7, 574.82 0.92 M551.29 9.38 C557.28 6.09, 563.24 4.81, 574.82 0.92" stroke="#1e1e1e" stroke-width="1" fill="none"></path></g><g transform="translate(1144.9891622066837 961.8025174895081) rotate(0 287.4098883933153 0.461666361850007)"><path d="M551.36 -7.72 C557.89 -6.34, 558.97 -3.51, 574.82 0.92 M551.36 -7.72 C557.32 -6.43, 563.26 -3.12, 574.82 0.92" stroke="#1e1e1e" stroke-width="1" fill="none"></path></g></g><mask id="mask-yJk0gn8MSguKgZbDHFLl-"><rect x="0" y="0" fill="#fff" width="1819.8089389933143" height="1062.725850213208"></rect><rect x="1327.6510952777332" y="927.2641838513581" fill="#000" width="209.49591064453125" height="70" opacity="1"></rect></mask><g transform="translate(1327.6510952777337 927.2641838513582) rotate(0 104.74795532226557 34.82540545406101)"><text x="104.74795532226562" y="0" font-family="Virgil, Segoe UI Emoji" font-size="28px" fill="#1e1e1e" text-anchor="middle" style="white-space: pre;" direction="ltr" dominant-baseline="text-before-edge">Queries Cached</text><text x="104.74795532226562" y="35" font-family="Virgil, Segoe UI Emoji" font-size="28px" fill="#1e1e1e" text-anchor="middle" style="white-space: pre;" direction="ltr" dominant-baseline="text-before-edge">Prices</text></g><g stroke-linecap="round" transform="translate(2123.436059107036 923.0070288914566) rotate(0 87.54898440311376 40)"><path d="M0 0 C40.68 2.99, 79.34 2.52, 175.1 0 M0 0 C44.22 0.35, 90.33 1.67, 175.1 0 M175.1 0 C175.52 19.23, 174.34 39.06, 175.1 80 M175.1 0 C174.43 19.56, 175.96 40.82, 175.1 80 M175.1 80 C107.13 80.47, 33.67 81.54, 0 80 M175.1 80 C106.59 78.76, 39.11 77.97, 0 80 M0 80 C1.09 58.42, 1.29 37.71, 0 0 M0 80 C1.22 57.76, -0.03 37.87, 0 0" stroke="#1e1e1e" stroke-width="1" fill="none"></path></g><g transform="translate(2144.303074821185 928.0070288914566) rotate(0 66.68196868896484 35)"><text x="66.68196868896484" y="0" font-family="Virgil, Segoe UI Emoji" font-size="28px" fill="#1e1e1e" text-anchor="middle" style="white-space: pre;" direction="ltr" dominant-baseline="text-before-edge">CoinGecko</text><text x="66.68196868896484" y="35" font-family="Virgil, Segoe UI Emoji" font-size="28px" fill="#1e1e1e" text-anchor="middle" style="white-space: pre;" direction="ltr" dominant-baseline="text-before-edge">API</text></g><g mask="url(#mask-xOpbdBExeY6IaA55FJ2uY)" stroke-linecap="round"><g transform="translate(1739.4127464319236 960.0579155412) rotate(0 190.4257129270302 -0.02118174553515928)"><path d="M0 0 C111.89 0.34, 224.83 0.99, 380.85 -0.04 M0 0 C122.43 0.85, 243.51 0.23, 380.85 -0.04" stroke="#1e1e1e" stroke-width="1" fill="none"></path></g><g transform="translate(1739.4127464319236 960.0579155412) rotate(0 190.4257129270302 -0.02118174553515928)"><path d="M357.38 8.56 C363.78 6.31, 372 4.89, 380.85 -0.04 M357.38 8.56 C365.88 6.13, 372.09 2.36, 380.85 -0.04" stroke="#1e1e1e" stroke-width="1" fill="none"></path></g><g transform="translate(1739.4127464319236 960.0579155412) rotate(0 190.4257129270302 -0.02118174553515928)"><path d="M357.34 -8.54 C363.92 -5.76, 372.16 -2.14, 380.85 -0.04 M357.34 -8.54 C365.8 -5.5, 372.03 -3.79, 380.85 -0.04" stroke="#1e1e1e" stroke-width="1" fill="none"></path></g></g><mask id="mask-xOpbdBExeY6IaA55FJ2uY"><rect x="0" y="0" fill="#fff" width="2220.264172285984" height="1060.1002790322705"></rect><rect x="1824.2085078819032" y="925.036733795665" fill="#000" width="211.25990295410156" height="70" opacity="1"></rect></mask><g transform="translate(1824.2085078819027 925.036733795665) rotate(0 105.62995147705078 35.25893969530114)"><text x="105.62995147705078" y="0" font-family="Virgil, Segoe UI Emoji" font-size="28px" fill="#1e1e1e" text-anchor="middle" style="white-space: pre;" direction="ltr" dominant-baseline="text-before-edge">Queries Latest</text><text x="105.62995147705078" y="35" font-family="Virgil, Segoe UI Emoji" font-size="28px" fill="#1e1e1e" text-anchor="middle" style="white-space: pre;" direction="ltr" dominant-baseline="text-before-edge">Prices</text></g><g mask="url(#mask-hKJY7zOu_BEvgGpT6mMlf)" stroke-linecap="round"><g transform="translate(1726.82060218582 963.8687010779714) rotate(0 0.8410907221319235 -156.96921366097249)"><path d="M0 0 C-0.77 -116.4, -1.76 -231.4, 1.68 -313.94 M0 0 C0.11 -76.28, 0.52 -152.08, 1.68 -313.94" stroke="#1e1e1e" stroke-width="1" fill="none"></path></g><g transform="translate(1726.82060218582 963.8687010779714) rotate(0 0.8410907221319235 -156.96921366097249)"><path d="M10.07 -290.39 C7.29 -300.59, 1.94 -308.91, 1.68 -313.94 M10.07 -290.39 C7.49 -296.17, 5.46 -301.36, 1.68 -313.94" stroke="#1e1e1e" stroke-width="1" fill="none"></path></g><g transform="translate(1726.82060218582 963.8687010779714) rotate(0 0.8410907221319235 -156.96921366097249)"><path d="M-7.03 -290.51 C-3.54 -300.83, -2.61 -309.1, 1.68 -313.94 M-7.03 -290.51 C-5.46 -296.39, -3.34 -301.55, 1.68 -313.94" stroke="#1e1e1e" stroke-width="1" fill="none"></path></g></g><mask id="mask-hKJY7zOu_BEvgGpT6mMlf"><rect x="0" y="0" fill="#fff" width="1828.5027836300837" height="1377.8071283999163"></rect><rect x="1603.2577622438894" y="771.8994874169989" fill="#000" width="248.807861328125" height="70" opacity="1"></rect></mask><g transform="translate(1603.2577622438896 771.8994874169989) rotate(0 124.02886590272345 35.00000000000003)"><text x="124.4039306640625" y="0" font-family="Virgil, Segoe UI Emoji" font-size="28px" fill="#1e1e1e" text-anchor="middle" style="white-space: pre;" direction="ltr" dominant-baseline="text-before-edge">Queries Supported</text><text x="124.4039306640625" y="35" font-family="Virgil, Segoe UI Emoji" font-size="28px" fill="#1e1e1e" text-anchor="middle" style="white-space: pre;" direction="ltr" dominant-baseline="text-before-edge">Asset List</text></g><g mask="url(#mask-D0Wd0QI2jx4dW31vhH9DB)" stroke-linecap="round"><g transform="translate(1045.4637101973565 644.3120960204758) rotate(0 -0.2489862391943305 138.83519608028325)"><path d="M0 0 C2.28 57.88, 2.1 117.56, -0.5 277.67 M0 0 C-2.9 100.65, -2.25 201.54, -0.5 277.67" stroke="#1e1e1e" stroke-width="1" fill="none"></path></g><g transform="translate(1045.4637101973565 644.3120960204758) rotate(0 -0.2489862391943305 138.83519608028325)"><path d="M-9.43 254.32 C-6.55 257.35, -4.75 262.78, -0.5 277.67 M-9.43 254.32 C-7.38 262.94, -3.08 271.93, -0.5 277.67" stroke="#1e1e1e" stroke-width="1" fill="none"></path></g><g transform="translate(1045.4637101973565 644.3120960204758) rotate(0 -0.2489862391943305 138.83519608028325)"><path d="M7.67 254.04 C6.89 257.29, 5.05 262.78, -0.5 277.67 M7.67 254.04 C3.53 262.85, 1.65 271.93, -0.5 277.67" stroke="#1e1e1e" stroke-width="1" fill="none"></path></g></g><mask id="mask-D0Wd0QI2jx4dW31vhH9DB"><rect x="0" y="0" fill="#fff" width="1145.9616826757451" height="1021.9824881810423"></rect><rect x="965.2327522174395" y="748.147292100759" fill="#000" width="159.9639434814453" height="70" opacity="1"></rect></mask><g transform="translate(965.2327522174395 748.1472921007592) rotate(0 80.02982611835323 35)"><text x="79.98197174072266" y="0" font-family="Virgil, Segoe UI Emoji" font-size="28px" fill="#1e1e1e" text-anchor="middle" style="white-space: pre;" direction="ltr" dominant-baseline="text-before-edge">Asset Price</text><text x="79.98197174072266" y="35" font-family="Virgil, Segoe UI Emoji" font-size="28px" fill="#1e1e1e" text-anchor="middle" style="white-space: pre;" direction="ltr" dominant-baseline="text-before-edge">Data</text></g><g mask="url(#mask-JQAdLHmlv5mjTpAlshT5E)" stroke-linecap="round"><g transform="translate(1045.904395932553 561.9255798314501) rotate(0 -0.05536441805347181 -105.19903717922003)"><path d="M0 0 C0.5 -81.89, 0.94 -162.29, -0.11 -210.4 M0 0 C1.1 -52.38, -0.32 -105, -0.11 -210.4" stroke="#1e1e1e" stroke-width="1" fill="none"></path></g><g transform="translate(1045.904395932553 561.9255798314501) rotate(0 -0.05536441805347181 -105.19903717922003)"><path d="M8.48 -186.92 C4.83 -197.12, 2.07 -205.57, -0.11 -210.4 M8.48 -186.92 C7.05 -192.87, 3.34 -199.15, -0.11 -210.4" stroke="#1e1e1e" stroke-width="1" fill="none"></path></g><g transform="translate(1045.904395932553 561.9255798314501) rotate(0 -0.05536441805347181 -105.19903717922003)"><path d="M-8.62 -186.89 C-5.7 -197, -1.88 -205.46, -0.11 -210.4 M-8.62 -186.89 C-5.81 -192.98, -5.28 -199.27, -0.11 -210.4" stroke="#1e1e1e" stroke-width="1" fill="none"></path></g></g><mask id="mask-JQAdLHmlv5mjTpAlshT5E"><rect x="0" y="0" fill="#fff" width="1146.01512476866" height="872.3236541898902"></rect><rect x="899.3390827840306" y="421.72654265223014" fill="#000" width="293.0198974609375" height="70" opacity="1"></rect></mask><g transform="translate(899.3390827840308 421.72654265223014) rotate(0 146.76679709726034 35)"><text x="146.50994873046875" y="0" font-family="Virgil, Segoe UI Emoji" font-size="28px" fill="#1e1e1e" text-anchor="middle" style="white-space: pre;" direction="ltr" dominant-baseline="text-before-edge">On-Chain Data</text><text x="146.50994873046875" y="35" font-family="Virgil, Segoe UI Emoji" font-size="28px" fill="#1e1e1e" text-anchor="middle" style="white-space: pre;" direction="ltr" dominant-baseline="text-before-edge">(Balances/ICNS/etc.)</text></g><g stroke-linecap="round" transform="translate(957.215916471456 267.9295754466028) rotate(0 87.54898440311376 40)"><path d="M0 0 C61.17 1.67, 121.63 -0.62, 175.1 0 M0 0 C40.33 -0.25, 82.04 0.01, 175.1 0 M175.1 0 C174.94 30.1, 175.19 61.54, 175.1 80 M175.1 0 C173.42 30.02, 174.75 59.62, 175.1 80 M175.1 80 C119.06 79.99, 64.76 78.35, 0 80 M175.1 80 C128.39 79.99, 81.21 81.79, 0 80 M0 80 C0.94 53.52, -2.21 28.12, 0 0 M0 80 C0.78 63.23, -0.73 47.45, 0 0" stroke="#1e1e1e" stroke-width="1" fill="none"></path></g><g transform="translate(988.6529395098237 272.9295754466028) rotate(0 56.111961364746094 35)"><text x="56.111961364746094" y="0" font-family="Virgil, Segoe UI Emoji" font-size="28px" fill="#1e1e1e" text-anchor="middle" style="white-space: pre;" direction="ltr" dominant-baseline="text-before-edge">REST </text><text x="56.111961364746094" y="35" font-family="Virgil, Segoe UI Emoji" font-size="28px" fill="#1e1e1e" text-anchor="middle" style="white-space: pre;" direction="ltr" dominant-baseline="text-before-edge">Endpoint</text></g><g stroke-linecap="round" transform="translate(1633.2406928277674 265.737288910635) rotate(0 87.54898440311376 40)"><path d="M0 0 C62.54 -1.14, 121.47 -2.87, 175.1 0 M0 0 C49.44 1.33, 100.4 0.86, 175.1 0 M175.1 0 C175.39 26.37, 176.16 54.59, 175.1 80 M175.1 0 C175.8 17.16, 176.01 33.96, 175.1 80 M175.1 80 C115.52 83.3, 59.67 80.34, 0 80 M175.1 80 C120.06 80.14, 66.17 79.84, 0 80 M0 80 C-1.43 53.86, 0.13 32.16, 0 0 M0 80 C-0.34 58.12, 0.21 36.3, 0 0" stroke="#1e1e1e" stroke-width="1" fill="none"></path></g><g transform="translate(1662.3117109222874 270.737288910635) rotate(0 58.47796630859375 35)"><text x="58.47796630859375" y="0" font-family="Virgil, Segoe UI Emoji" font-size="28px" fill="#1e1e1e" text-anchor="middle" style="white-space: pre;" direction="ltr" dominant-baseline="text-before-edge">Hasura</text><text x="58.47796630859375" y="35" font-family="Virgil, Segoe UI Emoji" font-size="28px" fill="#1e1e1e" text-anchor="middle" style="white-space: pre;" direction="ltr" dominant-baseline="text-before-edge">GraphQL</text></g><g mask="url(#mask-QoQZ9JuLM_gO1uQGSmP1A)" stroke-linecap="round"><g transform="translate(1133.6967924524424 600.5429419206607) rotate(0 250.1857556897757 -147.23118185927154)"><path d="M0 0 C117.03 -69.8, 233.67 -138.61, 500.37 -294.46 M0 0 C169.26 -100.86, 339.13 -201.08, 500.37 -294.46" stroke="#1e1e1e" stroke-width="1" fill="none"></path></g><g transform="translate(1133.6967924524424 600.5429419206607) rotate(0 250.1857556897757 -147.23118185927154)"><path d="M484.37 -275.25 C486.44 -278.18, 490.13 -283.04, 500.37 -294.46 M484.37 -275.25 C489.08 -281.39, 494.77 -288.69, 500.37 -294.46" stroke="#1e1e1e" stroke-width="1" fill="none"></path></g><g transform="translate(1133.6967924524424 600.5429419206607) rotate(0 250.1857556897757 -147.23118185927154)"><path d="M475.77 -290.03 C479.7 -289.59, 485.4 -291, 500.37 -294.46 M475.77 -290.03 C483.43 -291.2, 492.03 -293.49, 500.37 -294.46" stroke="#1e1e1e" stroke-width="1" fill="none"></path></g></g><mask id="mask-QoQZ9JuLM_gO1uQGSmP1A"><rect x="0" y="0" fill="#fff" width="1734.068303831994" height="995.0053056392038"></rect><rect x="1276.1945903785463" y="435.8117600613892" fill="#000" width="215.37591552734375" height="35" opacity="1"></rect></mask><g transform="translate(1276.1945903785463 435.81176006138924) rotate(0 107.68795776367188 17.5)"><text x="107.68795776367188" y="0" font-family="Virgil, Segoe UI Emoji" font-size="28px" fill="#1e1e1e" text-anchor="middle" style="white-space: pre;" direction="ltr" dominant-baseline="text-before-edge">Historical Data</text></g><g mask="url(#mask-RXbss8Fzo_wg9FrYtdv7e)" stroke-linecap="round"><g transform="translate(557.1386072894946 604.1431061831395) rotate(0 200.53207941659377 -1.8127145860817109)"><path d="M0 0 C85.46 -1.05, 170.66 -1.94, 401.06 -3.63 M0 0 C98.54 0.53, 197.74 -0.44, 401.06 -3.63" stroke="#1e1e1e" stroke-width="1" fill="none"></path></g><g transform="translate(557.1386072894946 604.1431061831395) rotate(0 200.53207941659377 -1.8127145860817109)"><path d="M377.7 5.27 C383.62 4.04, 389.12 1.94, 401.06 -3.63 M377.7 5.27 C383.31 3.95, 390.05 1.62, 401.06 -3.63" stroke="#1e1e1e" stroke-width="1" fill="none"></path></g><g transform="translate(557.1386072894946 604.1431061831395) rotate(0 200.53207941659377 -1.8127145860817109)"><path d="M377.45 -11.83 C383.56 -9.44, 389.12 -7.92, 401.06 -3.63 M377.45 -11.83 C382.96 -8.94, 389.77 -7.06, 401.06 -3.63" stroke="#1e1e1e" stroke-width="1" fill="none"></path></g></g><mask id="mask-RXbss8Fzo_wg9FrYtdv7e"><rect x="0" y="0" fill="#fff" width="1058.202766122682" height="707.7685353553029"></rect><rect x="689.3227252803072" y="567.3303915970578" fill="#000" width="136.6959228515625" height="70" opacity="1"></rect></mask><g transform="translate(689.3227252803072 567.3303915970578) rotate(0 68.34796142578125 35.06918954961057)"><text x="68.34796142578125" y="0" font-family="Virgil, Segoe UI Emoji" font-size="28px" fill="#1e1e1e" text-anchor="middle" style="white-space: pre;" direction="ltr" dominant-baseline="text-before-edge">Blockchain</text><text x="68.34796142578125" y="35" font-family="Virgil, Segoe UI Emoji" font-size="28px" fill="#1e1e1e" text-anchor="middle" style="white-space: pre;" direction="ltr" dominant-baseline="text-before-edge">Data</text></g><g stroke-linecap="round"><g transform="translate(2158.2202906453876 253.6057000712475) rotate(0 38.5043255239151 41.81762891312024)" fill-rule="evenodd"><path d="M1.22 -2.2 C1.14 10.3, 0.41 62.18, 0.28 76.22 C0.15 90.26, -0.41 80.26, 0.45 82.04 C1.31 83.82, 2.23 85.35, 5.45 86.89 C8.67 88.44, 13.84 90.9, 19.79 91.32 C25.74 91.74, 33.6 89.81, 41.15 89.43 C48.71 89.04, 59.28 89.76, 65.12 88.99 C70.96 88.22, 74.52 85.78, 76.2 84.81 C77.88 83.83, 75.03 84.63, 75.19 83.13 C75.36 81.64, 77.21 88.77, 77.17 75.84 C77.14 62.91, 75.39 18.24, 75 5.56 C74.6 -7.12, 75.3 1.26, 74.8 -0.24 C74.29 -1.75, 73.91 -2.47, 71.96 -3.48 C70.02 -4.5, 69.27 -5.76, 63.13 -6.33 C56.99 -6.91, 42.88 -6.79, 35.13 -6.96 C27.38 -7.13, 21.92 -8.17, 16.64 -7.36 C11.35 -6.54, 6.33 -3.41, 3.43 -2.08 C0.52 -0.74, -0.32 0.33, -0.79 0.66 C-1.25 0.99, 0.09 -0.12, 0.63 -0.08" stroke="none" stroke-width="0" fill="#ced4da" fill-rule="evenodd"></path><path d="M0.79 -0.07 C1.08 12.7, 0.93 62.23, 0.97 76.39 C1.02 90.54, 0.56 83.16, 1.06 84.87 C1.55 86.58, 0.98 85.55, 3.96 86.63 C6.93 87.7, 12.93 90.59, 18.93 91.31 C24.93 92.02, 32.67 91.12, 39.94 90.92 C47.22 90.73, 56.59 90.99, 62.57 90.12 C68.55 89.25, 73.34 86.69, 75.84 85.7 C78.33 84.72, 77.27 85.62, 77.55 84.21 C77.83 82.81, 77.74 90.1, 77.51 77.27 C77.27 64.44, 76.42 20.14, 76.15 7.25 C75.87 -5.64, 76.53 1.82, 75.88 -0.07 C75.22 -1.95, 74.65 -2.97, 72.22 -4.05 C69.79 -5.13, 67.28 -6.09, 61.31 -6.56 C55.34 -7.03, 43.63 -6.94, 36.4 -6.87 C29.18 -6.79, 23.39 -6.81, 17.97 -6.11 C12.55 -5.42, 6.74 -3.68, 3.88 -2.69 C1.01 -1.7, 1.48 -0.58, 0.77 -0.17 C0.06 0.23, -0.39 -0.18, -0.39 -0.24 M-0.26 -1.15 C0.01 11.34, 0.22 60.84, 0.4 74.89 C0.59 88.93, 0.21 81.04, 0.84 83.11 C1.47 85.17, 1.32 85.8, 4.19 87.29 C7.07 88.79, 11.98 91.09, 18.08 92.07 C24.17 93.06, 33.31 93.74, 40.77 93.2 C48.23 92.66, 57.09 90.19, 62.82 88.84 C68.55 87.48, 72.93 85.96, 75.17 85.05 C77.42 84.14, 75.71 84.67, 76.27 83.39 C76.82 82.1, 78.54 90.4, 78.51 77.35 C78.48 64.29, 76.2 18.02, 76.09 5.07 C75.97 -7.88, 78.36 1.29, 77.82 -0.37 C77.28 -2.03, 75.68 -3.81, 72.83 -4.91 C69.98 -6.01, 66.82 -6.65, 60.72 -6.97 C54.63 -7.3, 43.23 -6.67, 36.25 -6.86 C29.27 -7.06, 24.39 -8.99, 18.84 -8.13 C13.28 -7.26, 6.08 -3.04, 2.93 -1.66 C-0.23 -0.29, 0.12 -0.13, -0.09 0.13 C-0.3 0.39, 1.38 -0.27, 1.68 -0.11" stroke="#000000" stroke-width="1" fill="none"></path></g></g><mask></mask><g stroke-linecap="round"><g transform="translate(2158.7442200836626 310.7319837289773) rotate(0 38.58599110596788 3.887654036589346)"><path d="M0.72 1.19 C1.1 1.95, 1.4 3.81, 3.08 4.52 C4.76 5.23, 7.36 4.74, 10.79 5.44 C14.21 6.14, 18.84 8.38, 23.64 8.73 C28.45 9.07, 33.35 7.78, 39.63 7.52 C45.91 7.27, 55.4 8.02, 61.33 7.18 C67.26 6.33, 72.46 3.55, 75.22 2.46 C77.99 1.38, 77.51 0.98, 77.91 0.67 M-0.36 0.76 C-0.11 1.22, 0.95 2.05, 2.68 2.98 C4.41 3.9, 6.99 5.73, 10.01 6.32 C13.04 6.92, 15.64 6.34, 20.85 6.55 C26.05 6.76, 34.32 7.64, 41.24 7.58 C48.15 7.52, 56.51 6.71, 62.35 6.2 C68.18 5.68, 73.74 5.35, 76.23 4.47 C78.72 3.58, 77.27 1.67, 77.27 0.88" stroke="#000000" stroke-width="1" fill="none"></path></g></g><mask></mask><g stroke-linecap="round"><g transform="translate(2157.712362761159 281.76792839375446) rotate(0 38.585991105967764 3.887654036589346)"><path d="M1.05 1.11 C1.26 1.34, 0.2 1.6, 2.02 2.58 C3.84 3.56, 8.75 6.19, 11.98 6.99 C15.2 7.79, 16.68 7.15, 21.35 7.37 C26.02 7.58, 33.1 8.43, 40 8.28 C46.9 8.13, 56.89 7.17, 62.77 6.48 C68.65 5.78, 72.79 5.09, 75.27 4.11 C77.75 3.13, 77.43 1.21, 77.63 0.62 M0.13 0.64 C0.13 1.51, -0.89 2.95, 1.06 3.68 C3.01 4.41, 8.5 4.28, 11.83 5.03 C15.15 5.77, 16.02 7.51, 21.02 8.13 C26.01 8.75, 35.15 8.62, 41.79 8.73 C48.44 8.84, 55.13 9.69, 60.88 8.79 C66.63 7.89, 73.64 4.65, 76.3 3.32 C78.96 1.99, 76.55 1.42, 76.84 0.81" stroke="#000000" stroke-width="1" fill="none"></path></g></g><mask></mask><g stroke-linecap="round" transform="translate(2156.654413779077 246.47343144556578) rotate(0 38.29876800932743 7.745637696423991)"><path d="M31.97 0.53 C39.56 0.08, 50.5 -0.1, 57.6 0.61 C64.7 1.32, 71.81 3.16, 74.56 4.8 C77.31 6.44, 76.96 8.88, 74.11 10.46 C71.27 12.05, 64.58 13.48, 57.49 14.32 C50.4 15.16, 39.69 15.68, 31.58 15.49 C23.46 15.3, 14.03 14.48, 8.8 13.18 C3.57 11.89, 0.15 9.46, 0.18 7.75 C0.21 6.04, 3.61 4.29, 9 2.94 C14.38 1.59, 28.34 0.14, 32.5 -0.37 C36.67 -0.88, 33.77 -0.32, 33.98 -0.12 M45.28 0.32 C53.12 0.36, 62.31 1.57, 67.52 2.7 C72.73 3.84, 76.6 5.38, 76.52 7.11 C76.44 8.85, 72.27 11.85, 67.04 13.1 C61.81 14.36, 52.99 14.46, 45.12 14.65 C37.26 14.85, 26.92 14.88, 19.85 14.27 C12.78 13.66, 5.74 12.42, 2.71 11.02 C-0.32 9.61, -1.01 7.41, 1.66 5.84 C4.33 4.27, 11.46 2.59, 18.72 1.62 C25.98 0.66, 40.78 0.2, 45.23 0.05 C49.68 -0.11, 45.67 0.47, 45.41 0.69" stroke="none" stroke-width="0" fill="#fff"></path><path d="M47.31 -0.08 C54.95 0.33, 64.52 2.04, 69.34 3.48 C74.16 4.93, 76.77 6.96, 76.26 8.6 C75.75 10.23, 71.87 12.23, 66.28 13.32 C60.69 14.41, 50.88 15.05, 42.71 15.15 C34.54 15.25, 24.12 14.75, 17.26 13.93 C10.41 13.1, 3.9 11.72, 1.58 10.18 C-0.75 8.64, 0 6.32, 3.29 4.69 C6.59 3.06, 13.74 1.16, 21.35 0.4 C28.95 -0.36, 44.23 0.1, 48.92 0.15 C53.6 0.2, 49.65 0.52, 49.45 0.72 M37.76 -0.32 C45.62 -0.38, 55.94 1.08, 62.35 2.05 C68.75 3.03, 74.59 3.91, 76.2 5.52 C77.8 7.14, 75.93 10.26, 71.98 11.75 C68.02 13.23, 60.05 13.9, 52.49 14.42 C44.93 14.95, 34.32 15.32, 26.62 14.92 C18.92 14.52, 10.64 13.51, 6.28 12.02 C1.92 10.52, -0.75 7.68, 0.45 5.95 C1.64 4.22, 7.26 2.7, 13.45 1.64 C19.65 0.57, 33.71 -0.2, 37.6 -0.45 C41.49 -0.7, 36.83 -0.03, 36.8 0.15" stroke="#000000" stroke-width="1" fill="none"></path></g><g stroke-linecap="round" transform="translate(2193.1464008842995 270.95009912546936) rotate(0 5.61305157708091 6.0918792422278045)"><path d="M5.84 -0.44 C7 -0.59, 8.75 0.32, 9.62 1.28 C10.49 2.24, 10.92 4.02, 11.08 5.34 C11.24 6.67, 11.18 8.12, 10.57 9.23 C9.96 10.35, 8.62 11.54, 7.43 12.04 C6.24 12.53, 4.53 12.72, 3.43 12.21 C2.33 11.69, 1.37 10.14, 0.81 8.93 C0.24 7.73, -0.15 6.32, 0.03 4.96 C0.21 3.6, 0.86 1.68, 1.88 0.8 C2.9 -0.08, 5.34 -0.2, 6.13 -0.31 C6.93 -0.42, 6.6 0.05, 6.64 0.15 M6.88 0.12 C7.92 0.2, 9.44 0.74, 10.05 1.86 C10.66 2.99, 10.6 5.58, 10.55 6.86 C10.5 8.15, 10.36 8.73, 9.75 9.57 C9.13 10.42, 8 11.58, 6.85 11.95 C5.71 12.32, 4.08 12.34, 2.87 11.77 C1.67 11.2, 0.07 9.8, -0.39 8.54 C-0.84 7.28, -0.52 5.56, 0.13 4.23 C0.78 2.9, 2.25 1.18, 3.5 0.57 C4.75 -0.04, 7.15 0.56, 7.62 0.59 C8.1 0.63, 6.58 0.85, 6.36 0.78" stroke="none" stroke-width="0" fill="#868e96"></path><path d="M4.37 0.45 C5.47 0.19, 6.75 0.39, 7.89 0.96 C9.03 1.53, 10.62 2.77, 11.21 3.87 C11.8 4.97, 11.76 6.36, 11.41 7.54 C11.06 8.72, 10.15 10.13, 9.09 10.94 C8.03 11.76, 6.32 12.54, 5.06 12.44 C3.79 12.35, 2.37 11.43, 1.5 10.37 C0.63 9.3, -0.18 7.4, -0.17 6.06 C-0.16 4.72, 0.69 3.28, 1.56 2.32 C2.42 1.36, 4.4 0.62, 5.03 0.32 C5.67 0.01, 5.4 0.45, 5.36 0.48 M5.56 0.38 C6.68 0.18, 8.45 -0.21, 9.38 0.56 C10.3 1.34, 10.87 3.75, 11.09 5.05 C11.32 6.34, 11.22 7.26, 10.74 8.34 C10.27 9.42, 9.27 10.9, 8.25 11.53 C7.22 12.16, 5.8 12.6, 4.58 12.14 C3.36 11.67, 1.59 9.93, 0.93 8.74 C0.26 7.56, 0.4 6.28, 0.59 5.02 C0.79 3.76, 1.41 2.01, 2.12 1.17 C2.82 0.34, 4.29 0.2, 4.84 0 C5.38 -0.19, 5.38 -0.06, 5.38 0" stroke="#000000" stroke-width="1" fill="none"></path></g><g stroke-linecap="round" transform="translate(2193.497542668233 297.1667134125345) rotate(0 5.61305157708091 6.0918792422278045)"><path d="M6.98 -0.2 C8.1 0.06, 9.19 1.31, 9.93 2.37 C10.68 3.43, 11.46 4.83, 11.46 6.15 C11.46 7.47, 10.77 9.22, 9.93 10.3 C9.08 11.37, 7.56 12.45, 6.38 12.62 C5.19 12.79, 3.85 12.04, 2.82 11.31 C1.78 10.57, 0.63 9.51, 0.17 8.18 C-0.29 6.86, -0.41 4.66, 0.07 3.36 C0.56 2.06, 1.83 0.91, 3.06 0.38 C4.29 -0.14, 6.71 0.25, 7.47 0.19 C8.22 0.13, 7.62 -0.11, 7.6 0.04 M5.91 -0.6 C6.95 -0.52, 7.95 1.21, 8.84 2.09 C9.73 2.98, 10.92 3.53, 11.26 4.73 C11.6 5.93, 11.5 7.99, 10.88 9.29 C10.26 10.6, 8.89 12.03, 7.53 12.55 C6.17 13.06, 3.94 12.92, 2.73 12.38 C1.51 11.85, 0.6 10.65, 0.24 9.35 C-0.12 8.04, 0.09 5.86, 0.55 4.56 C1.01 3.27, 2.18 2.27, 3 1.59 C3.82 0.92, 5.03 0.85, 5.45 0.5 C5.87 0.16, 5.43 -0.44, 5.53 -0.47" stroke="none" stroke-width="0" fill="#868e96"></path><path d="M4.5 0.38 C5.68 0.09, 7.81 0.49, 8.95 1.06 C10.09 1.63, 10.96 2.65, 11.34 3.81 C11.73 4.98, 11.73 6.72, 11.24 8.04 C10.76 9.36, 9.55 11.03, 8.43 11.72 C7.3 12.41, 5.74 12.53, 4.51 12.17 C3.29 11.8, 1.75 10.59, 1.07 9.54 C0.39 8.49, 0.34 7.05, 0.44 5.85 C0.55 4.65, 0.92 3.24, 1.69 2.33 C2.46 1.42, 4.54 0.78, 5.08 0.39 C5.62 0, 4.98 -0.1, 4.94 0 M5.38 -0.64 C6.47 -0.86, 7.78 0.59, 8.74 1.34 C9.7 2.09, 10.73 2.69, 11.14 3.87 C11.55 5.04, 11.61 7.06, 11.2 8.38 C10.8 9.7, 9.86 11.28, 8.71 11.78 C7.56 12.28, 5.48 11.75, 4.3 11.35 C3.12 10.95, 2.3 10.4, 1.63 9.38 C0.97 8.36, 0.43 6.48, 0.34 5.23 C0.24 3.98, 0.28 2.76, 1.07 1.87 C1.85 0.98, 4.48 0.23, 5.05 -0.09 C5.61 -0.42, 4.53 -0.2, 4.45 -0.07" stroke="#000000" stroke-width="1" fill="none"></path></g><g stroke-linecap="round" transform="translate(2194.1464008842995 325.9354399838411) rotate(357.5021844865888 5.61305157708091 6.0918792422278045)"><path d="M4.27 0.18 C5.37 -0.14, 7.3 -0.09, 8.41 0.52 C9.52 1.13, 10.51 2.55, 10.93 3.86 C11.35 5.17, 11.31 7.15, 10.96 8.38 C10.61 9.62, 9.86 10.6, 8.84 11.26 C7.81 11.92, 6.08 12.59, 4.81 12.34 C3.53 12.1, 1.95 10.83, 1.16 9.79 C0.38 8.74, 0.02 7.29, 0.09 6.06 C0.16 4.83, 0.76 3.46, 1.57 2.4 C2.38 1.35, 4.34 0.06, 4.97 -0.26 C5.61 -0.58, 5.4 0.31, 5.38 0.46 M4.86 0.39 C6.03 0.28, 8.08 -0.07, 9.22 0.65 C10.37 1.38, 11.46 3.25, 11.74 4.75 C12.01 6.25, 11.67 8.37, 10.88 9.66 C10.09 10.95, 8.24 12.05, 7 12.51 C5.76 12.97, 4.41 12.98, 3.44 12.42 C2.47 11.86, 1.63 10.3, 1.18 9.15 C0.74 8.01, 0.73 6.75, 0.77 5.55 C0.8 4.35, 0.68 3, 1.4 1.98 C2.12 0.95, 4.37 -0.24, 5.07 -0.6 C5.77 -0.96, 5.4 -0.51, 5.59 -0.18" stroke="none" stroke-width="0" fill="#868e96"></path><path d="M6.86 0.25 C8.11 0.25, 9.43 0.83, 10.22 1.73 C11.01 2.64, 11.63 4.26, 11.62 5.66 C11.6 7.07, 10.93 9.08, 10.12 10.16 C9.3 11.24, 7.96 12, 6.73 12.15 C5.51 12.3, 3.76 11.73, 2.78 11.08 C1.8 10.42, 1.21 9.33, 0.84 8.22 C0.48 7.11, 0.25 5.59, 0.59 4.43 C0.93 3.26, 1.89 2, 2.88 1.25 C3.87 0.5, 5.91 0.04, 6.54 -0.07 C7.17 -0.18, 6.7 0.43, 6.65 0.58 M6.32 0.36 C7.42 0.46, 8.97 0.55, 9.86 1.42 C10.75 2.3, 11.53 4.19, 11.67 5.61 C11.81 7.04, 11.51 9.03, 10.71 9.99 C9.91 10.95, 8.08 11.17, 6.89 11.38 C5.71 11.58, 4.62 11.76, 3.6 11.2 C2.58 10.64, 1.41 9.16, 0.76 8 C0.12 6.85, -0.55 5.48, -0.25 4.29 C0.06 3.1, 1.61 1.59, 2.61 0.85 C3.6 0.1, 5.21 -0.07, 5.74 -0.18 C6.27 -0.29, 5.68 0.02, 5.79 0.19" stroke="#000000" stroke-width="1" fill="none"></path></g><g transform="translate(2128.935651227398 347.5255815826839) rotate(0 67.43414306640625 11.797580535952441)"><text x="67.43414306640625" y="0" font-family="Virgil, Segoe UI Emoji" font-size="17.4778970902999px" fill="#000000" text-anchor="middle" style="white-space: pre;" direction="ltr" dominant-baseline="text-before-edge">PostgreSQL DB</text></g><g stroke-linecap="round"><g transform="translate(1694.1802015069084 974.9520911782967) rotate(0 38.504325523915156 41.817628913120245)" fill-rule="evenodd"><path d="M0.97 -0.89 C0.84 11.85, 0.18 62.64, -0.14 76.96 C-0.46 91.27, -1.31 82.87, -0.94 85.02 C-0.56 87.17, -1.18 88.82, 2.12 89.87 C5.43 90.92, 12.04 90.98, 18.89 91.32 C25.74 91.65, 35.93 92.51, 43.21 91.9 C50.48 91.29, 57.48 88.72, 62.51 87.64 C67.55 86.56, 71.38 86.12, 73.4 85.42 C75.43 84.72, 74.38 85.22, 74.65 83.42 C74.93 81.62, 74.75 87.35, 75.05 74.6 C75.36 61.86, 76.47 19.73, 76.47 6.98 C76.47 -5.78, 75.88 0.06, 75.06 -1.93 C74.24 -3.92, 74.28 -4.35, 71.56 -4.98 C68.84 -5.6, 64.86 -5.01, 58.76 -5.7 C52.66 -6.39, 42.01 -9.22, 34.94 -9.13 C27.88 -9.03, 21.91 -6.45, 16.37 -5.15 C10.84 -3.85, 4.75 -2.19, 1.72 -1.31 C-1.31 -0.42, -1.8 0.15, -1.82 0.17 C-1.83 0.19, 1.03 -1.1, 1.62 -1.18" stroke="none" stroke-width="0" fill="#ced4da" fill-rule="evenodd"></path><path d="M-0.31 -0.57 C-0.19 11.94, -0.52 61.54, -0.38 75.76 C-0.24 89.99, -0.16 82.94, 0.52 84.77 C1.21 86.6, 0.95 85.86, 3.74 86.74 C6.53 87.62, 11 89.12, 17.24 90.05 C23.49 90.99, 33.53 92.49, 41.21 92.35 C48.89 92.21, 57.76 90.06, 63.34 89.21 C68.91 88.37, 72.27 88.24, 74.66 87.28 C77.06 86.32, 77.21 85.29, 77.71 83.43 C78.22 81.57, 77.65 88.85, 77.69 76.12 C77.73 63.39, 78.08 19.97, 77.96 7.06 C77.83 -5.85, 78.05 0.65, 76.94 -1.34 C75.82 -3.34, 73.94 -3.96, 71.27 -4.92 C68.6 -5.88, 66.37 -6.41, 60.9 -7.09 C55.42 -7.77, 45.37 -9.06, 38.4 -9.01 C31.43 -8.95, 24.95 -7.66, 19.06 -6.76 C13.17 -5.86, 6.29 -4.56, 3.06 -3.62 C-0.18 -2.68, 0.11 -1.85, -0.35 -1.11 C-0.8 -0.38, 0.43 0.43, 0.33 0.81 M1.73 1.75 C2.34 13.84, 2.29 60.4, 2 73.94 C1.72 87.47, -0.28 80.71, 0.03 82.96 C0.34 85.22, 0.68 86.27, 3.87 87.47 C7.05 88.67, 12.69 89.45, 19.16 90.16 C25.64 90.87, 35.23 91.56, 42.7 91.72 C50.18 91.88, 58.88 91.82, 63.99 91.11 C69.11 90.4, 71.3 88.95, 73.39 87.46 C75.47 85.97, 75.61 84.17, 76.51 82.2 C77.41 80.22, 79.01 88.5, 78.79 75.6 C78.57 62.7, 75.69 17.15, 75.19 4.78 C74.69 -7.6, 76.42 2.57, 75.78 1.34 C75.14 0.12, 73.99 -1.05, 71.38 -2.57 C68.76 -4.09, 66.05 -7.14, 60.1 -7.79 C54.14 -8.44, 42.85 -6.86, 35.64 -6.47 C28.43 -6.08, 22.5 -6.02, 16.84 -5.46 C11.18 -4.89, 4.78 -3.77, 1.68 -3.08 C-1.43 -2.38, -1.36 -2.07, -1.79 -1.31 C-2.22 -0.55, -1.03 1.27, -0.88 1.48" stroke="#000000" stroke-width="1" fill="none"></path></g></g><mask></mask><g stroke-linecap="round"><g transform="translate(1694.7041309451834 1032.0783748360263) rotate(0 38.58599110596782 3.8876540365893675)"><path d="M-0.63 0.56 C-0.16 1.4, 0.68 3.59, 2.55 4.42 C4.41 5.26, 7.34 5.05, 10.57 5.56 C13.81 6.07, 16.9 6.91, 21.96 7.47 C27.01 8.04, 34.21 9.15, 40.9 8.95 C47.59 8.75, 56.57 7.09, 62.1 6.27 C67.62 5.45, 71.39 5.1, 74.05 4.04 C76.71 2.98, 77.44 0.65, 78.07 -0.11 M1.24 -0.19 C1.62 0.38, 0.46 1.72, 1.87 2.83 C3.27 3.95, 6.34 5.59, 9.68 6.5 C13.03 7.41, 16.96 7.75, 21.93 8.29 C26.91 8.83, 32.58 9.72, 39.51 9.75 C46.44 9.78, 57.7 9.56, 63.52 8.47 C69.34 7.38, 72.11 4.68, 74.44 3.21 C76.77 1.75, 77.17 0.56, 77.51 -0.3" stroke="#000000" stroke-width="1" fill="none"></path></g></g><mask></mask><g stroke-linecap="round"><g transform="translate(1693.6722736226793 1003.1143195008036) rotate(0 38.58599110596782 3.8876540365893675)"><path d="M0.51 1.01 C0.92 1.37, 0.17 1.91, 1.8 2.69 C3.43 3.48, 6.82 4.72, 10.29 5.74 C13.76 6.75, 17.54 8.52, 22.62 8.79 C27.7 9.06, 34.27 7.49, 40.77 7.37 C47.26 7.25, 55.82 8.73, 61.59 8.06 C67.37 7.38, 72.73 4.76, 75.43 3.33 C78.13 1.9, 77.34 -0.03, 77.81 -0.53 M-0.68 0.5 C-0.39 0.94, -0.92 2.81, 0.73 3.86 C2.39 4.9, 5.55 6.31, 9.25 6.77 C12.96 7.23, 17.94 6.55, 22.95 6.64 C27.96 6.74, 32.67 7.2, 39.31 7.34 C45.94 7.49, 57.16 8.41, 62.75 7.54 C68.35 6.67, 70.49 3.55, 72.88 2.13 C75.28 0.72, 76.41 -0.48, 77.12 -0.94" stroke="#000000" stroke-width="1" fill="none"></path></g></g><mask></mask><g stroke-linecap="round" transform="translate(1692.6143246405973 967.8198225526149) rotate(0 38.29876800932749 7.745637696424012)"><path d="M32.68 -0.4 C40.4 -0.8, 51.64 -0.21, 58.61 0.68 C65.57 1.57, 71.85 3.34, 74.45 4.95 C77.05 6.55, 77.14 8.76, 74.19 10.31 C71.24 11.85, 64.04 13.32, 56.75 14.21 C49.46 15.11, 38.6 15.88, 30.47 15.66 C22.33 15.43, 13.02 14.26, 7.93 12.88 C2.85 11.5, -0.28 9.17, -0.04 7.38 C0.2 5.59, 3.61 3.32, 9.37 2.15 C15.12 0.98, 29.96 0.66, 34.47 0.37 C38.98 0.07, 36.33 0.26, 36.44 0.37 M36.02 0.31 C43.65 0.09, 54.53 0.55, 61.02 1.41 C67.5 2.26, 73.11 3.7, 74.94 5.42 C76.77 7.15, 75.63 10.13, 71.98 11.75 C68.33 13.36, 60.66 14.53, 53.05 15.13 C45.45 15.73, 34.21 15.96, 26.36 15.35 C18.5 14.73, 10.37 12.79, 5.91 11.44 C1.45 10.1, -1.39 8.97, -0.39 7.29 C0.61 5.62, 5.79 2.57, 11.91 1.38 C18.03 0.19, 32.35 0.36, 36.34 0.14 C40.34 -0.09, 35.78 -0.02, 35.89 0" stroke="none" stroke-width="0" fill="#fff"></path><path d="M34.54 0.05 C42.23 -0.26, 52.49 0.13, 59.32 1.11 C66.15 2.1, 73.15 4.3, 75.51 5.97 C77.86 7.64, 76.84 9.62, 73.44 11.15 C70.03 12.68, 62.44 14.43, 55.1 15.15 C47.76 15.87, 37.45 15.96, 29.42 15.47 C21.39 14.98, 11.88 13.6, 6.93 12.21 C1.97 10.83, -0.86 8.71, -0.3 7.14 C0.26 5.58, 4.46 3.96, 10.3 2.83 C16.13 1.69, 30.41 0.81, 34.73 0.35 C39.05 -0.11, 36.13 0.01, 36.23 0.07 M29.28 0.91 C36.77 0.4, 48.59 0.42, 56.03 1.01 C63.47 1.61, 70.79 2.88, 73.92 4.48 C77.04 6.07, 77.29 8.89, 74.75 10.58 C72.22 12.27, 65.7 13.71, 58.73 14.65 C51.75 15.58, 40.93 16.4, 32.9 16.17 C24.87 15.93, 15.89 14.55, 10.52 13.22 C5.16 11.9, 1.2 10.04, 0.7 8.22 C0.21 6.4, 2.8 3.71, 7.57 2.33 C12.33 0.95, 25.68 0.24, 29.31 -0.08 C32.94 -0.39, 29.22 0.34, 29.35 0.42" stroke="#000000" stroke-width="1" fill="none"></path></g><g stroke-linecap="round" transform="translate(1729.1063117458198 992.2964902325185) rotate(0 5.613051577080853 6.091879242227776)"><path d="M5.74 -0.49 C6.87 -0.54, 8.04 0.19, 9 1.06 C9.96 1.93, 11.19 3.46, 11.5 4.75 C11.8 6.04, 11.51 7.57, 10.85 8.81 C10.19 10.04, 8.78 11.6, 7.54 12.16 C6.31 12.72, 4.57 12.68, 3.42 12.15 C2.28 11.63, 1.3 10.26, 0.67 8.99 C0.05 7.73, -0.54 5.78, -0.32 4.57 C-0.1 3.36, 0.94 2.46, 2.01 1.73 C3.07 1, 5.36 0.44, 6.05 0.21 C6.74 -0.02, 6.22 0.25, 6.15 0.35 M5.38 -0.17 C6.48 -0.35, 7.78 -0.01, 8.68 0.97 C9.58 1.96, 10.53 4.29, 10.8 5.73 C11.07 7.17, 10.97 8.53, 10.29 9.59 C9.61 10.65, 7.89 11.82, 6.72 12.1 C5.56 12.37, 4.43 11.68, 3.3 11.23 C2.17 10.79, 0.54 10.64, -0.05 9.45 C-0.64 8.26, -0.6 5.46, -0.25 4.12 C0.1 2.77, 1.16 2.11, 2.07 1.4 C2.99 0.69, 4.56 0.14, 5.24 -0.16 C5.93 -0.45, 6.07 -0.64, 6.18 -0.39" stroke="none" stroke-width="0" fill="#868e96"></path><path d="M5.46 -0.2 C6.62 -0.18, 8.8 0.98, 9.77 1.93 C10.74 2.88, 11.19 4.19, 11.29 5.49 C11.38 6.8, 10.93 8.66, 10.32 9.76 C9.72 10.86, 8.88 11.77, 7.67 12.08 C6.47 12.4, 4.32 12.18, 3.09 11.65 C1.86 11.12, 0.84 9.95, 0.28 8.89 C-0.28 7.83, -0.52 6.5, -0.28 5.29 C-0.04 4.08, 0.65 2.52, 1.7 1.63 C2.74 0.73, 5.28 0.18, 5.98 -0.09 C6.69 -0.36, 6 -0.12, 5.91 0.02 M6.75 0.24 C8.03 0.21, 9.46 0.81, 10.19 1.87 C10.91 2.93, 11.2 5.17, 11.11 6.59 C11.02 8, 10.49 9.32, 9.65 10.36 C8.81 11.4, 7.14 12.61, 6.06 12.82 C4.98 13.03, 4.03 12.36, 3.19 11.61 C2.35 10.86, 1.53 9.7, 1.01 8.32 C0.49 6.93, -0.13 4.61, 0.08 3.32 C0.28 2.03, 1.27 1.1, 2.24 0.57 C3.21 0.05, 5.27 0.31, 5.89 0.17 C6.5 0.02, 5.85 -0.42, 5.92 -0.3" stroke="#000000" stroke-width="1" fill="none"></path></g><g stroke-linecap="round" transform="translate(1729.4574535297534 1018.5131045195836) rotate(0 5.613051577080853 6.091879242227776)"><path d="M4.05 -0.22 C5.19 -0.56, 7.28 -0.27, 8.46 0.31 C9.64 0.9, 10.72 1.99, 11.15 3.29 C11.58 4.6, 11.49 6.77, 11.04 8.15 C10.6 9.52, 9.5 10.87, 8.48 11.52 C7.46 12.17, 6.15 12.31, 4.92 12.03 C3.7 11.76, 1.96 10.74, 1.14 9.86 C0.31 8.99, -0.05 8, -0.01 6.8 C0.03 5.6, 0.59 3.75, 1.38 2.68 C2.17 1.61, 4.19 0.73, 4.72 0.35 C5.25 -0.02, 4.57 0.43, 4.56 0.44 M5.47 -0.58 C6.63 -0.43, 8.32 1.22, 9.26 2.3 C10.21 3.38, 11.09 4.63, 11.14 5.89 C11.19 7.15, 10.29 8.92, 9.56 9.86 C8.84 10.8, 7.98 11.13, 6.8 11.5 C5.62 11.88, 3.59 12.7, 2.47 12.1 C1.36 11.5, 0.51 9.16, 0.11 7.91 C-0.28 6.65, -0.18 5.73, 0.11 4.56 C0.4 3.39, 0.8 1.73, 1.87 0.89 C2.94 0.05, 5.8 -0.48, 6.53 -0.48 C7.26 -0.48, 6.33 0.8, 6.26 0.88" stroke="none" stroke-width="0" fill="#868e96"></path><path d="M6.05 0.37 C7.27 0.38, 8.52 0.85, 9.36 1.71 C10.2 2.56, 10.85 4.24, 11.09 5.51 C11.32 6.79, 11.44 8.33, 10.78 9.36 C10.11 10.4, 8.33 11.33, 7.08 11.73 C5.83 12.12, 4.41 12.09, 3.29 11.73 C2.16 11.37, 0.95 10.63, 0.34 9.57 C-0.27 8.5, -0.65 6.71, -0.36 5.33 C-0.07 3.96, 1.04 2.22, 2.06 1.31 C3.09 0.4, 5.16 0.05, 5.79 -0.12 C6.41 -0.28, 5.73 0.24, 5.81 0.3 M7.24 -0.1 C8.31 0.18, 9.4 1.86, 10.01 3.02 C10.63 4.18, 11.08 5.53, 10.92 6.87 C10.77 8.2, 9.83 10.12, 9.11 11.04 C8.38 11.95, 7.57 12.33, 6.58 12.37 C5.59 12.41, 4.26 12.15, 3.16 11.26 C2.06 10.38, 0.52 8.39, -0.02 7.08 C-0.56 5.76, -0.48 4.44, -0.06 3.38 C0.35 2.32, 1.4 1.33, 2.46 0.71 C3.53 0.1, 5.61 -0.3, 6.33 -0.33 C7.05 -0.37, 6.78 0.4, 6.79 0.5" stroke="#000000" stroke-width="1" fill="none"></path></g><g stroke-linecap="round" transform="translate(1730.1063117458198 1047.2818310908901) rotate(357.5021844865888 5.613051577080853 6.091879242227776)"><path d="M4.61 -0.14 C5.81 -0.51, 7.44 -0.43, 8.47 0.26 C9.5 0.94, 10.4 2.64, 10.79 3.95 C11.17 5.26, 11.12 6.95, 10.77 8.13 C10.42 9.31, 9.71 10.43, 8.68 11.03 C7.66 11.63, 5.8 11.79, 4.61 11.72 C3.42 11.66, 2.26 11.48, 1.54 10.65 C0.83 9.81, 0.33 8.03, 0.29 6.71 C0.26 5.39, 0.67 3.79, 1.34 2.73 C2.01 1.67, 3.77 0.83, 4.32 0.37 C4.88 -0.1, 4.61 -0.07, 4.68 -0.06 M4.92 0.47 C6.16 0.46, 7.97 0.72, 8.9 1.45 C9.83 2.19, 10.22 3.75, 10.48 4.9 C10.73 6.04, 11 7.12, 10.44 8.34 C9.88 9.55, 8.27 11.73, 7.14 12.21 C6 12.69, 4.67 11.69, 3.62 11.24 C2.57 10.8, 1.51 10.57, 0.82 9.56 C0.12 8.56, -0.77 6.62, -0.55 5.22 C-0.34 3.81, 1.12 1.89, 2.11 1.14 C3.1 0.4, 4.86 1.02, 5.38 0.74 C5.9 0.46, 5.18 -0.46, 5.24 -0.54" stroke="none" stroke-width="0" fill="#868e96"></path><path d="M5.17 0.3 C6.22 0.11, 7.69 0.79, 8.71 1.51 C9.74 2.23, 11.06 3.47, 11.33 4.64 C11.59 5.8, 10.91 7.35, 10.3 8.5 C9.69 9.64, 8.74 10.84, 7.67 11.5 C6.59 12.16, 5.01 12.7, 3.83 12.45 C2.66 12.19, 1.24 11.13, 0.61 9.98 C-0.02 8.83, -0.08 6.92, 0.06 5.54 C0.19 4.16, 0.65 2.61, 1.43 1.72 C2.21 0.82, 4.04 0.48, 4.74 0.16 C5.45 -0.17, 5.51 -0.35, 5.67 -0.25 M5.78 0.55 C6.83 0.64, 8.34 1.1, 9.15 2.02 C9.95 2.94, 10.36 4.82, 10.62 6.08 C10.87 7.35, 11.12 8.64, 10.67 9.63 C10.22 10.62, 9.16 11.79, 7.92 12.02 C6.67 12.24, 4.48 11.54, 3.18 10.97 C1.87 10.4, 0.7 9.62, 0.08 8.59 C-0.54 7.57, -0.78 6.12, -0.52 4.81 C-0.26 3.5, 0.57 1.49, 1.62 0.72 C2.67 -0.04, 5.14 0.39, 5.78 0.21 C6.42 0.03, 5.45 -0.39, 5.47 -0.37" stroke="#000000" stroke-width="1" fill="none"></path></g><g transform="translate(1660.2854515339345 1068.871972689733) rotate(0 71.19017028808594 11.79758053595242)"><text x="71.19017028808594" y="0" font-family="Virgil, Segoe UI Emoji" font-size="17.4778970902999px" fill="#000000" text-anchor="middle" style="white-space: pre;" direction="ltr" dominant-baseline="text-before-edge">Price Cacher DB</text></g><g transform="translate(23.299615479657064 643.2994356317869) rotate(0 28.5 12.5)"><text x="0" y="0" font-family="Virgil, Segoe UI Emoji" font-size="20px" fill="#000000" text-anchor="start" style="white-space: pre;" direction="ltr" dominant-baseline="text-before-edge">Users</text></g><g stroke-linecap="round" transform="translate(63.74243241887632 576.03959229745) rotate(0 9.875171816384807 8.640775339336713)"><path d="M2.19 3.23 C2.19 3.23, 2.19 3.23, 2.19 3.23 M2.19 3.23 C2.19 3.23, 2.19 3.23, 2.19 3.23 M2.98 14.51 C6.26 10.74, 9.54 6.96, 14.79 0.93 M2.98 14.51 C6.45 10.52, 9.92 6.53, 14.79 0.93 M10.33 18.25 C12.17 16.13, 14.02 14, 19.51 7.69 M10.33 18.25 C13.69 14.39, 17.05 10.52, 19.51 7.69 M3.77 15.47 C3.77 15.47, 3.77 15.47, 3.77 15.47 M3.77 15.47 C3.77 15.47, 3.77 15.47, 3.77 15.47 M15.81 15.34 C11.2 11.33, 6.58 7.32, 2.23 3.53 M15.81 15.34 C12.13 12.14, 8.45 8.94, 2.23 3.53 M20.31 8.65 C16.54 5.37, 12.77 2.09, 9.74 -0.54 M20.31 8.65 C16.08 4.97, 11.86 1.3, 9.74 -0.54" stroke="#ced4da" stroke-width="1" fill="none"></path><path d="M19.75 8.64 C19.75 9.14, 19.7 9.65, 19.6 10.14 C19.5 10.63, 19.35 11.13, 19.15 11.6 C18.96 12.07, 18.71 12.53, 18.43 12.96 C18.14 13.39, 17.81 13.81, 17.44 14.19 C17.07 14.58, 16.66 14.94, 16.22 15.26 C15.78 15.58, 15.31 15.87, 14.81 16.12 C14.32 16.37, 13.79 16.59, 13.25 16.76 C12.72 16.93, 12.15 17.06, 11.59 17.15 C11.03 17.24, 10.45 17.28, 9.88 17.28 C9.3 17.28, 8.72 17.24, 8.16 17.15 C7.6 17.06, 7.03 16.93, 6.5 16.76 C5.96 16.59, 5.43 16.37, 4.94 16.12 C4.44 15.87, 3.97 15.58, 3.53 15.26 C3.09 14.94, 2.68 14.58, 2.31 14.19 C1.94 13.81, 1.61 13.39, 1.32 12.96 C1.04 12.53, 0.79 12.07, 0.6 11.6 C0.4 11.13, 0.25 10.63, 0.15 10.14 C0.05 9.65, 0 9.14, 0 8.64 C0 8.14, 0.05 7.63, 0.15 7.14 C0.25 6.65, 0.4 6.16, 0.6 5.69 C0.79 5.22, 1.04 4.75, 1.32 4.32 C1.61 3.89, 1.94 3.47, 2.31 3.09 C2.68 2.7, 3.09 2.34, 3.53 2.02 C3.97 1.7, 4.44 1.41, 4.94 1.16 C5.43 0.91, 5.96 0.69, 6.5 0.52 C7.03 0.35, 7.6 0.22, 8.16 0.13 C8.72 0.04, 9.3 0, 9.88 0 C10.45 0, 11.03 0.04, 11.59 0.13 C12.15 0.22, 12.72 0.35, 13.25 0.52 C13.79 0.69, 14.32 0.91, 14.81 1.16 C15.31 1.41, 15.78 1.7, 16.22 2.02 C16.66 2.34, 17.07 2.7, 17.44 3.09 C17.81 3.47, 18.14 3.89, 18.43 4.32 C18.71 4.75, 18.96 5.22, 19.15 5.69 C19.35 6.16, 19.5 6.65, 19.6 7.14 C19.7 7.63, 19.73 8.39, 19.75 8.64 C19.78 8.89, 19.78 8.39, 19.75 8.64" stroke="#000000" stroke-width="2" fill="none"></path></g><g stroke-linecap="round" transform="translate(20.558758294554423 576.6226600810841) rotate(0 9.875171816384807 8.640775339336713)"><path d="M2.19 3.23 C2.19 3.23, 2.19 3.23, 2.19 3.23 M2.19 3.23 C2.19 3.23, 2.19 3.23, 2.19 3.23 M2.98 14.51 C5.83 11.23, 8.69 7.94, 14.79 0.93 M2.98 14.51 C6.05 10.98, 9.12 7.45, 14.79 0.93 M10.33 18.25 C13.27 14.87, 16.21 11.48, 19.51 7.69 M10.33 18.25 C13.17 14.98, 16.02 11.71, 19.51 7.69 M3.77 15.47 C3.77 15.47, 3.77 15.47, 3.77 15.47 M3.77 15.47 C3.77 15.47, 3.77 15.47, 3.77 15.47 M15.81 15.34 C11.89 11.93, 7.98 8.53, 2.23 3.53 M15.81 15.34 C11.42 11.52, 7.02 7.69, 2.23 3.53 M20.31 8.65 C17.07 5.84, 13.84 3.02, 9.74 -0.54 M20.31 8.65 C16.72 5.53, 13.14 2.41, 9.74 -0.54" stroke="#ced4da" stroke-width="1" fill="none"></path><path d="M19.75 8.64 C19.75 9.14, 19.7 9.65, 19.6 10.14 C19.5 10.63, 19.35 11.13, 19.15 11.6 C18.96 12.07, 18.71 12.53, 18.43 12.96 C18.14 13.39, 17.81 13.81, 17.44 14.19 C17.07 14.58, 16.66 14.94, 16.22 15.26 C15.78 15.58, 15.31 15.87, 14.81 16.12 C14.32 16.37, 13.79 16.59, 13.25 16.76 C12.72 16.93, 12.15 17.06, 11.59 17.15 C11.03 17.24, 10.45 17.28, 9.88 17.28 C9.3 17.28, 8.72 17.24, 8.16 17.15 C7.6 17.06, 7.03 16.93, 6.5 16.76 C5.96 16.59, 5.43 16.37, 4.94 16.12 C4.44 15.87, 3.97 15.58, 3.53 15.26 C3.09 14.94, 2.68 14.58, 2.31 14.19 C1.94 13.81, 1.61 13.39, 1.32 12.96 C1.04 12.53, 0.79 12.07, 0.6 11.6 C0.4 11.13, 0.25 10.63, 0.15 10.14 C0.05 9.65, 0 9.14, 0 8.64 C0 8.14, 0.05 7.63, 0.15 7.14 C0.25 6.65, 0.4 6.16, 0.6 5.69 C0.79 5.22, 1.04 4.75, 1.32 4.32 C1.61 3.89, 1.94 3.47, 2.31 3.09 C2.68 2.7, 3.09 2.34, 3.53 2.02 C3.97 1.7, 4.44 1.41, 4.94 1.16 C5.43 0.91, 5.96 0.69, 6.5 0.52 C7.03 0.35, 7.6 0.22, 8.16 0.13 C8.72 0.04, 9.3 0, 9.88 0 C10.45 0, 11.03 0.04, 11.59 0.13 C12.15 0.22, 12.72 0.35, 13.25 0.52 C13.79 0.69, 14.32 0.91, 14.81 1.16 C15.31 1.41, 15.78 1.7, 16.22 2.02 C16.66 2.34, 17.07 2.7, 17.44 3.09 C17.81 3.47, 18.14 3.89, 18.43 4.32 C18.71 4.75, 18.96 5.22, 19.15 5.69 C19.35 6.16, 19.5 6.65, 19.6 7.14 C19.7 7.63, 19.73 8.39, 19.75 8.64 C19.78 8.89, 19.78 8.39, 19.75 8.64" stroke="#000000" stroke-width="2" fill="none"></path></g><g stroke-linecap="round"><g transform="translate(31.010578301818782 635.5536958187337) rotate(0 20.903001066267336 -18.61352214878211)" fill-rule="evenodd"><path d="M11.93 -33.36 C11.93 -33.36, 11.93 -33.36, 11.93 -33.36 M11.93 -33.36 C11.93 -33.36, 11.93 -33.36, 11.93 -33.36 M1.56 -9.24 C9.13 -17.94, 16.69 -26.65, 25.18 -36.41 M1.56 -9.24 C8.88 -17.66, 16.19 -26.07, 25.18 -36.41 M4.32 -0.22 C13.79 -11.12, 23.27 -22.02, 31.22 -31.16 M4.32 -0.22 C14.37 -11.79, 24.43 -23.36, 31.22 -31.16 M14.95 -0.26 C21.2 -7.44, 27.44 -14.63, 36.6 -25.16 M14.95 -0.26 C21.96 -8.32, 28.97 -16.38, 36.6 -25.16 M25.58 -0.29 C30.2 -5.6, 34.82 -10.92, 40.67 -17.65 M25.58 -0.29 C30.7 -6.18, 35.82 -12.07, 40.67 -17.65 M36.21 -0.32 C39.27 -3.85, 42.33 -7.37, 44.08 -9.38 M36.21 -0.32 C38 -2.38, 39.79 -4.44, 44.08 -9.38 M0 0 C0 0, 0 0, 0 0 M0 0 C0 0, 0 0, 0 0 M12.04 -0.13 C9.82 -2.06, 7.6 -3.99, 1.47 -9.32 M12.04 -0.13 C8.91 -2.85, 5.78 -5.57, 1.47 -9.32 M24.08 -0.27 C15.96 -7.32, 7.85 -14.38, 2.95 -18.64 M24.08 -0.27 C17.85 -5.69, 11.61 -11.11, 2.95 -18.64 M35.37 -1.06 C27.8 -7.63, 20.24 -14.2, 5.93 -26.64 M35.37 -1.06 C28.29 -7.21, 21.21 -13.36, 5.93 -26.64 M42.88 -5.12 C31.23 -15.25, 19.58 -25.38, 11.18 -32.68 M42.88 -5.12 C34.77 -12.18, 26.65 -19.23, 11.18 -32.68 M41.34 -17.07 C33.43 -23.94, 25.51 -30.82, 18.7 -36.75 M41.34 -17.07 C36.69 -21.1, 32.05 -25.14, 18.7 -36.75" stroke="#ced4da" stroke-width="1" fill="none"></path><path d="M0 0 C0.78 -4.11, 1.34 -18.46, 4.68 -24.67 C8.03 -30.87, 14.94 -36.78, 20.07 -37.23 C25.2 -37.68, 31.83 -33.14, 35.45 -27.36 C39.07 -21.58, 47.71 -7.12, 41.81 -2.56 C35.9 2, 6.97 -0.43, 0 0 M0 0 C0.78 -4.11, 1.34 -18.46, 4.68 -24.67 C8.03 -30.87, 14.94 -36.78, 20.07 -37.23 C25.2 -37.68, 31.83 -33.14, 35.45 -27.36 C39.07 -21.58, 47.71 -7.12, 41.81 -2.56 C35.9 2, 6.97 -0.43, 0 0" stroke="#000000" stroke-width="2" fill="none"></path></g></g><mask></mask><g stroke-linecap="round" transform="translate(41.496700452628716 578.9791844988966) rotate(0 10.702336545928858 9.3645444776878)"><path d="M2.43 3.43 C2.43 3.43, 2.43 3.43, 2.43 3.43 M2.43 3.43 C2.43 3.43, 2.43 3.43, 2.43 3.43 M2.56 15.48 C5.77 11.79, 8.97 8.1, 15.02 1.14 M2.56 15.48 C5.96 11.57, 9.36 7.66, 15.02 1.14 M10.57 18.46 C14.16 14.32, 17.76 10.18, 21.06 6.38 M10.57 18.46 C14.42 14.03, 18.27 9.59, 21.06 6.38 M4.02 16.71 C4.02 16.71, 4.02 16.71, 4.02 16.71 M4.02 16.71 C4.02 16.71, 4.02 16.71, 4.02 16.71 M16.82 17.23 C11.62 12.72, 6.42 8.2, 1.72 4.11 M16.82 17.23 C12.92 13.84, 9.02 10.46, 1.72 4.11 M21.31 10.54 C17.35 7.1, 13.39 3.66, 9.24 0.04 M21.31 10.54 C17.34 7.09, 13.38 3.64, 9.24 0.04" stroke="#ced4da" stroke-width="1" fill="none"></path><path d="M21.4 9.36 C21.4 9.91, 21.35 10.46, 21.24 10.99 C21.13 11.52, 20.97 12.06, 20.76 12.57 C20.55 13.08, 20.28 13.58, 19.97 14.05 C19.66 14.52, 19.3 14.97, 18.9 15.38 C18.5 15.8, 18.06 16.19, 17.58 16.54 C17.11 16.89, 16.59 17.2, 16.05 17.47 C15.52 17.75, 14.94 17.98, 14.36 18.16 C13.78 18.35, 13.17 18.49, 12.56 18.59 C11.95 18.68, 11.32 18.73, 10.7 18.73 C10.08 18.73, 9.45 18.68, 8.84 18.59 C8.23 18.49, 7.62 18.35, 7.04 18.16 C6.46 17.98, 5.89 17.75, 5.35 17.47 C4.81 17.2, 4.3 16.89, 3.82 16.54 C3.35 16.19, 2.9 15.8, 2.5 15.38 C2.11 14.97, 1.74 14.52, 1.43 14.05 C1.12 13.58, 0.86 13.08, 0.65 12.57 C0.43 12.06, 0.27 11.52, 0.16 10.99 C0.06 10.46, 0 9.91, 0 9.36 C0 8.82, 0.06 8.27, 0.16 7.74 C0.27 7.2, 0.43 6.67, 0.65 6.16 C0.86 5.65, 1.12 5.15, 1.43 4.68 C1.74 4.21, 2.11 3.76, 2.5 3.35 C2.9 2.93, 3.35 2.54, 3.82 2.19 C4.3 1.84, 4.81 1.53, 5.35 1.25 C5.89 0.98, 6.46 0.75, 7.04 0.56 C7.62 0.38, 8.23 0.24, 8.84 0.14 C9.45 0.05, 10.08 0, 10.7 0 C11.32 0, 11.95 0.05, 12.56 0.14 C13.17 0.24, 13.78 0.38, 14.36 0.56 C14.94 0.75, 15.52 0.98, 16.05 1.25 C16.59 1.53, 17.11 1.84, 17.58 2.19 C18.06 2.54, 18.5 2.93, 18.9 3.35 C19.3 3.76, 19.66 4.21, 19.97 4.68 C20.28 5.15, 20.55 5.65, 20.76 6.16 C20.97 6.67, 21.13 7.2, 21.24 7.74 C21.35 8.27, 21.38 9.09, 21.4 9.36 C21.43 9.64, 21.43 9.09, 21.4 9.36" stroke="#000000" stroke-width="2" fill="none"></path></g><g stroke-linecap="round"><g transform="translate(60.161913756269655 601.8846311336807) rotate(0 16.71865860152218 9.951582500906)" fill-rule="evenodd"><path d="M0 0 C0 0, 0 0, 0 0 M0 0 C0 0, 0 0, 0 0 M6.04 5.25 C10.11 0.57, 14.17 -4.11, 17.85 -8.34 M6.04 5.25 C9.09 1.74, 12.14 -1.77, 17.85 -8.34 M10.11 12.76 C15.06 7.07, 20 1.38, 25.2 -4.6 M10.11 12.76 C15.07 7.06, 20.02 1.35, 25.2 -4.6 M14.18 20.27 C18.18 15.67, 22.18 11.06, 29.27 2.92 M14.18 20.27 C18.22 15.62, 22.27 10.97, 29.27 2.92 M17.59 28.54 C22.54 22.85, 27.48 17.16, 32.02 11.94 M17.59 28.54 C21.88 23.61, 26.16 18.68, 32.02 11.94 M29.53 27 C30.7 25.66, 31.86 24.32, 34.12 21.71 M29.53 27 C31.2 25.08, 32.86 23.16, 34.12 21.71 M14.43 27.6 C14.43 27.6, 14.43 27.6, 14.43 27.6 M14.43 27.6 C14.43 27.6, 14.43 27.6, 14.43 27.6 M26.47 27.47 C20.27 22.08, 14.06 16.69, 9.87 13.04 M26.47 27.47 C20.77 22.51, 15.06 17.55, 9.87 13.04 M33.23 22.75 C23.06 13.91, 12.89 5.06, 3.04 -3.5 M33.23 22.75 C25.44 15.98, 17.66 9.21, 3.04 -3.5 M31.68 10.8 C27.21 6.91, 22.73 3.02, 9.8 -8.22 M31.68 10.8 C26.31 6.13, 20.93 1.46, 9.8 -8.22" stroke="#ced4da" stroke-width="1" fill="none"></path><path d="M0 0 C0.86 -0.93, 3.58 -4.18, 5.17 -5.57 C6.77 -6.97, 7.56 -7.83, 9.55 -8.36 C11.54 -8.89, 14.99 -8.89, 17.12 -8.76 C19.24 -8.62, 20.83 -8.43, 22.29 -7.56 C23.75 -6.7, 24.88 -5.11, 25.87 -3.58 C26.87 -2.06, 27.47 -0.33, 28.26 1.59 C29.06 3.52, 29.92 5.84, 30.65 7.96 C31.38 10.08, 32.18 12.41, 32.64 14.33 C33.11 16.25, 33.44 17.78, 33.44 19.51 C33.44 21.23, 33.3 23.42, 32.64 24.68 C31.98 25.94, 30.72 26.47, 29.46 27.07 C28.2 27.67, 26.87 28, 25.08 28.26 C23.29 28.53, 20.43 28.73, 18.71 28.66 C16.98 28.59, 15.46 28.93, 14.73 27.86 C14 26.8, 14.66 23.82, 14.33 22.29 C14 20.77, 13.47 20.23, 12.74 18.71 C12.01 17.18, 11.08 15.33, 9.95 13.14 C8.82 10.95, 7.63 7.76, 5.97 5.57 C4.31 3.38, 1 0.93, 0 0 M0 0 C0.86 -0.93, 3.58 -4.18, 5.17 -5.57 C6.77 -6.97, 7.56 -7.83, 9.55 -8.36 C11.54 -8.89, 14.99 -8.89, 17.12 -8.76 C19.24 -8.62, 20.83 -8.43, 22.29 -7.56 C23.75 -6.7, 24.88 -5.11, 25.87 -3.58 C26.87 -2.06, 27.47 -0.33, 28.26 1.59 C29.06 3.52, 29.92 5.84, 30.65 7.96 C31.38 10.08, 32.18 12.41, 32.64 14.33 C33.11 16.25, 33.44 17.78, 33.44 19.51 C33.44 21.23, 33.3 23.42, 32.64 24.68 C31.98 25.94, 30.72 26.47, 29.46 27.07 C28.2 27.67, 26.87 28, 25.08 28.26 C23.29 28.53, 20.43 28.73, 18.71 28.66 C16.98 28.59, 15.46 28.93, 14.73 27.86 C14 26.8, 14.66 23.82, 14.33 22.29 C14 20.77, 13.47 20.23, 12.74 18.71 C12.01 17.18, 11.08 15.33, 9.95 13.14 C8.82 10.95, 7.63 7.76, 5.97 5.57 C4.31 3.38, 1 0.93, 0 0" stroke="#000000" stroke-width="2" fill="none"></path></g></g><mask></mask><g stroke-linecap="round"><g transform="translate(42.243127302935704 601.8727552302763) rotate(0 -16.121563651467852 11.941899001087322)" fill-rule="evenodd"><path d="M-24.42 -2.68 C-24.42 -2.68, -24.42 -2.68, -24.42 -2.68 M-24.42 -2.68 C-24.42 -2.68, -24.42 -2.68, -24.42 -2.68 M-31.51 17.66 C-24.66 9.78, -17.81 1.9, -10.51 -6.49 M-31.51 17.66 C-24.73 9.87, -17.96 2.08, -10.51 -6.49 M-29.41 27.44 C-18.78 15.21, -8.15 2.99, -2.51 -3.51 M-29.41 27.44 C-23.43 20.56, -17.45 13.68, -2.51 -3.51 M-22.06 31.18 C-19.01 27.67, -15.96 24.16, -8.28 15.33 M-22.06 31.18 C-17.83 26.31, -13.6 21.45, -8.28 15.33 M-12.08 31.9 C-11.79 31.56, -11.51 31.23, -10.77 30.39 M-12.08 31.9 C-11.61 31.36, -11.14 30.82, -10.77 30.39 M-31.63 25.72 C-31.63 25.72, -31.63 25.72, -31.63 25.72 M-31.63 25.72 C-31.63 25.72, -31.63 25.72, -31.63 25.72 M-12.8 31.49 C-19.23 25.89, -25.66 20.3, -30.91 15.74 M-12.8 31.49 C-18.27 26.73, -23.74 21.97, -30.91 15.74 M-9.06 24.14 C-13.5 20.27, -17.95 16.41, -28.68 7.08 M-9.06 24.14 C-15.46 18.57, -21.86 13.01, -28.68 7.08 M-8.34 14.16 C-13.58 9.6, -18.83 5.04, -25.7 -0.93 M-8.34 14.16 C-12.11 10.88, -15.89 7.6, -25.7 -0.93 M-4.6 6.81 C-10.77 1.45, -16.94 -3.92, -20.45 -6.96 M-4.6 6.81 C-8.37 3.53, -12.15 0.25, -20.45 -6.96 M-0.1 0.12 C-2.62 -2.07, -5.14 -4.26, -9.16 -7.75 M-0.1 0.12 C-2.84 -2.26, -5.57 -4.63, -9.16 -7.75" stroke="#ced4da" stroke-width="1" fill="none"></path><path d="M0 0 C-0.66 -0.73, -2.59 -3.18, -3.98 -4.38 C-5.37 -5.57, -6.37 -6.63, -8.36 -7.17 C-10.35 -7.7, -13.8 -7.7, -15.92 -7.56 C-18.05 -7.43, -19.64 -7.23, -21.1 -6.37 C-22.56 -5.51, -23.68 -3.91, -24.68 -2.39 C-25.68 -0.86, -26.27 0.86, -27.07 2.79 C-27.86 4.71, -28.73 7.03, -29.46 9.16 C-30.19 11.28, -30.98 13.6, -31.45 15.52 C-31.91 17.45, -32.24 18.97, -32.24 20.7 C-32.24 22.42, -32.11 24.61, -31.45 25.87 C-30.78 27.13, -29.46 27.53, -28.26 28.26 C-27.07 28.99, -26.01 29.72, -24.28 30.25 C-22.56 30.78, -20.1 31.25, -17.91 31.45 C-15.72 31.65, -12.41 32.64, -11.15 31.45 C-9.89 30.25, -10.62 26.07, -10.35 24.28 C-10.08 22.49, -9.89 22.29, -9.55 20.7 C-9.22 19.11, -9.16 17.05, -8.36 14.73 C-7.56 12.41, -6.17 9.22, -4.78 6.77 C-3.38 4.31, -0.8 1.13, 0 0 M0 0 C-0.66 -0.73, -2.59 -3.18, -3.98 -4.38 C-5.37 -5.57, -6.37 -6.63, -8.36 -7.17 C-10.35 -7.7, -13.8 -7.7, -15.92 -7.56 C-18.05 -7.43, -19.64 -7.23, -21.1 -6.37 C-22.56 -5.51, -23.68 -3.91, -24.68 -2.39 C-25.68 -0.86, -26.27 0.86, -27.07 2.79 C-27.86 4.71, -28.73 7.03, -29.46 9.16 C-30.19 11.28, -30.98 13.6, -31.45 15.52 C-31.91 17.45, -32.24 18.97, -32.24 20.7 C-32.24 22.42, -32.11 24.61, -31.45 25.87 C-30.78 27.13, -29.46 27.53, -28.26 28.26 C-27.07 28.99, -26.01 29.72, -24.28 30.25 C-22.56 30.78, -20.1 31.25, -17.91 31.45 C-15.72 31.65, -12.41 32.64, -11.15 31.45 C-9.89 30.25, -10.62 26.07, -10.35 24.28 C-10.08 22.49, -9.89 22.29, -9.55 20.7 C-9.22 19.11, -9.16 17.05, -8.36 14.73 C-7.56 12.41, -6.17 9.22, -4.78 6.77 C-3.38 4.31, -0.8 1.13, 0 0" stroke="#000000" stroke-width="2" fill="none"></path></g></g><mask></mask><g stroke-linecap="round" transform="translate(381.13338252086874 549.4789991989885) rotate(0 86.20155669642833 51.590659830592415)"><path d="M0 0 C65.94 1.49, 132.39 2.7, 172.4 0 M0 0 C57.28 0.91, 114.67 1.85, 172.4 0 M172.4 0 C173.02 31.08, 174.22 63.29, 172.4 103.18 M172.4 0 C171.02 33.67, 172.3 66.62, 172.4 103.18 M172.4 103.18 C117.9 102.88, 64.42 106.55, 0 103.18 M172.4 103.18 C121.09 104.29, 71.44 104.66, 0 103.18 M0 103.18 C1.32 79.42, -1.75 52.04, 0 0 M0 103.18 C-0.18 63.07, 0.28 23.84, 0 0" stroke="#000000" stroke-width="1" fill="none"></path></g><g stroke-linecap="round"><g transform="translate(379.68334468026865 563.9262034404562) rotate(0 86.84737260434352 0)"><path d="M-0.07 -0.84 C29.17 -0.68, 145.49 0.33, 174.35 0.36 M-1.57 1.34 C27.67 1.17, 144.81 -1.41, 173.74 -1.57" stroke="#000000" stroke-width="1" fill="none"></path></g></g><mask></mask><g stroke-linecap="round" transform="translate(387.18380541783336 555.2375997944455) rotate(0 3.371623500570422 3.3716235005703936)"><path d="M6.74 3.37 C6.74 3.57, 6.73 3.76, 6.69 3.96 C6.66 4.15, 6.61 4.34, 6.54 4.52 C6.47 4.71, 6.39 4.89, 6.29 5.06 C6.19 5.23, 6.08 5.39, 5.95 5.54 C5.83 5.69, 5.69 5.83, 5.54 5.95 C5.39 6.08, 5.23 6.19, 5.06 6.29 C4.89 6.39, 4.71 6.47, 4.52 6.54 C4.34 6.61, 4.15 6.66, 3.96 6.69 C3.76 6.73, 3.57 6.74, 3.37 6.74 C3.18 6.74, 2.98 6.73, 2.79 6.69 C2.59 6.66, 2.4 6.61, 2.22 6.54 C2.04 6.47, 1.85 6.39, 1.69 6.29 C1.52 6.19, 1.35 6.08, 1.2 5.95 C1.05 5.83, 0.91 5.69, 0.79 5.54 C0.66 5.39, 0.55 5.23, 0.45 5.06 C0.35 4.89, 0.27 4.71, 0.2 4.52 C0.14 4.34, 0.09 4.15, 0.05 3.96 C0.02 3.76, 0 3.57, 0 3.37 C0 3.18, 0.02 2.98, 0.05 2.79 C0.09 2.59, 0.14 2.4, 0.2 2.22 C0.27 2.04, 0.35 1.85, 0.45 1.69 C0.55 1.52, 0.66 1.35, 0.79 1.2 C0.91 1.05, 1.05 0.91, 1.2 0.79 C1.35 0.66, 1.52 0.55, 1.69 0.45 C1.85 0.35, 2.04 0.27, 2.22 0.2 C2.4 0.14, 2.59 0.09, 2.79 0.05 C2.98 0.02, 3.18 0, 3.37 0 C3.57 0, 3.76 0.02, 3.96 0.05 C4.15 0.09, 4.34 0.14, 4.52 0.2 C4.71 0.27, 4.89 0.35, 5.06 0.45 C5.23 0.55, 5.39 0.66, 5.54 0.79 C5.69 0.91, 5.83 1.05, 5.95 1.2 C6.08 1.35, 6.19 1.52, 6.29 1.69 C6.39 1.85, 6.47 2.04, 6.54 2.22 C6.61 2.4, 6.66 2.59, 6.69 2.79 C6.73 2.98, 6.73 3.27, 6.74 3.37 C6.75 3.47, 6.75 3.27, 6.74 3.37" stroke="none" stroke-width="0" fill="#fa5252"></path><path d="M6.74 3.37 C6.74 3.57, 6.73 3.76, 6.69 3.96 C6.66 4.15, 6.61 4.34, 6.54 4.52 C6.47 4.71, 6.39 4.89, 6.29 5.06 C6.19 5.23, 6.08 5.39, 5.95 5.54 C5.83 5.69, 5.69 5.83, 5.54 5.95 C5.39 6.08, 5.23 6.19, 5.06 6.29 C4.89 6.39, 4.71 6.47, 4.52 6.54 C4.34 6.61, 4.15 6.66, 3.96 6.69 C3.76 6.73, 3.57 6.74, 3.37 6.74 C3.18 6.74, 2.98 6.73, 2.79 6.69 C2.59 6.66, 2.4 6.61, 2.22 6.54 C2.04 6.47, 1.85 6.39, 1.69 6.29 C1.52 6.19, 1.35 6.08, 1.2 5.95 C1.05 5.83, 0.91 5.69, 0.79 5.54 C0.66 5.39, 0.55 5.23, 0.45 5.06 C0.35 4.89, 0.27 4.71, 0.2 4.52 C0.14 4.34, 0.09 4.15, 0.05 3.96 C0.02 3.76, 0 3.57, 0 3.37 C0 3.18, 0.02 2.98, 0.05 2.79 C0.09 2.59, 0.14 2.4, 0.2 2.22 C0.27 2.04, 0.35 1.85, 0.45 1.69 C0.55 1.52, 0.66 1.35, 0.79 1.2 C0.91 1.05, 1.05 0.91, 1.2 0.79 C1.35 0.66, 1.52 0.55, 1.69 0.45 C1.85 0.35, 2.04 0.27, 2.22 0.2 C2.4 0.14, 2.59 0.09, 2.79 0.05 C2.98 0.02, 3.18 0, 3.37 0 C3.57 0, 3.76 0.02, 3.96 0.05 C4.15 0.09, 4.34 0.14, 4.52 0.2 C4.71 0.27, 4.89 0.35, 5.06 0.45 C5.23 0.55, 5.39 0.66, 5.54 0.79 C5.69 0.91, 5.83 1.05, 5.95 1.2 C6.08 1.35, 6.19 1.52, 6.29 1.69 C6.39 1.85, 6.47 2.04, 6.54 2.22 C6.61 2.4, 6.66 2.59, 6.69 2.79 C6.73 2.98, 6.73 3.27, 6.74 3.37 C6.75 3.47, 6.75 3.27, 6.74 3.37" stroke="#000000" stroke-width="1" fill="none"></path></g><g stroke-linecap="round" transform="translate(401.0191788530127 555.2375997944455) rotate(0 3.371623500570422 3.3716235005703936)"><path d="M6.74 3.37 C6.74 3.57, 6.73 3.76, 6.69 3.96 C6.66 4.15, 6.61 4.34, 6.54 4.52 C6.47 4.71, 6.39 4.89, 6.29 5.06 C6.19 5.23, 6.08 5.39, 5.95 5.54 C5.83 5.69, 5.69 5.83, 5.54 5.95 C5.39 6.08, 5.23 6.19, 5.06 6.29 C4.89 6.39, 4.71 6.47, 4.52 6.54 C4.34 6.61, 4.15 6.66, 3.96 6.69 C3.76 6.73, 3.57 6.74, 3.37 6.74 C3.18 6.74, 2.98 6.73, 2.79 6.69 C2.59 6.66, 2.4 6.61, 2.22 6.54 C2.04 6.47, 1.85 6.39, 1.69 6.29 C1.52 6.19, 1.35 6.08, 1.2 5.95 C1.05 5.83, 0.91 5.69, 0.79 5.54 C0.66 5.39, 0.55 5.23, 0.45 5.06 C0.35 4.89, 0.27 4.71, 0.2 4.52 C0.14 4.34, 0.09 4.15, 0.05 3.96 C0.02 3.76, 0 3.57, 0 3.37 C0 3.18, 0.02 2.98, 0.05 2.79 C0.09 2.59, 0.14 2.4, 0.2 2.22 C0.27 2.04, 0.35 1.85, 0.45 1.69 C0.55 1.52, 0.66 1.35, 0.79 1.2 C0.91 1.05, 1.05 0.91, 1.2 0.79 C1.35 0.66, 1.52 0.55, 1.69 0.45 C1.85 0.35, 2.04 0.27, 2.22 0.2 C2.4 0.14, 2.59 0.09, 2.79 0.05 C2.98 0.02, 3.18 0, 3.37 0 C3.57 0, 3.76 0.02, 3.96 0.05 C4.15 0.09, 4.34 0.14, 4.52 0.2 C4.71 0.27, 4.89 0.35, 5.06 0.45 C5.23 0.55, 5.39 0.66, 5.54 0.79 C5.69 0.91, 5.83 1.05, 5.95 1.2 C6.08 1.35, 6.19 1.52, 6.29 1.69 C6.39 1.85, 6.47 2.04, 6.54 2.22 C6.61 2.4, 6.66 2.59, 6.69 2.79 C6.73 2.98, 6.73 3.27, 6.74 3.37 C6.75 3.47, 6.75 3.27, 6.74 3.37" stroke="none" stroke-width="0" fill="#fab005"></path><path d="M6.74 3.37 C6.74 3.57, 6.73 3.76, 6.69 3.96 C6.66 4.15, 6.61 4.34, 6.54 4.52 C6.47 4.71, 6.39 4.89, 6.29 5.06 C6.19 5.23, 6.08 5.39, 5.95 5.54 C5.83 5.69, 5.69 5.83, 5.54 5.95 C5.39 6.08, 5.23 6.19, 5.06 6.29 C4.89 6.39, 4.71 6.47, 4.52 6.54 C4.34 6.61, 4.15 6.66, 3.96 6.69 C3.76 6.73, 3.57 6.74, 3.37 6.74 C3.18 6.74, 2.98 6.73, 2.79 6.69 C2.59 6.66, 2.4 6.61, 2.22 6.54 C2.04 6.47, 1.85 6.39, 1.69 6.29 C1.52 6.19, 1.35 6.08, 1.2 5.95 C1.05 5.83, 0.91 5.69, 0.79 5.54 C0.66 5.39, 0.55 5.23, 0.45 5.06 C0.35 4.89, 0.27 4.71, 0.2 4.52 C0.14 4.34, 0.09 4.15, 0.05 3.96 C0.02 3.76, 0 3.57, 0 3.37 C0 3.18, 0.02 2.98, 0.05 2.79 C0.09 2.59, 0.14 2.4, 0.2 2.22 C0.27 2.04, 0.35 1.85, 0.45 1.69 C0.55 1.52, 0.66 1.35, 0.79 1.2 C0.91 1.05, 1.05 0.91, 1.2 0.79 C1.35 0.66, 1.52 0.55, 1.69 0.45 C1.85 0.35, 2.04 0.27, 2.22 0.2 C2.4 0.14, 2.59 0.09, 2.79 0.05 C2.98 0.02, 3.18 0, 3.37 0 C3.57 0, 3.76 0.02, 3.96 0.05 C4.15 0.09, 4.34 0.14, 4.52 0.2 C4.71 0.27, 4.89 0.35, 5.06 0.45 C5.23 0.55, 5.39 0.66, 5.54 0.79 C5.69 0.91, 5.83 1.05, 5.95 1.2 C6.08 1.35, 6.19 1.52, 6.29 1.69 C6.39 1.85, 6.47 2.04, 6.54 2.22 C6.61 2.4, 6.66 2.59, 6.69 2.79 C6.73 2.98, 6.73 3.27, 6.74 3.37 C6.75 3.47, 6.75 3.27, 6.74 3.37" stroke="#000000" stroke-width="1" fill="none"></path></g><g stroke-linecap="round" transform="translate(415.4621797475206 555.845227253774) rotate(0 3.3716235005703936 3.3716235005703936)"><path d="M6.74 3.37 C6.74 3.57, 6.73 3.76, 6.69 3.96 C6.66 4.15, 6.61 4.34, 6.54 4.52 C6.47 4.71, 6.39 4.89, 6.29 5.06 C6.19 5.23, 6.08 5.39, 5.95 5.54 C5.83 5.69, 5.69 5.83, 5.54 5.95 C5.39 6.08, 5.23 6.19, 5.06 6.29 C4.89 6.39, 4.71 6.47, 4.52 6.54 C4.34 6.61, 4.15 6.66, 3.96 6.69 C3.76 6.73, 3.57 6.74, 3.37 6.74 C3.18 6.74, 2.98 6.73, 2.79 6.69 C2.59 6.66, 2.4 6.61, 2.22 6.54 C2.04 6.47, 1.85 6.39, 1.69 6.29 C1.52 6.19, 1.35 6.08, 1.2 5.95 C1.05 5.83, 0.91 5.69, 0.79 5.54 C0.66 5.39, 0.55 5.23, 0.45 5.06 C0.35 4.89, 0.27 4.71, 0.2 4.52 C0.14 4.34, 0.09 4.15, 0.05 3.96 C0.02 3.76, 0 3.57, 0 3.37 C0 3.18, 0.02 2.98, 0.05 2.79 C0.09 2.59, 0.14 2.4, 0.2 2.22 C0.27 2.04, 0.35 1.85, 0.45 1.69 C0.55 1.52, 0.66 1.35, 0.79 1.2 C0.91 1.05, 1.05 0.91, 1.2 0.79 C1.35 0.66, 1.52 0.55, 1.69 0.45 C1.85 0.35, 2.04 0.27, 2.22 0.2 C2.4 0.14, 2.59 0.09, 2.79 0.05 C2.98 0.02, 3.18 0, 3.37 0 C3.57 0, 3.76 0.02, 3.96 0.05 C4.15 0.09, 4.34 0.14, 4.52 0.2 C4.71 0.27, 4.89 0.35, 5.06 0.45 C5.23 0.55, 5.39 0.66, 5.54 0.79 C5.69 0.91, 5.83 1.05, 5.95 1.2 C6.08 1.35, 6.19 1.52, 6.29 1.69 C6.39 1.85, 6.47 2.04, 6.54 2.22 C6.61 2.4, 6.66 2.59, 6.69 2.79 C6.73 2.98, 6.73 3.27, 6.74 3.37 C6.75 3.47, 6.75 3.27, 6.74 3.37" stroke="none" stroke-width="0" fill="#40c057"></path><path d="M6.74 3.37 C6.74 3.57, 6.73 3.76, 6.69 3.96 C6.66 4.15, 6.61 4.34, 6.54 4.52 C6.47 4.71, 6.39 4.89, 6.29 5.06 C6.19 5.23, 6.08 5.39, 5.95 5.54 C5.83 5.69, 5.69 5.83, 5.54 5.95 C5.39 6.08, 5.23 6.19, 5.06 6.29 C4.89 6.39, 4.71 6.47, 4.52 6.54 C4.34 6.61, 4.15 6.66, 3.96 6.69 C3.76 6.73, 3.57 6.74, 3.37 6.74 C3.18 6.74, 2.98 6.73, 2.79 6.69 C2.59 6.66, 2.4 6.61, 2.22 6.54 C2.04 6.47, 1.85 6.39, 1.69 6.29 C1.52 6.19, 1.35 6.08, 1.2 5.95 C1.05 5.83, 0.91 5.69, 0.79 5.54 C0.66 5.39, 0.55 5.23, 0.45 5.06 C0.35 4.89, 0.27 4.71, 0.2 4.52 C0.14 4.34, 0.09 4.15, 0.05 3.96 C0.02 3.76, 0 3.57, 0 3.37 C0 3.18, 0.02 2.98, 0.05 2.79 C0.09 2.59, 0.14 2.4, 0.2 2.22 C0.27 2.04, 0.35 1.85, 0.45 1.69 C0.55 1.52, 0.66 1.35, 0.79 1.2 C0.91 1.05, 1.05 0.91, 1.2 0.79 C1.35 0.66, 1.52 0.55, 1.69 0.45 C1.85 0.35, 2.04 0.27, 2.22 0.2 C2.4 0.14, 2.59 0.09, 2.79 0.05 C2.98 0.02, 3.18 0, 3.37 0 C3.57 0, 3.76 0.02, 3.96 0.05 C4.15 0.09, 4.34 0.14, 4.52 0.2 C4.71 0.27, 4.89 0.35, 5.06 0.45 C5.23 0.55, 5.39 0.66, 5.54 0.79 C5.69 0.91, 5.83 1.05, 5.95 1.2 C6.08 1.35, 6.19 1.52, 6.29 1.69 C6.39 1.85, 6.47 2.04, 6.54 2.22 C6.61 2.4, 6.66 2.59, 6.69 2.79 C6.73 2.98, 6.73 3.27, 6.74 3.37 C6.75 3.47, 6.75 3.27, 6.74 3.37" stroke="#000000" stroke-width="1" fill="none"></path></g><g stroke-opacity="0.9" fill-opacity="0.9" stroke-linecap="round" transform="translate(437.06862592056507 577.4857915679161) rotate(0 28.796039313320534 28.796039313320534)"><path d="M21.65 0.32 C27.17 -1.7, 35.99 -0.46, 41.5 2.25 C47.02 4.97, 52.2 10.89, 54.75 16.63 C57.3 22.37, 58.26 30.6, 56.82 36.69 C55.38 42.78, 51.24 49.63, 46.11 53.17 C40.99 56.71, 32.37 58.65, 26.08 57.91 C19.8 57.16, 12.66 53.06, 8.4 48.68 C4.14 44.31, 1.02 37.63, 0.52 31.65 C0.02 25.66, 1.6 17.91, 5.42 12.79 C9.23 7.66, 20.03 2.87, 23.41 0.9 C26.79 -1.06, 25.58 0.64, 25.7 1.01 M24.62 -0.24 C30.38 -1.33, 38.52 0.13, 43.65 3.53 C48.77 6.93, 53.58 13.92, 55.37 20.14 C57.16 26.36, 56.42 35.31, 54.38 40.87 C52.35 46.44, 48.6 51.14, 43.14 53.56 C37.69 55.98, 28.1 56.55, 21.66 55.39 C15.22 54.23, 8.04 51.26, 4.52 46.61 C1 41.95, -0.06 34, 0.56 27.48 C1.17 20.96, 4.09 11.95, 8.22 7.49 C12.34 3.04, 22.58 2.08, 25.32 0.73 C28.06 -0.61, 24.75 -1.13, 24.64 -0.56" stroke="none" stroke-width="0" fill="#04aaf7"></path><path d="M29.6 -0.27 C35.38 -0.49, 43.82 3.26, 48.47 7.37 C53.12 11.47, 56.56 18.4, 57.52 24.35 C58.48 30.3, 57.42 37.73, 54.21 43.09 C51 48.45, 44.21 54.43, 38.24 56.51 C32.26 58.59, 24.29 57.79, 18.36 55.59 C12.43 53.38, 5.73 48.93, 2.66 43.3 C-0.4 37.68, -1.31 27.89, -0.05 21.84 C1.21 15.78, 3.74 10.45, 10.22 6.96 C16.69 3.47, 32.6 0.99, 38.82 0.91 C45.04 0.84, 47.8 5.74, 47.53 6.5 M26.28 1.14 C32.33 -0.11, 40.55 -0.06, 45.36 3.39 C50.16 6.85, 53.57 15.88, 55.12 21.88 C56.67 27.89, 57.05 33.99, 54.67 39.43 C52.3 44.87, 46.31 51.41, 40.86 54.52 C35.41 57.64, 27.99 59.65, 21.98 58.12 C15.96 56.58, 8.24 50.44, 4.76 45.32 C1.27 40.21, 0.48 33.64, 1.08 27.43 C1.67 21.22, 4.31 12.71, 8.32 8.07 C12.32 3.44, 22.01 1, 25.11 -0.38 C28.2 -1.77, 26.96 -0.89, 26.88 -0.23" stroke="#000000" stroke-width="1" fill="none"></path></g><g stroke-linecap="round"><g transform="translate(473.5733159974669 599.3582103351564) rotate(0 -4.464184689718479 8.01989618304978)" fill-rule="evenodd"><path d="M0 0 C-0.41 -0.09, -0.77 0.85, -2.47 -0.56 C-4.17 -1.97, -8.07 -7.57, -10.21 -8.45 C-12.35 -9.34, -14.18 -7.8, -15.31 -5.86 C-16.44 -3.92, -17.02 0.71, -17 3.2 C-16.98 5.69, -14.11 7.62, -15.19 9.09 C-16.27 10.55, -22.16 10.43, -23.49 11.98 C-24.82 13.53, -24.33 17.39, -23.19 18.39 C-22.06 19.4, -18.6 18.93, -16.69 18 C-14.78 17.06, -13.69 11.76, -11.72 12.78 C-9.75 13.79, -6.74 22.13, -4.88 24.09 C-3.02 26.04, -0.52 27.43, -0.56 24.49 C-0.6 21.56, -5.5 9.58, -5.09 6.47 C-4.69 3.37, 0.31 5.62, 1.87 5.86 C3.43 6.1, 2.5 7.57, 4.26 7.91 C6.03 8.25, 10.74 9.09, 12.45 7.91 C14.17 6.73, 15.69 1.92, 14.56 0.86 C13.44 -0.21, 6.89 2.93, 5.69 1.5 C4.5 0.06, 7.79 -6.31, 7.4 -7.76 C7 -9.22, 4.62 -8.29, 3.33 -7.21 C2.05 -6.12, 0.24 -2.45, -0.32 -1.24 C-0.88 -0.04, -0.05 -0.21, 0 0" stroke="none" stroke-width="0" fill="#40c057" fill-rule="evenodd"></path><path d="M0 0 C-0.41 -0.09, -0.77 0.85, -2.47 -0.56 C-4.17 -1.97, -8.07 -7.57, -10.21 -8.45 C-12.35 -9.34, -14.18 -7.8, -15.31 -5.86 C-16.44 -3.92, -17.02 0.71, -17 3.2 C-16.98 5.69, -14.11 7.62, -15.19 9.09 C-16.27 10.55, -22.16 10.43, -23.49 11.98 C-24.82 13.53, -24.33 17.39, -23.19 18.39 C-22.06 19.4, -18.6 18.93, -16.69 18 C-14.78 17.06, -13.69 11.76, -11.72 12.78 C-9.75 13.79, -6.74 22.13, -4.88 24.09 C-3.02 26.04, -0.52 27.43, -0.56 24.49 C-0.6 21.56, -5.5 9.58, -5.09 6.47 C-4.69 3.37, 0.31 5.62, 1.87 5.86 C3.43 6.1, 2.5 7.57, 4.26 7.91 C6.03 8.25, 10.74 9.09, 12.45 7.91 C14.17 6.73, 15.69 1.92, 14.56 0.86 C13.44 -0.21, 6.89 2.93, 5.69 1.5 C4.5 0.06, 7.79 -6.31, 7.4 -7.76 C7 -9.22, 4.62 -8.29, 3.33 -7.21 C2.05 -6.12, 0.24 -2.45, -0.32 -1.24 C-0.88 -0.04, -0.05 -0.21, 0 0 M0 0 C-0.41 -0.09, -0.77 0.85, -2.47 -0.56 C-4.17 -1.97, -8.07 -7.57, -10.21 -8.45 C-12.35 -9.34, -14.18 -7.8, -15.31 -5.86 C-16.44 -3.92, -17.02 0.71, -17 3.2 C-16.98 5.69, -14.11 7.62, -15.19 9.09 C-16.27 10.55, -22.16 10.43, -23.49 11.98 C-24.82 13.53, -24.33 17.39, -23.19 18.39 C-22.06 19.4, -18.6 18.93, -16.69 18 C-14.78 17.06, -13.69 11.76, -11.72 12.78 C-9.75 13.79, -6.74 22.13, -4.88 24.09 C-3.02 26.04, -0.52 27.43, -0.56 24.49 C-0.6 21.56, -5.5 9.58, -5.09 6.47 C-4.69 3.37, 0.31 5.62, 1.87 5.86 C3.43 6.1, 2.5 7.57, 4.26 7.91 C6.03 8.25, 10.74 9.09, 12.45 7.91 C14.17 6.73, 15.69 1.92, 14.56 0.86 C13.44 -0.21, 6.89 2.93, 5.69 1.5 C4.5 0.06, 7.79 -6.31, 7.4 -7.76 C7 -9.22, 4.62 -8.29, 3.33 -7.21 C2.05 -6.12, 0.24 -2.45, -0.32 -1.24 C-0.88 -0.04, -0.05 -0.21, 0 0" stroke="#087f5b" stroke-width="1" fill="none"></path></g></g><mask></mask><g stroke-linecap="round"><g stroke-opacity="0.9" fill-opacity="0.9" transform="translate(438.49637217758493 605.7463191573693) rotate(0 28.374692455164677 0)"><path d="M0.36 -0.22 C9.75 -0.32, 47.01 0.42, 56.4 0.5 M-0.9 -1.38 C8.29 -1.34, 45.8 -1.87, 55.27 -1.36" stroke="#000000" stroke-width="1" fill="none"></path></g></g><mask></mask><g stroke-linecap="round"><g stroke-opacity="0.9" fill-opacity="0.9" transform="translate(445.3655013639667 584.9386789616636) rotate(0 19.76254086337815 3.4958396206511964)"><path d="M0 0 C0.17 0.51, 0.12 2.13, 1.04 3.07 C1.96 4.01, 3.79 4.96, 5.53 5.64 C7.28 6.33, 8.95 6.92, 11.51 7.2 C14.06 7.49, 17.49 7.49, 20.87 7.35 C24.25 7.2, 28.91 7.12, 31.79 6.35 C34.68 5.59, 36.89 3.86, 38.17 2.74 C39.46 1.62, 39.3 0.16, 39.53 -0.35 M0 0 C0.17 0.51, 0.12 2.13, 1.04 3.07 C1.96 4.01, 3.79 4.96, 5.53 5.64 C7.28 6.33, 8.95 6.92, 11.51 7.2 C14.06 7.49, 17.49 7.49, 20.87 7.35 C24.25 7.2, 28.91 7.12, 31.79 6.35 C34.68 5.59, 36.89 3.86, 38.17 2.74 C39.46 1.62, 39.3 0.16, 39.53 -0.35" stroke="#000000" stroke-width="1" fill="none"></path></g></g><mask></mask><g stroke-opacity="0.9" fill-opacity="0.9" stroke-linecap="round" transform="translate(456.2501314236363 575.621971866739) rotate(0 10.46711812039041 30.21298467604707)"><path d="M8.81 1 C10.76 -0.49, 13.94 0.47, 15.71 3.61 C17.48 6.75, 18.78 14.03, 19.45 19.85 C20.13 25.67, 20.46 32.4, 19.75 38.54 C19.04 44.67, 16.98 53.22, 15.18 56.67 C13.39 60.12, 10.89 60.33, 8.97 59.23 C7.06 58.13, 5.28 54.59, 3.69 50.09 C2.09 45.59, -0.32 38.75, -0.6 32.24 C-0.89 25.73, 0.23 16.3, 1.98 11.03 C3.73 5.75, 8.19 2.2, 9.9 0.58 C11.61 -1.05, 12.37 1, 12.24 1.27 M14.11 2.91 C16.16 5.55, 18.9 13.16, 19.82 18.94 C20.74 24.72, 20.02 31.5, 19.62 37.58 C19.23 43.66, 19.05 51.78, 17.44 55.41 C15.82 59.03, 12.4 60.1, 9.94 59.34 C7.48 58.58, 4.08 55.47, 2.65 50.85 C1.22 46.23, 1.69 37.91, 1.38 31.64 C1.06 25.36, -0.12 18.43, 0.75 13.2 C1.62 7.98, 4.34 1.82, 6.57 0.3 C8.81 -1.23, 12.68 3.47, 14.18 4.06 C15.68 4.65, 15.69 3.45, 15.58 3.84" stroke="#000000" stroke-width="1" fill="none"></path></g><g stroke-linecap="round"><g stroke-opacity="0.9" fill-opacity="0.9" transform="translate(447.4091901422696 627.7241760464672) rotate(0 19.76254086337815 -3.608993760961326)"><path d="M0 0 C0.92 -0.97, 3.61 -4.59, 5.53 -5.83 C7.45 -7.07, 8.95 -7.14, 11.51 -7.44 C14.06 -7.73, 17.49 -7.73, 20.87 -7.58 C24.25 -7.44, 28.91 -7.35, 31.79 -6.56 C34.68 -5.77, 36.89 -3.98, 38.17 -2.83 C39.46 -1.68, 39.3 -0.17, 39.53 0.37 M0 0 C0.92 -0.97, 3.61 -4.59, 5.53 -5.83 C7.45 -7.07, 8.95 -7.14, 11.51 -7.44 C14.06 -7.73, 17.49 -7.73, 20.87 -7.58 C24.25 -7.44, 28.91 -7.35, 31.79 -6.56 C34.68 -5.77, 36.89 -3.98, 38.17 -2.83 C39.46 -1.68, 39.3 -0.17, 39.53 0.37" stroke="#000000" stroke-width="1" fill="none"></path></g></g><mask></mask><g transform="translate(409.4270354535631 671.3249643259574) rotate(0 59.55597686767578 35)"><text x="0" y="0" font-family="Virgil, Segoe UI Emoji" font-size="28px" fill="#1e1e1e" text-anchor="start" style="white-space: pre;" direction="ltr" dominant-baseline="text-before-edge">Celatone</text><text x="0" y="35" font-family="Virgil, Segoe UI Emoji" font-size="28px" fill="#1e1e1e" text-anchor="start" style="white-space: pre;" direction="ltr" dominant-baseline="text-before-edge">WebApp</text></g><g mask="url(#mask-IcO67YhjeJPVFsKUI07IB)" stroke-linecap="round"><g transform="translate(98.82259244623924 603.8922783593691) rotate(0 138.18039875593587 -0.031017794832848722)"><path d="M0 0 C79.22 1.16, 161.97 0.91, 276.36 -0.06 M0 0 C87.41 -1.39, 173.87 -0.82, 276.36 -0.06" stroke="#1e1e1e" stroke-width="1" fill="none"></path></g><g transform="translate(98.82259244623924 603.8922783593691) rotate(0 138.18039875593587 -0.031017794832848722)"><path d="M252.81 8.33 C257.98 7.31, 267.67 4.56, 276.36 -0.06 M252.81 8.33 C260.67 5.35, 267.3 3.47, 276.36 -0.06" stroke="#1e1e1e" stroke-width="1" fill="none"></path></g><g transform="translate(98.82259244623924 603.8922783593691) rotate(0 138.18039875593587 -0.031017794832848722)"><path d="M252.93 -8.77 C257.96 -4.8, 267.62 -2.57, 276.36 -0.06 M252.93 -8.77 C260.79 -6.36, 267.38 -2.86, 276.36 -0.06" stroke="#1e1e1e" stroke-width="1" fill="none"></path></g></g><mask id="mask-IcO67YhjeJPVFsKUI07IB"><rect x="0" y="0" fill="#fff" width="475.183389958111" height="703.9543139490348"></rect><rect x="176.9710164096947" y="586.3612605645362" fill="#000" width="120.06394958496094" height="35" opacity="1"></rect></mask><g transform="translate(176.9710164096947 586.3612605645363) rotate(0 60.03197479248041 17.493296506862194)"><text x="60.03197479248047" y="0" font-family="Virgil, Segoe UI Emoji" font-size="28px" fill="#1e1e1e" text-anchor="middle" style="white-space: pre;" direction="ltr" dominant-baseline="text-before-edge">Interact</text></g><g stroke-linecap="round"><g transform="translate(1811.688465080899 306.79445847586834) rotate(0 165.08297701703822 0.3954850267010883)"><path d="M0 0 C122.58 -1.22, 243.78 -0.92, 330.17 0.79 M0 0 C73.67 -1.12, 149.06 -1.14, 330.17 0.79" stroke="#1e1e1e" stroke-width="1" fill="none"></path></g><g transform="translate(1811.688465080899 306.79445847586834) rotate(0 165.08297701703822 0.3954850267010883)"><path d="M306.6 9.13 C315.69 5.58, 322.83 2.5, 330.17 0.79 M306.6 9.13 C311.03 7.29, 317.97 5.13, 330.17 0.79" stroke="#1e1e1e" stroke-width="1" fill="none"></path></g><g transform="translate(1811.688465080899 306.79445847586834) rotate(0 165.08297701703822 0.3954850267010883)"><path d="M306.75 -7.97 C315.92 -5.18, 322.99 -1.93, 330.17 0.79 M306.75 -7.97 C311.15 -5.97, 318.05 -4.28, 330.17 0.79" stroke="#1e1e1e" stroke-width="1" fill="none"></path></g></g><mask></mask><g stroke-linecap="round"><g transform="translate(2194.7054866837548 96.23999292022836) rotate(0 0 73.30993094178831)"><path d="M0 0 C-0.64 37.01, 2.01 70.19, 0 146.62 M0 0 C0.11 50.69, -0.73 99.1, 0 146.62" stroke="#1e1e1e" stroke-width="1" fill="none"></path></g><g transform="translate(2194.7054866837548 96.23999292022836) rotate(0 0 73.30993094178831)"><path d="M-8.72 123.19 C-8.35 130.05, -3.57 133.02, 0 146.62 M-8.72 123.19 C-5.53 132.1, -3.42 138.69, 0 146.62" stroke="#1e1e1e" stroke-width="1" fill="none"></path></g><g transform="translate(2194.7054866837548 96.23999292022836) rotate(0 0 73.30993094178831)"><path d="M8.39 123.07 C4.56 129.82, 5.14 132.82, 0 146.62 M8.39 123.07 C5.77 131.95, 2.07 138.59, 0 146.62" stroke="#1e1e1e" stroke-width="1" fill="none"></path></g></g><mask></mask><g stroke-linecap="round" transform="translate(2105.976435978389 10) rotate(0 87.54898440311376 40)"><path d="M0 0 C62.36 1.96, 126.02 1.96, 175.1 0 M0 0 C41.51 1.27, 82.15 0.91, 175.1 0 M175.1 0 C175.79 18.99, 175.45 36.4, 175.1 80 M175.1 0 C174.89 16.22, 175.61 33.4, 175.1 80 M175.1 80 C112.34 79.83, 53.2 80.11, 0 80 M175.1 80 C121.77 80.17, 69.5 79.22, 0 80 M0 80 C-0.28 54.84, -1.08 29.6, 0 0 M0 80 C0.34 57.38, -0.62 35.47, 0 0" stroke="#1e1e1e" stroke-width="1" fill="none"></path></g><g transform="translate(2142.187445833163 32.5) rotate(0 51.337974548339844 17.5)"><text x="51.337974548339844" y="0" font-family="Virgil, Segoe UI Emoji" font-size="28px" fill="#1e1e1e" text-anchor="middle" style="white-space: pre;" direction="ltr" dominant-baseline="text-before-edge">Indexer</text></g></svg>